SplineFontDB: 3.0
FontName: Fold
FullName: Fold
FamilyName: Fold
Weight: Medium
Copyright: Copyright James Kilfiger\nFree for any use. Released to public domain, or if that is not possible,\ndistributable and modifiable under the SIL  
Version: 0.2
ItalicAngle: 0
UnderlinePosition: -75
UnderlineWidth: 50
Ascent: 800
Descent: 200
sfntRevision: 0x00001999
LayerCount: 2
Layer: 0 0 "Back"  1
Layer: 1 0 "Fore"  0
NeedsXUIDChange: 1
XUID: [1021 127 1693476224 10440632]
UniqueID: 4260679
FSType: 0
OS2Version: 2
OS2_WeightWidthSlopeOnly: 0
OS2_UseTypoMetrics: 1
CreationTime: 1145203034
ModificationTime: 1312020892
PfmFamily: 17
TTFWeight: 500
TTFWidth: 5
LineGap: 86
VLineGap: 0
Panose: 2 0 6 3 0 0 0 0 0 0
OS2TypoAscent: 0
OS2TypoAOffset: 1
OS2TypoDescent: 0
OS2TypoDOffset: 1
OS2TypoLinegap: 86
OS2WinAscent: 0
OS2WinAOffset: 1
OS2WinDescent: 0
OS2WinDOffset: 1
HheadAscent: 0
HheadAOffset: 1
HheadDescent: 0
HheadDOffset: 1
OS2SubXSize: 624
OS2SubYSize: 672
OS2SubXOff: 0
OS2SubYOff: 460
OS2SupXSize: 624
OS2SupYSize: 672
OS2SupXOff: 0
OS2SupYOff: 0
OS2StrikeYSize: 47
OS2StrikeYPos: 248
OS2Vendor: 'PfEd'
OS2CodePages: 00000000.00000000
OS2UnicodeRanges: 80000007.40000002.00000000.00000000
Lookup: 4 0 1 "'liga' Standard Ligatures in Latin lookup 0"  {"'liga' Standard Ligatures in Latin lookup 0 subtable"  } ['liga' ('latn' <'dflt' > ) ]
Lookup: 258 0 0 "'kern' Horizontal Kerning in Latin lookup 0"  {"'kern' Horizontal Kerning in Latin lookup 0 subtable"  } ['kern' ('latn' <'dflt' > ) ]
MarkAttachClasses: 1
DEI: 91125

StartChar: exclam
Encoding: 33 33 2
Width: 200
VWidth: 960
GlyphClass: 2
Flags: W
HStem: 1.44727 10<38.0996 155.916> 24.9473 5<38.0996 155.716> 44.9473 5<38.0996 155.5> 64.9473 5<38.0996 155.284> 84.9473 5<38.0996 155.067> 101.447 10<38.0986 154.942> 205 10<54.999 66.499 71.499 86.499 91.499 106.499 111.499 126.499 131.499 144.999> 655 10<54.999 66.499 71.499 86.499 91.499 106.499 111.499 126.499 131.499 144.999>
VStem: 24.0078 14.0918<11.4473 24.9473 29.9473 44.9473 49.9473 64.9473 69.9473 84.9473 89.9473 101.447> 44.999 10<215 655> 66.499 5<215 655> 86.499 5<215 655> 106.499 5<215 655> 126.499 4.99999<215 655> 144.999 10<215 655> 155.5 14.644<11.4473 24.9473 29.9473 44.9473 49.9473 64.9473 69.9473 84.9473 89.9473 101.447>
LayerCount: 2
Fore
SplineSet
155.284 69.9473 m 1
 155.122 84.9473 l 1
 38.0996 84.9473 l 1
 38.0996 69.9473 l 1
 155.284 69.9473 l 1
155.5 49.9473 m 1
 155.338 64.9473 l 1
 38.0996 64.9473 l 1
 38.0996 49.9473 l 1
 155.5 49.9473 l 1
155.716 29.9473 m 1
 155.554 44.9473 l 1
 38.0996 44.9473 l 1
 38.0996 29.9473 l 1
 155.716 29.9473 l 1
155.77 24.9473 m 1
 38.0996 24.9473 l 1
 38.0996 11.4473 l 1
 155.916 11.4473 l 1
 155.77 24.9473 l 1
170.144 10 m 1
 158.079 1.44727 l 1
 26.0791 1.44727 l 1
 24.0078 2.91211 l 1
 23.9277 102.912 l 1
 35.9912 111.447 l 1
 166.991 111.447 l 1
 169.062 110 l 1
 170.144 10 l 1
154.942 101.447 m 1
 38.0986 101.447 l 1
 38.0986 89.9473 l 1
 155.067 89.9473 l 1
 154.942 101.447 l 1
54.999 655 m 1
 54.999 215 l 1
 66.499 215 l 1
 66.499 655 l 1
 54.999 655 l 1
149.999 665 m 1
 154.999 660 l 1
 154.999 210 l 1
 149.999 205 l 1
 49.999 205 l 1
 44.999 210 l 1
 44.999 660 l 1
 49.999 665 l 1
 149.999 665 l 1
131.499 655 m 1
 131.499 215 l 1
 144.999 215 l 1
 144.999 655 l 1
 131.499 655 l 1
126.499 655 m 1
 111.499 655 l 1
 111.499 215 l 1
 126.499 215 l 1
 126.499 655 l 1
106.499 655 m 1
 91.499 655 l 1
 91.499 215 l 1
 106.499 215 l 1
 106.499 655 l 1
86.499 655 m 1
 71.499 655 l 1
 71.499 215 l 1
 86.499 215 l 1
 86.499 655 l 1
EndSplineSet
EndChar

StartChar: quotedbl
Encoding: 34 34 3
Width: 380
VWidth: 960
GlyphClass: 2
Flags: W
HStem: 506.465 21G<45 73.5352> 717 12<235 246.5 251.5 266.5 271.5 286.5 291.5 306.5 311.5 325> 727 12<55 66.5 71.5 86.5 91.5 106.5 111.5 126.5 131.5 145>
VStem: 45 10<522.07 727> 66.5 5<538.57 727> 86.5 5<558.571 727> 106.5 5<578.571 727> 126.5 5<598.571 727> 145 10<612.071 727> 225 10<512.07 717> 246.5 5<528.57 717> 266.5 5<548.571 717> 286.5 5<568.571 717> 306.5 5<588.571 717> 325 10<602.071 717>
LayerCount: 2
Fore
SplineSet
235 717 m 1xdffe
 235 512.07 l 1
 246.5 523.57 l 1
 246.5 717 l 1
 235 717 l 1xdffe
326.447 729 m 1
 335 722 l 1
 335 600 l 1
 333.535 596.465 l 1
 233.535 496.465 l 1
 225 500 l 1
 225 717 l 1
 226.447 729 l 1
 326.447 729 l 1
311.5 717 m 1
 311.5 588.571 l 1
 325 602.071 l 1
 325 717 l 1
 311.5 717 l 1
306.5 717 m 1
 291.5 717 l 1
 291.5 568.571 l 1
 306.5 583.571 l 1
 306.5 717 l 1
286.5 717 m 1
 271.5 717 l 1
 271.5 548.571 l 1
 286.5 563.571 l 1
 286.5 717 l 1
266.5 717 m 1
 251.5 717 l 1
 251.5 528.57 l 1
 266.5 543.571 l 1
 266.5 717 l 1
55 727 m 1xbffe
 55 522.07 l 1
 66.5 533.57 l 1
 66.5 727 l 1
 55 727 l 1xbffe
146.447 739 m 1
 155 732 l 1
 155 610 l 1
 153.535 606.465 l 1
 53.5352 506.465 l 1
 45 510 l 1
 45 727 l 1
 46.4473 739 l 1
 146.447 739 l 1
131.5 727 m 1
 131.5 598.571 l 1
 145 612.071 l 1
 145 727 l 1
 131.5 727 l 1
126.5 727 m 1
 111.5 727 l 1
 111.5 578.571 l 1
 126.5 593.571 l 1
 126.5 727 l 1
106.5 727 m 1
 91.5 727 l 1
 91.5 558.571 l 1
 106.5 573.571 l 1
 106.5 727 l 1
86.5 727 m 1
 71.5 727 l 1
 71.5 538.57 l 1
 86.5 553.571 l 1
 86.5 727 l 1
EndSplineSet
EndChar

StartChar: dollar
Encoding: 36 36 4
Width: 450
VWidth: 960
GlyphClass: 2
Flags: W
HStem: -100.082 13.354<180.001 193.501 198.501 213.501 218.501 233.501 238.501 253.501 258.501 270.001> -9.125 13.1853<155 170.001 180.001 193.501 198.501 213.501 218.501 233.501 238.501 253.501 258.501 270.001 279.228 294> -4.52148 21G<126.646 147.915 301.082 322.526> 94.9971 9.9989<155.001 294> 125.997 9.999<55.001 67.501 72.5 87.5 92.5 107.5 112.5 127.5 132.5 145> 242.87 10.128<155.594 294.592> 344.865 10<155.594 294.592> 463.996 10.002<304.464 316.964 321.964 336.964 341.964 356.964 361.964 376.964 381.964 394.464> 494.996 10.002<155.465 294.464> 595.998 9.99701<155.464 170.001 180.001 191.501 196.501 211.501 216.501 231.501 236.501 251.501 256.501 270.001 280.001 294.464> 685.173 13.7992<180.001 191.501 196.501 211.501 216.501 231.501 236.501 251.501 256.501 270.001>
VStem: 45.4648 10<102.053 125.996 350.922 497.938> 67.501 4.999<89.4277 125.996 337.287 511.574> 87.5 5<69.2295 125.997 317.086 531.773> 107.5 5<49.0293 125.997 296.888 551.974> 127.5 5<28.8291 125.997 276.688 572.175> 145.594 9.871<11.1543 94.9971 104.996 125.997 260.021 344.865 354.865 494.996 504.998 588.839> 170.001 10<-86.9287 -9.125 607.933 684.776> 193.501 5<-86.7285 -9.125 607.935 684.901> 213.501 5<-86.5127 -9.125 607.935 685.119> 231.501 5<-86.2969 -9.125 607.934 685.335> 251.501 5<-86.0811 -9.125 607.934 685.551> 270.001 10<-85.9561 -9.125 607.933 685.75> 294.592 10.002<11.1533 94.9971 104.996 242.87 252.998 337.708 473.998 494.996 504.998 588.841> 317.094 5<29.8184 320.033 473.998 571.166> 337.094 5<50.0195 299.834 473.998 550.967> 357.501 4.59299<70.2197 279.635 473.999 530.768> 377.094 5<90.418 259.434 473.999 510.565> 394.001 11<102.053 246.808 473.997 497.94>
LayerCount: 2
Fore
SplineSet
361.964 530.768 m 1x9ffffff8
 361.964 473.999 l 1
 376.964 473.999 l 1
 376.964 515.617 l 1
 361.964 530.768 l 1x9ffffff8
341.964 550.967 m 1
 341.964 473.998 l 1
 356.964 473.998 l 1
 356.964 535.816 l 1
 341.964 550.967 l 1
321.964 571.166 m 1
 321.964 473.998 l 1
 336.964 473.998 l 1
 336.964 556.016 l 1
 321.964 571.166 l 1
304.464 588.841 m 1
 304.464 499.998 l 1
 304.464 473.998 l 1
 316.964 473.998 l 1
 316.964 576.216 l 1
 304.464 588.841 l 1
294.464 504.998 m 1
 294.464 595.997 l 1
 280 595.997 l 1
 280 595.917 l 1
 278.535 593.846 l 1
 278.027 593.846 l 0
 257.538 593.846 198.368 594.782 178.535 594.767 c 1
 177.585 595.998 l 1
 155.464 595.998 l 1
 155.464 504.998 l 1
 294.464 504.998 l 1
394.464 497.94 m 1
 381.964 510.565 l 1
 381.964 473.997 l 1
 394.464 473.997 l 1
 394.464 497.94 l 1
87.5 69.2295 m 1
 87.5 125.997 l 1
 72.5 125.997 l 1
 72.5 84.3789 l 1
 87.5 69.2295 l 1
107.5 49.0293 m 1
 107.5 125.997 l 1
 92.5 125.997 l 1
 92.5 64.1787 l 1
 107.5 49.0293 l 1
127.5 28.8291 m 1
 127.5 125.997 l 1
 112.5 125.997 l 1
 112.5 43.9795 l 1
 127.5 28.8291 l 1
145 11.1543 m 1
 145 99.9971 l 1
 145 125.997 l 1
 132.5 125.997 l 1
 132.5 23.7793 l 1
 145 11.1543 l 1
155 94.9971 m 1
 155 3.99707 l 1
 170.76 3.99707 l 1
 171.447 4.98047 l 1
 191.274 4.99595 250.413 4.06034 270.92 4.06034 c 0
 271.098 4.06034 271.274 4.06041 271.447 4.06055 c 1
 271.496 3.99707 l 1
 294 3.99707 l 1
 294 94.9971 l 1
 155 94.9971 l 1
405 248.997 m 1
 405.001 99.9961 l 1
 403.001 95.9961 l 1
 302.537 -4.52148 l 1
 301.082 -3.92285 l 1
 299.001 -6.00391 l 1
 279.228 -6.00391 l 1
 280.001 -7.00391 l 1
 280.001 -99.0039 l 1
 278.536 -100.075 l 1
 273.407 -100.131 265.648 -100.149 256.607 -100.149 c 0
 239.359 -100.149 217.448 -100.082 200.242 -100.082 c 0
 191.296 -100.082 183.623 -100.1 178.536 -100.155 c 1
 170.001 -89.0918 l 1
 170.001 -6.00391 l 1
 150.001 -6.00391 l 1
 147.915 -3.92285 l 1
 146.448 -4.52148 l 1xbffffff8
 46.4482 96.4785 l 1
 45.001 99.9961 l 1
 45.001 130.996 l 1
 50.001 135.996 l 1
 150.001 135.996 l 1
 155.001 130.996 l 1
 155.001 104.996 l 1
 294.592 104.996 l 1
 294.592 242.87 l 1
 150.594 242.87 l 1
 148.513 244.946 l 1
 147.058 244.349 l 1
 47.0576 345.349 l 1
 45.4648 348.865 l 1
 45.4648 499.996 l 1
 46.9287 503.514 l 1
 146.929 604.514 l 1
 148.384 603.909 l 1
 150.465 605.995 l 1
 170.001 605.995 l 1
 170.001 697.827 l 1
 171.448 698.898 l 1
 176.597 698.954 184.399 698.972 193.486 698.972 c 0
 210.699 698.972 232.528 698.907 249.691 698.907 c 0
 258.658 698.907 266.352 698.924 271.448 698.979 c 1
 280.001 687.916 l 1
 280.001 605.996 l 1
 299.465 605.996 l 1
 301.551 603.91 l 1
 303.018 604.514 l 1
 403.001 503.996 l 1
 404.001 499.996 l 1
 404.001 468.996 l 1
 399.465 463.996 l 1
 299.465 463.996 l 1
 294.465 468.996 l 1
 294.465 494.996 l 1
 155.465 494.996 l 1
 155.465 354.865 l 1
 299.594 354.865 l 1
 301.68 352.779 l 1
 303.146 353.384 l 1
 403 251.997 l 1
 405 248.997 l 1
55.001 102.053 m 1
 67.501 89.4277 l 1
 67.501 125.996 l 1
 55.001 125.996 l 1
 55.001 102.053 l 1
68.9648 511.574 m 1
 55.4648 497.938 l 1
 55.4648 350.922 l 1
 69.0938 337.287 l 1
 68.9648 511.574 l 1
88.9648 531.773 m 1
 73.9648 516.623 l 1
 73.9648 332.236 l 1
 89.0938 317.086 l 1
 88.9648 531.773 l 1
108.965 551.974 m 1
 93.9648 536.824 l 1
 93.9648 312.037 l 1
 109.094 296.888 l 1
 108.965 551.974 l 1
128.965 572.175 m 1
 113.965 557.025 l 1
 113.965 291.838 l 1
 129.094 276.688 l 1
 128.965 572.175 l 1
377.094 85.3701 m 1
 377.094 264.484 l 1
 362.094 279.635 l 1
 362.094 70.2197 l 1
 377.094 85.3701 l 1
357.501 65.1689 m 1
 357.501 113.442 357.094 243.996 357.094 284.685 c 1
 342.094 299.834 l 1
 342.094 50.0195 l 1
 357.501 65.1689 l 1
337.094 44.9678 m 1
 337.094 304.883 l 1
 322.094 320.033 l 1
 322.094 29.8184 l 1
 337.094 44.9678 l 1
145.465 588.839 m 1
 133.965 577.224 l 1
 133.965 271.638 l 1
 145.594 260.021 l 1
 145.465 588.839 l 1
317.094 24.7686 m 1
 317.094 325.083 l 1
 304.594 337.708 l 1
 304.594 11.1533 l 1
 317.094 24.7686 l 1
155.594 252.998 m 1
 294.592 252.998 l 1
 294.592 344.865 l 1
 155.594 344.865 l 1
 155.594 252.998 l 1
394.594 246.808 m 1
 382.094 259.434 l 1
 382.094 90.418 l 1
 394.001 102.053 l 1
 394.594 246.808 l 1
238.501 -86.2969 m 1
 253.501 -86.1348 l 1
 253.501 -9.125 l 1
 238.501 -9.125 l 1xdffffff8
 238.501 -86.2969 l 1
218.501 -86.5127 m 1
 233.501 -86.3506 l 1
 233.501 -9.125 l 1
 218.501 -9.125 l 1
 218.501 -86.5127 l 1
198.501 -86.7285 m 1
 213.501 -86.5664 l 1
 213.501 -9.125 l 1
 198.501 -9.125 l 1
 198.501 -86.7285 l 1
193.501 -86.7822 m 1
 193.501 -9.125 l 1
 180.001 -9.125 l 1
 180.001 -86.9287 l 1
 193.501 -86.7822 l 1
270.001 -85.9561 m 1
 270.001 -9.125 l 1
 258.501 -9.125 l 1
 258.501 -86.0811 l 1
 270.001 -85.9561 l 1
211.501 685.119 m 1
 196.501 684.957 l 1
 196.501 607.935 l 1
 211.501 607.935 l 1
 211.501 685.119 l 1
231.501 685.335 m 1
 216.501 685.173 l 1
 216.501 607.934 l 1
 231.501 607.934 l 1
 231.501 685.335 l 1
251.501 685.551 m 1
 236.501 685.389 l 1
 236.501 607.934 l 1
 251.501 607.934 l 1
 251.501 685.551 l 1
256.501 685.604 m 1
 256.501 607.933 l 1
 270.001 607.933 l 1
 270.001 685.75 l 1
 256.501 685.604 l 1
180.001 684.776 m 1
 180.001 607.933 l 1
 191.501 607.933 l 1
 191.501 684.901 l 1
 180.001 684.776 l 1
EndSplineSet
EndChar

StartChar: quotesingle
Encoding: 39 39 5
Width: 200
VWidth: 960
GlyphClass: 2
Flags: W
HStem: 717 12<55 66.5 71.5 86.5 91.5 106.5 111.5 126.5 131.5 145>
VStem: 45 10<512.07 717> 66.5 5<528.57 717> 86.5 5<548.571 717> 106.5 5<568.571 717> 126.5 5<588.571 717> 145 10<602.071 717>
LayerCount: 2
Fore
SplineSet
55 717 m 1
 55 512.07 l 1
 66.5 523.57 l 1
 66.5 717 l 1
 55 717 l 1
146.447 729 m 1
 155 722 l 1
 155 600 l 1
 153.535 596.465 l 1
 53.5352 496.465 l 1
 45 500 l 1
 45 717 l 1
 46.4473 729 l 1
 146.447 729 l 1
131.5 717 m 1
 131.5 588.571 l 1
 145 602.071 l 1
 145 717 l 1
 131.5 717 l 1
126.5 717 m 1
 111.5 717 l 1
 111.5 568.571 l 1
 126.5 583.571 l 1
 126.5 717 l 1
106.5 717 m 1
 91.5 717 l 1
 91.5 548.571 l 1
 106.5 563.571 l 1
 106.5 717 l 1
86.5 717 m 1
 71.5 717 l 1
 71.5 528.57 l 1
 86.5 543.571 l 1
 86.5 717 l 1
EndSplineSet
EndChar

StartChar: parenleft
Encoding: 40 40 6
Width: 201
VWidth: 960
GlyphClass: 2
Flags: W
HStem: -202 10<155 194.002> -101 10<155 194.001> 625 10.001<155 194> 726.001 9.99902<155 194>
VStem: 45 10<-93.9434 628.93> 68.5 5<-107.578 642.43> 88.5 5<-127.778 662.43> 108.5 5<-147.979 682.43> 128.5 5<-168.179 702.43> 145 10<-184.844 -101 -91 625 635.001 718.93> 194.002 10.998<-192.001 -101 635.001 726.001>
LayerCount: 2
Fore
SplineSet
205 -202 m 1
 150 -202 l 1
 147.914 -199.914 l 1
 146.447 -200.518 l 1
 46.4473 -99.5176 l 1
 45 -96 l 1
 45 631 l 1
 46.4473 634.536 l 1
 146.447 734.536 l 1
 147.925 733.925 l 1
 150 736 l 1
 205 736 l 1
 205 625 l 1
 155 625 l 1
 155 -91 l 1
 204.998 -90.999 l 1
 205 -202 l 1
194.002 -192.001 m 1
 194.001 -101 l 1
 155 -101 l 1
 155 -192 l 1
 194.002 -192.001 l 1
145 -96 m 1
 145 630.001 l 1
 145 718.93 l 1
 133.5 707.43 l 1
 133.5 -173.229 l 1
 145 -184.844 l 1
 145 -96 l 1
155 635.001 m 1
 194 635.001 l 1
 194 726.001 l 1
 155 726.001 l 1
 155 635.001 l 1
128.5 702.43 m 1
 113.5 687.43 l 1
 113.5 -153.028 l 1
 128.5 -168.179 l 1
 128.5 702.43 l 1
108.5 682.43 m 1
 93.5 667.43 l 1
 93.5 -132.828 l 1
 108.5 -147.979 l 1
 108.5 682.43 l 1
88.5 662.43 m 1
 73.5 647.43 l 1
 73.5 -112.628 l 1
 88.5 -127.778 l 1
 88.5 662.43 l 1
68.5 642.43 m 1
 55 628.93 l 1
 55 -93.9434 l 1
 68.5 -107.578 l 1
 68.5 642.43 l 1
EndSplineSet
EndChar

StartChar: parenright
Encoding: 41 41 7
Width: 200
VWidth: 960
GlyphClass: 2
Flags: W
VStem: 66.5 5<-168.179 702.43> 86.5 5<-147.979 682.43> 106.5 5<-127.778 662.43> 126.5 5<-107.578 642.43>
LayerCount: 2
Fore
SplineSet
-5 -202 m 1
 50 -202 l 1
 52.0859 -199.914 l 1
 53.5527 -200.518 l 1
 153.553 -99.5176 l 1
 155 -96 l 1
 155 631 l 1
 153.553 634.536 l 1
 53.5527 734.536 l 1
 52.0752 733.925 l 1
 50 736 l 1
 -5 736 l 1
 -5 625 l 1
 45 625 l 1
 45 -91 l 1
 -4.99805 -90.999 l 1
 -5 -202 l 1
5.99805 -192.001 m 1
 5.99902 -101 l 1
 45 -101 l 1
 45 -192 l 1
 5.99805 -192.001 l 1
55 -96 m 1
 55 630.001 l 1
 55 718.93 l 1
 66.5 707.43 l 1
 66.5 -173.229 l 1
 55 -184.844 l 1
 55 -96 l 1
45 635.001 m 1
 6 635.001 l 1
 6 726.001 l 1
 45 726.001 l 1
 45 635.001 l 1
71.5 702.43 m 1
 86.5 687.43 l 1
 86.5 -153.028 l 1
 71.5 -168.179 l 1
 71.5 702.43 l 1
91.5 682.43 m 1
 106.5 667.43 l 1
 106.5 -132.828 l 1
 91.5 -147.979 l 1
 91.5 682.43 l 1
111.5 662.43 m 1
 126.5 647.43 l 1
 126.5 -112.628 l 1
 111.5 -127.778 l 1
 111.5 662.43 l 1
131.5 642.43 m 1
 145 628.93 l 1
 145 -93.9434 l 1
 131.5 -107.578 l 1
 131.5 642.43 l 1
EndSplineSet
EndChar

StartChar: plus
Encoding: 43 43 8
Width: 200
VWidth: 960
GlyphClass: 2
Flags: W
HStem: 174.5 10<79.5 120.5> 244 10<10 69.5 79.5 120.5 130.5 190> 295 10<10 69.5 79.5 120.5 130.5 190> 364.5 10<79.5 120.5>
VStem: 0 10<254 295> 69.5 10<184.5 244 305 364.5> 120.5 10<184.5 244 305 364.5> 190 10<254 295>
LayerCount: 2
Fore
SplineSet
10 295 m 1
 10 254 l 1
 190 254 l 1
 190 295 l 1
 10 295 l 1
195 305 m 1
 200 300 l 1
 200 249 l 1
 195 244 l 1
 130.5 244 l 1
 130.5 179.5 l 1
 125.5 174.5 l 1
 74.5 174.5 l 1
 69.5 179.5 l 1
 69.5 244 l 1
 5 244 l 1
 0 249 l 1
 0 300 l 1
 5 305 l 1
 69.5 305 l 1
 69.5 369.5 l 1
 74.5 374.5 l 1
 125.5 374.5 l 1
 130.5 369.5 l 1
 130.5 305 l 1
 195 305 l 1
79.5 305 m 1
 120.5 305 l 1
 120.5 364.5 l 1
 79.5 364.5 l 1
 79.5 305 l 1
120.5 244 m 1
 79.5 244 l 1
 79.5 184.5 l 1
 120.5 184.5 l 1
 120.5 244 l 1
EndSplineSet
EndChar

StartChar: comma
Encoding: 44 44 9
Width: 200
VWidth: 960
GlyphClass: 2
Flags: W
HStem: 87 12<55 66.5 71.5 86.5 91.5 106.5 111.5 126.5 131.5 145>
VStem: 45 10<-117.93 87> 66.5 5<-101.43 87> 86.5 5<-81.4287 87> 106.5 5<-61.4287 87> 126.5 5<-41.4287 87> 145 10<-27.9287 87>
LayerCount: 2
Fore
SplineSet
55 87 m 1
 55 -117.93 l 1
 66.5 -106.43 l 1
 66.5 87 l 1
 55 87 l 1
146.447 99 m 1
 155 92 l 1
 155 -30 l 1
 153.535 -33.5352 l 1
 53.5352 -133.535 l 1
 45 -130 l 1
 45 87 l 1
 46.4473 99 l 1
 146.447 99 l 1
131.5 87 m 1
 131.5 -41.4287 l 1
 145 -27.9287 l 1
 145 87 l 1
 131.5 87 l 1
126.5 87 m 1
 111.5 87 l 1
 111.5 -61.4287 l 1
 126.5 -46.4287 l 1
 126.5 87 l 1
106.5 87 m 1
 91.5 87 l 1
 91.5 -81.4287 l 1
 106.5 -66.4287 l 1
 106.5 87 l 1
86.5 87 m 1
 71.5 87 l 1
 71.5 -101.43 l 1
 86.5 -86.4287 l 1
 86.5 87 l 1
EndSplineSet
EndChar

StartChar: hyphen
Encoding: 45 45 10
Width: 200
VWidth: 960
GlyphClass: 2
Flags: W
HStem: 244 10<10 190> 295 10<10 190>
VStem: 0 10<254 295> 190 10<254 295>
LayerCount: 2
Fore
SplineSet
195 305 m 1
 200 300 l 1
 200 249 l 1
 195 244 l 1
 5 244 l 1
 0 249 l 1
 0 300 l 1
 5 305 l 1
 195 305 l 1
10 295 m 1
 10 254 l 1
 190 254 l 1
 190 295 l 1
 10 295 l 1
EndSplineSet
EndChar

StartChar: period
Encoding: 46 46 11
Width: 206
VWidth: 960
GlyphClass: 2
Flags: W
HStem: -8.55273 10<38.1436 155.916> 14.9473 5<38.1328 155.716> 34.9473 5<38.1162 155.5> 54.9473 5<38.0996 155.284> 74.9473 5<38.084 155.068> 91.4473 9.99969<38.0703 154.943>
VStem: 23.9287 14.167<1.44727 14.9473 19.9473 34.9473 39.9473 54.9473 59.9473 74.9473 79.9473 91.4473> 155.284 13.779<1.44727 14.9473 19.9473 34.9473 39.9473 54.9473 59.9473 74.9473 79.9473 91.4473>
LayerCount: 2
Fore
SplineSet
154.943 91.4473 m 1
 38.0703 91.4473 l 1
 38.0703 87.6143 38.0801 83.7803 38.0801 79.9473 c 1
 155.068 79.9473 l 1
 154.943 91.4473 l 1
170.145 -0 m 1
 158.08 -8.55273 l 1
 26.0801 -8.55273 l 1
 24.0088 -7.08789 l 1
 23.9287 92.9121 l 1
 35.9922 101.447 l 1
 166.992 101.447 l 1
 169.063 100 l 1
 170.145 -0 l 1
155.771 14.9473 m 1
 38.1328 14.9473 l 1
 38.1436 1.44727 l 1
 155.916 1.44727 l 1
 155.771 14.9473 l 1
155.716 19.9473 m 1
 155.554 34.9473 l 1
 38.1162 34.9473 l 1
 38.1289 19.9473 l 1
 155.716 19.9473 l 1
155.5 39.9473 m 1
 155.338 54.9473 l 1
 38.0996 54.9473 l 1
 38.1123 39.9473 l 1
 155.5 39.9473 l 1
155.284 59.9473 m 1
 155.122 74.9473 l 1
 38.084 74.9473 l 1
 38.0957 59.9473 l 1
 155.284 59.9473 l 1
EndSplineSet
EndChar

StartChar: slash
Encoding: 47 47 12
Width: 400
VWidth: 960
GlyphClass: 2
Flags: W
LayerCount: 2
Fore
SplineSet
26.3359 -82.9805 m 1
 316.752 669.951 l 1
 323.217 672.817 l 1
 370.799 654.465 l 1
 373.664 648 l 1
 83.248 -104.933 l 1
 76.7832 -107.798 l 1
 29.2012 -89.4443 l 1
 26.3359 -82.9805 l 1
324.283 661.688 m 1
 37.4648 -81.9141 l 1
 75.7168 -96.6689 l 1
 362.535 646.934 l 1
 324.283 661.688 l 1
EndSplineSet
EndChar

StartChar: zero
Encoding: 48 48 13
Width: 400
VWidth: 960
GlyphClass: 2
Flags: W
HStem: -5 10.001<155 244> 96.001 10<155 244> 495.001 10<155 244> 596.001 9.99902<155 244>
VStem: 45 10<102.072 497.943> 62.5 5<94.5723 505.519> 82.5 5<74.5723 525.719> 102.5 5<54.5723 545.919> 122.5 5<34.5723 566.119> 145 10<12.0723 96.001 106.001 495.001 505.001 588.844> 244 10<12.0723 96.001 106.001 495.001 505.001 588.844> 270.5 5<33.5732 567.13> 290.5 5<53.5723 546.929> 310.5 5<73.5713 526.729> 330.5 5<93.5713 506.528> 344 10<102.071 497.943>
LayerCount: 2
Fore
SplineSet
354 100 m 1
 352.536 96.4648 l 1
 252.536 -3.53516 l 1
 251.071 -2.92871 l 1
 249 -5 l 1
 150 -5 l 1
 147.925 -2.9248 l 1
 146.447 -3.53516 l 1
 46.4473 96.4648 l 1
 45 100 l 1
 45 500 l 1
 46.4473 503.518 l 1
 146.447 604.518 l 1
 147.914 603.914 l 1
 150 606 l 1
 249 606 l 1
 251.081 603.919 l 1
 252.536 604.518 l 1
 352.536 503.518 l 1
 354 500 l 1
 354 100 l 1
55 497.943 m 1
 55 102.072 l 1
 62.5 94.5723 l 1
 62.5 505.519 l 1
 55 497.943 l 1
244 596.001 m 1
 155 596.001 l 1
 155 505.001 l 1
 244 505.001 l 1
 244 596.001 l 1
244 495.001 m 1
 155 495.001 l 1
 155 106.001 l 1
 244 106.001 l 1
 244 495.001 l 1
254 500.001 m 1
 254 101.001 l 1
 254 12.0723 l 1
 270.5 28.5723 l 1
 270.5 572.179 l 1
 254 588.844 l 1
 254 500.001 l 1
244 96.001 m 1
 155 96.001 l 1
 155 5.00098 l 1
 244 5.00098 l 1
 244 96.001 l 1
127.5 571.169 m 1
 127.5 29.5723 l 1
 145 12.0723 l 1
 145 101.001 l 1
 145 500.001 l 1
 145 588.844 l 1
 127.5 571.169 l 1
122.5 566.119 m 1
 107.5 550.969 l 1
 107.5 49.5723 l 1
 122.5 34.5723 l 1
 122.5 566.119 l 1
102.5 545.919 m 1
 87.5 530.769 l 1
 87.5 69.5723 l 1
 102.5 54.5723 l 1
 102.5 545.919 l 1
82.5 525.719 m 1
 67.5 510.569 l 1
 67.5 89.5723 l 1
 82.5 74.5723 l 1
 82.5 525.719 l 1
275.5 33.5732 m 1
 290.5 48.5723 l 1
 290.5 551.979 l 1
 275.5 567.13 l 1
 275.5 33.5732 l 1
295.5 53.5723 m 1
 310.5 68.5713 l 1
 310.5 531.778 l 1
 295.5 546.929 l 1
 295.5 53.5723 l 1
315.5 73.5713 m 1
 330.5 88.5713 l 1
 330.5 511.578 l 1
 315.5 526.729 l 1
 315.5 73.5713 l 1
335.5 93.5713 m 1
 344 102.071 l 1
 344 497.943 l 1
 335.5 506.528 l 1
 335.5 93.5713 l 1
EndSplineSet
EndChar

StartChar: one
Encoding: 49 49 14
Width: 300
VWidth: 960
GlyphClass: 2
Flags: W
HStem: -5 10.001<154.996 167.499 172.499 187.499 192.499 207.499 212.499 227.499 232.499 244.999> 584.772 20G<150.081 214.431>
VStem: 144.999 9.99701<5.00098 405.312 422.913 583.789> 167.499 5<5.00098 587.538> 187.499 5<5.00098 581.217> 207.499 5<5.00098 574.896> 227.499 5<5 568.574> 244.999 10.001<5 564.623>
LayerCount: 2
Fore
SplineSet
255 0 m 1
 249.999 -5 l 1
 149.999 -5 l 1
 144.999 -0 l 1
 144.756 405.312 l 1
 88.1152 323.161 l 1
 81.2441 321.826 l 1
 -2.21484 376.922 l 1
 -3.59277 383.909 l 1
 145.506 602.812 l 1
 150.081 601.404 l 1
 151.146 604.772 l 1
 251.507 573.055 l 1
 250 568.287 l 1
 255 568.287 l 1
 255 0 l 1
232.499 568.574 m 1
 232.499 5 l 1
 244.999 5 l 1
 244.999 564.623 l 1
 232.499 568.574 l 1
227.499 570.154 m 1
 212.499 574.896 l 1
 212.499 5 l 1
 227.499 5 l 1
 227.499 570.154 l 1
207.499 576.477 m 1
 192.499 581.217 l 1
 192.499 5.00098 l 1
 207.499 5.00098 l 1
 207.499 576.477 l 1
187.499 582.797 m 1
 172.499 587.538 l 1
 172.499 5.00098 l 1
 187.499 5.00098 l 1
 187.499 582.797 l 1
167.499 589.118 m 1
 154.644 593.182 l 1
 154.996 5.00098 l 1
 167.499 5.00098 l 1
 167.499 589.118 l 1
144.746 422.913 m 1
 144.649 583.789 l 1
 7.5293 382.474 l 1
 82.665 332.872 l 1
 144.746 422.913 l 1
EndSplineSet
EndChar

StartChar: two
Encoding: 50 50 15
Width: 400
VWidth: 960
GlyphClass: 2
Flags: W
HStem: -5 10<63.2744 288.93> 95 10<31.8008 149.25 162.749 378.93> 460 9.99899<55 68.2365 72.9121 86.7686 91.2389 107.5 112.5 127.5 132.5 145> 495 9.99899<155 244> 595.786 10.208<155 244>
VStem: 45 10<469.999 498.928> 69.2773 4.9991<469.999 512.741> 84.8203 5.00085<469.999 530.26> 107.5 5<469.999 551.428> 127.5 5<469.999 571.428> 145 10<469.999 495 504.999 588.928> 244 10.001<232.506 336.316 351.109 495 504.999 588.93> 265.501 5<272.944 572.43> 285.501 5<321.961 552.43> 305.501 5<370.978 532.43> 325.501 4.99899<419.992 512.428> 344 10<453.078 498.928>
LayerCount: 2
Fore
SplineSet
45 501 m 1
 46.4648 504.535 l 1
 146.465 604.535 l 1
 148.021 603.891 l 1
 150.22 605.994 l 1
 165.586 605.331 181.059 604.866 197.709 604.833 c 2
 197.709 604.833 218.369 604.792 248.804 605.994 c 1
 250.988 603.895 l 1
 252.536 604.535 l 1
 352.536 504.535 l 1
 354 500.999 l 1
 354 452.097 l 1
 353.629 450.208 l 1
 254 206.107 l 1
 251.781 207.016 l 1
 250.482 207.016 l 1
 253.104 204.638 l 1
 162.749 105 l 1
 391 105 l 1
 394.536 96.4648 l 1
 294.536 -3.53516 l 1
 291 -5 l 1
 59.8467 -5 l 1
 55.1836 -1.80371 l 1
 14.7119 101.572 l 1
 244 351.109 l 1
 244 495 l 1
 155 495 l 1
 155 465 l 1
 150 460 l 1
 50 460 l 1
 45 465 l 1
 45 501 l 1
344 453.078 m 1
 344 498.928 l 1
 330.5 512.428 l 1
 330.5 419.992 l 1
 344 453.078 l 1
155 595.786 m 1
 155 504.999 l 1
 244 504.999 l 1
 244 595.786 l 1
 220.294 594.909 206.848 594.83 200.408 594.83 c 0
 197.708 594.833 l 0
 182.774 594.855 168.75 595.231 155 595.786 c 1
145 588.928 m 1
 132.5 576.428 l 1
 132.5 469.999 l 1
 145 469.999 l 1
 145 499.999 l 1
 145 588.928 l 1
127.5 571.428 m 1
 112.5 556.428 l 1
 112.5 469.999 l 1
 127.5 469.999 l 1
 127.5 571.428 l 1
107.5 551.428 m 1
 91.8672 535.794 l 1
 89.871 515.549 89.8253 508.217 89.8211 500.383 c 0
 89.8211 491.085 90.2913 481.652 91.8242 469.999 c 1
 107.5 469.999 l 1
 107.5 551.428 l 1
86.7686 469.998 m 1
 85.2588 481.723 84.8203 491.256 84.8203 500.672 c 0
 84.8203 507.481 84.8838 514.358 86.332 530.26 c 1
 73.3447 517.272 l 1
 74.3604 509.611 74.3037 501.736 74.2764 499.89 c 0
 74.2822 493.595 74.0283 484.441 72.9121 469.998 c 1
 86.7686 469.998 l 1
67.8975 469.999 m 1
 69.0234 484.476 69.2773 493.619 69.2773 499.89 c 0
 69.2773 504.875 69.125 509.091 68.8135 512.741 c 1
 55 498.928 l 1
 55 469.999 l 1
 67.8975 469.999 l 1
265.501 260.69 m 1
 265.501 577.43 l 1
 254.001 588.93 l 1
 254.001 500.001 l 1
 254.001 232.506 l 1
 265.501 260.69 l 1
270.501 272.944 m 1
 285.501 309.707 l 1
 285.501 557.43 l 1
 270.501 572.43 l 1
 270.501 272.944 l 1
290.501 321.961 m 1
 305.501 358.724 l 1
 305.501 537.43 l 1
 290.501 552.43 l 1
 290.501 321.961 l 1
310.501 370.978 m 1
 325.501 407.739 l 1
 325.501 517.43 l 1
 310.501 532.43 l 1
 310.501 370.978 l 1
244.001 336.316 m 1
 31.8008 105 l 1
 149.25 105 l 1
 244.001 209.485 l 1
 244.001 336.316 l 1
367.43 83.5 m 1
 378.93 95 l 1
 28.4561 95 l 1
 32.9053 83.5 l 1
 367.43 83.5 l 1
362.43 78.5 m 1
 34.8398 78.5 l 1
 40.6426 63.5 l 1
 347.43 63.5 l 1
 362.43 78.5 l 1
342.43 58.5 m 1
 42.5771 58.5 l 1
 48.3799 43.5 l 1
 327.43 43.5 l 1
 342.43 58.5 l 1
322.43 38.5 m 1
 50.3145 38.5 l 1
 56.1172 23.5 l 1
 307.43 23.5 l 1
 322.43 38.5 l 1
302.43 18.5 m 1
 58.0518 18.5 l 1
 63.2744 5 l 1
 288.93 5 l 1
 302.43 18.5 l 1
EndSplineSet
EndChar

StartChar: three
Encoding: 51 51 16
Width: 400
VWidth: 960
GlyphClass: 2
Flags: W
HStem: -5 9.99902<155 245> 94.999 10.001<155 245> 126.999 10.001<55 67.5 72.5 87.5 92.5 107.5 112.5 127.5 132.5 145> 245 9.99899<135 245> 344.999 10.001<135 245> 464 9.99899<55 67.5 72.5 87.5 92.5 107.5 112.5 127.5 132.5 145> 495 9.99899<155 245> 594.999 10.001<155 245>
VStem: 45 10<103.056 126.999 473.999 497.943> 67.5 5<90.4307 126.999 474 510.567> 87.5 5<70.2314 126.999 474 530.769> 107.5 5<50.0303 126.999 473.999 550.968> 127.5 5<29.8301 126.999 254.999 344.999 473.999 571.168> 145 10<12.1553 94.999 105 126.999 473.999 495 504.999 588.843> 245 10<11.1553 94.999 105 245 254.999 344.999 355 495 504.999 589.325> 268.5 5<29.8418 570.64> 288.5 5<50.041 550.441> 308.5 5<70.2412 530.241> 328.5 5<90.4414 510.041> 345 10<102.057 498.425>
LayerCount: 2
Fore
SplineSet
253.553 605 m 1
 353.553 504 l 1
 355 500.482 l 1
 355 100 l 1
 353.553 96.4824 l 1
 253.553 -4.51758 l 1
 251.377 -3.62305 l 1
 250 -5 l 1
 150 -5 l 1
 147.914 -2.91406 l 1
 146.447 -3.51758 l 1
 46.4473 97.4824 l 1
 45 101 l 1
 45 132 l 1
 50 137 l 1
 150 137 l 1
 155 132 l 1
 155 105 l 1
 245 105 l 1
 245 245 l 1
 130 245 l 1
 125 250 l 1
 125 350 l 1
 130 355 l 1
 245 355 l 1
 245 495 l 1
 155 495 l 1
 155 469 l 1
 150 464 l 1
 50 464 l 1
 45 469 l 1
 45 500 l 1
 46.4473 503.518 l 1
 146.447 604.518 l 1
 148.623 603.623 l 1
 150 605 l 1
 250 605 l 1
 251.035 603.965 l 1
 253.553 605 l 1
345 498.425 m 1
 333.5 510.041 l 1
 333.5 90.4414 l 1
 345 102.057 l 1
 345 498.425 l 1
313.5 70.2412 m 1
 328.5 85.3916 l 1
 328.5 515.09 l 1
 313.5 530.241 l 1
 313.5 70.2412 l 1
293.5 50.041 m 1
 308.5 65.1914 l 1
 308.5 535.291 l 1
 293.5 550.441 l 1
 293.5 50.041 l 1
273.5 29.8418 m 1
 288.5 44.9902 l 1
 288.5 555.49 l 1
 273.5 570.64 l 1
 273.5 29.8418 l 1
55 497.943 m 1
 55 473.999 l 1
 67.5 473.999 l 1
 67.5 510.567 l 1
 55 497.943 l 1
245 504.999 m 1
 245 594.999 l 1
 155 594.999 l 1
 155 504.999 l 1
 245 504.999 l 1
255 589.325 m 1
 255 499.999 l 1
 255 349.999 l 1
 255 249.999 l 1
 255 99.999 l 1
 255 11.1553 l 1
 268.5 24.79 l 1
 268.5 575.69 l 1
 255 589.325 l 1
245 254.999 m 1
 245 344.999 l 1
 135 344.999 l 1
 135 254.999 l 1
 245 254.999 l 1
245 4.99902 m 1
 245 94.999 l 1
 155 94.999 l 1
 155 4.99902 l 1
 245 4.99902 l 1
145 99.999 m 1
 145 126.999 l 1
 132.5 126.999 l 1
 132.5 24.7803 l 1
 145 12.1553 l 1
 145 99.999 l 1
127.5 126.999 m 1
 112.5 126.999 l 1
 112.5 44.9814 l 1
 127.5 29.8301 l 1
 127.5 126.999 l 1
107.5 126.999 m 1
 92.5 126.999 l 1
 92.5 65.1807 l 1
 107.5 50.0303 l 1
 107.5 126.999 l 1
87.5 126.999 m 1
 72.5 126.999 l 1
 72.5 85.3809 l 1
 87.5 70.2314 l 1
 87.5 126.999 l 1
67.5 126.999 m 1
 55 126.999 l 1
 55 103.056 l 1
 67.5 90.4307 l 1
 67.5 126.999 l 1
145 588.843 m 1
 132.5 576.218 l 1
 132.5 473.999 l 1
 145 473.999 l 1
 145 499.999 l 1
 145 588.843 l 1
127.5 571.168 m 1
 112.5 556.018 l 1
 112.5 473.999 l 1
 127.5 473.999 l 1
 127.5 571.168 l 1
107.5 550.968 m 1
 92.5 535.817 l 1
 92.5 473.999 l 1
 107.5 473.999 l 1
 107.5 550.968 l 1
87.5 530.769 m 1
 72.5 515.618 l 1
 72.5 474 l 1
 87.5 474 l 1
 87.5 530.769 l 1
EndSplineSet
EndChar

StartChar: four
Encoding: 52 52 17
Width: 400
VWidth: 960
GlyphClass: 2
Flags: W
HStem: 0 5<266.5 271.5 286.5 291.5 306.5 311.5 326.5 331.5> 73.2227 7.7773<350.002 394.515> 173.224 10<154.002 249.002 350.002 394.515> 584.525 20G<245 294.68>
VStem: 44 10<178 202.538> 65.5 5<158.999 248.876> 85.5 5<138.999 296.595> 105.5 5<118.999 344.315> 125.5 5<98.999 392.034> 144.002 10<83.2236 173.224 183.224 444.141> 245 10<5 73.2236 83.2236 592.125> 266.5 5<0 591> 286.5 5<0 581> 306.5 5<0 572> 326.5 5<0 564> 345 10<5 73.2236 83.2236 173.224 183.224 549.825> 394.515 10<83.2236 173.224>
LayerCount: 2
Fore
SplineSet
331.5 0 m 1
 326.5 0 l 1
 326.5 564 l 1
 331.5 564 l 1
 331.5 0 l 1
311.5 0 m 1
 306.5 0 l 1
 306.5 572 l 1
 311.5 572 l 1
 311.5 0 l 1
291.5 0 m 1
 286.5 0 l 1
 286.5 581 l 1
 291.5 581 l 1
 291.5 0 l 1
271.5 0 m 1
 266.5 0 l 1
 266.5 591 l 1
 271.5 591 l 1
 271.5 0 l 1
255 592.125 m 1
 255 5 l 1
 345 5 l 1
 345 549.825 l 1
 255 592.125 l 1
352.127 557.525 m 1
 355 553 l 1
 355 0 l 1
 350 -5 l 1
 250 -5 l 1
 245 0 l 1
 245 600 l 1
 252.127 604.525 l 1
 352.127 557.525 l 1
245 431.07 m 1
 245 587.609 l 1
 154.174 441.55 l 1
 54 202.538 l 1
 54 178 l 1
 44 178 l 1
 44 203.544 l 1
 44.3887 205.477 l 1
 145.313 446.278 l 1
 146.325 447.816 l 1
 246.4 603.471 l 1
 255 600 l 1
 255 429 l 1
 253.535 425.465 l 1
 153.035 274.965 l 1
 145.965 282.035 l 1
 245 431.07 l 1
130.5 98.999 m 1
 125.5 98.999 l 1
 125.5 392.034 l 1
 130.5 392.034 l 1
 130.5 98.999 l 1
110.5 118.999 m 1
 105.5 118.999 l 1
 105.5 344.315 l 1
 110.5 344.315 l 1
 110.5 118.999 l 1
90.5 138.999 m 1
 85.5 138.999 l 1
 85.5 296.595 l 1
 90.5 296.595 l 1
 90.5 138.999 l 1
70.5 158.999 m 1
 65.5 158.999 l 1
 65.5 248.876 l 1
 70.5 248.876 l 1
 70.5 158.999 l 1
148.776 73.2227 m 1
 249.001 73.2236 l 1
 249.001 83.2236 l 1
 150.848 83.2236 l 1
 52.3125 181.759 l 1
 45.2412 174.688 l 1
 145.241 74.6875 l 1
 148.776 73.2227 l 1
399.515 183.224 m 1
 404.515 178.224 l 1
 404.515 78.2236 l 1
 399.515 73.2236 l 1
 350.002 73.2236 l 1
 350.002 83.2236 l 1
 394.515 83.2236 l 1
 394.515 173.224 l 1
 350.002 173.224 l 1
 350.002 183.224 l 1
 399.515 183.224 l 1
144.002 444.141 m 1
 154.002 444.141 l 1
 154.002 183.224 l 1
 249.002 183.224 l 1
 249.002 173.224 l 1
 154.002 173.224 l 1
 154.002 81 l 1
 144.002 81 l 1
 144.002 444.141 l 1
EndSplineSet
EndChar

StartChar: five
Encoding: 53 53 18
Width: 400
VWidth: 960
GlyphClass: 2
Flags: W
HStem: -6 10<161.001 250.001> 95 10<161.001 250.001> 126 10<61 73.5 78.501 93.501 98.501 113.501 118.501 133.501 138.501 151.001> 292.874 10.129<161.593 250.591> 394.87 9.99899<161.593 250.593> 495 10<161.465 350.464> 596 10<161.465 350.465>
VStem: 51.4639 10<102.057 126 400.927 497.943> 73.5 5.001<89.4316 126 387.292 511.579> 93.501 5<69.2324 126 367.092 531.778> 113.501 5<49.0322 126 346.892 551.978> 133.501 5<28.832 126 326.689 572.177> 151.593 10<11.1572 95 105 126 310.026 394.87 404.869 495 505 588.844> 250.591 10.002<11.1582 95 105 292.874 303.003 387.713> 273.093 5<29.8232 370.038> 293.093 5<50.0234 349.838> 313.5 4.59299<70.2217 329.637> 333.093 5<90.4229 309.438> 350 11<102.058 296.812 505 593.843>
LayerCount: 2
Fore
SplineSet
350.593 296.812 m 1
 338.093 309.438 l 1
 338.093 90.4229 l 1
 350 102.058 l 1
 350.593 296.812 l 1
161.593 303.003 m 1
 250.593 303.003 l 1
 250.593 394.87 l 1
 161.593 394.87 l 1
 161.593 303.003 l 1
273.093 24.7734 m 1
 273.093 375.088 l 1
 260.593 387.713 l 1
 260.593 11.1582 l 1
 273.093 24.7734 l 1
151.464 588.844 m 1
 139.964 577.229 l 1
 139.964 321.643 l 1
 151.593 310.026 l 1
 151.464 588.844 l 1
293.093 44.9727 m 1
 293.093 354.888 l 1
 278.093 370.038 l 1
 278.093 29.8232 l 1
 293.093 44.9727 l 1
313.5 65.1729 m 1
 313.5 113.446 313.093 294 313.093 334.688 c 1
 298.093 349.838 l 1
 298.093 50.0234 l 1
 313.5 65.1729 l 1
333.093 85.3721 m 1
 333.093 314.486 l 1
 318.093 329.637 l 1
 318.093 70.2217 l 1
 333.093 85.3721 l 1
134.964 572.177 m 1
 119.964 557.027 l 1
 119.964 341.84 l 1
 135.093 326.689 l 1
 134.964 572.177 l 1
114.964 551.978 m 1
 99.9639 536.828 l 1
 99.9639 362.041 l 1
 115.093 346.892 l 1
 114.964 551.978 l 1
94.9639 531.778 m 1
 79.9639 516.629 l 1
 79.9639 382.242 l 1
 95.0928 367.092 l 1
 94.9639 531.778 l 1
74.9639 511.579 m 1
 61.4639 497.943 l 1
 61.4639 400.927 l 1
 75.0928 387.292 l 1
 74.9639 511.579 l 1
61 102.057 m 1
 73.5 89.4316 l 1
 73.5 126 l 1
 61 126 l 1
 61 102.057 l 1
350.464 495 m 1
 161.465 495 l 1
 161.465 404.869 l 1
 255.594 404.869 l 1
 257.68 402.783 l 1
 259.146 403.387 l 1
 359 302 l 1
 361 299 l 1
 361 100 l 1
 359 96 l 1
 258.536 -4.51758 l 1
 257.081 -3.91895 l 1
 255 -6 l 1
 156 -6 l 1
 153.914 -3.91406 l 1
 152.447 -4.51758 l 1
 52.4473 96.4824 l 1
 51 100 l 1
 51 131 l 1
 56 136 l 1
 156 136 l 1
 161 131 l 1
 161 105 l 1
 250.591 105 l 1
 250.591 292.874 l 1
 156.593 292.874 l 1
 154.512 294.95 l 1
 153.057 294.353 l 1
 53.0566 395.353 l 1
 51.4639 398.869 l 1
 51.4639 500 l 1
 52.9277 503.518 l 1
 152.928 604.518 l 1
 154.383 603.919 l 1
 156.464 606 l 1
 355.464 606 l 1
 360.464 593.843 l 1
 360.464 500 l 1
 350.464 495 l 1
161.001 95 m 1
 161.001 4 l 1
 250.001 4 l 1
 250.001 95 l 1
 161.001 95 l 1
151.001 11.1572 m 1
 151.001 100 l 1
 151.001 126 l 1
 138.501 126 l 1
 138.501 23.7822 l 1
 151.001 11.1572 l 1
133.501 28.832 m 1
 133.501 126 l 1
 118.501 126 l 1
 118.501 43.9824 l 1
 133.501 28.832 l 1
113.501 49.0322 m 1
 113.501 126 l 1
 98.501 126 l 1
 98.501 64.1816 l 1
 113.501 49.0322 l 1
93.501 69.2324 m 1
 93.501 126 l 1
 78.501 126 l 1
 78.501 84.3818 l 1
 93.501 69.2324 l 1
350.465 505 m 1
 350.465 596 l 1
 161.465 596 l 1
 161.465 505 l 1
 350.465 505 l 1
EndSplineSet
EndChar

StartChar: six
Encoding: 54 54 19
Width: 400
VWidth: 960
GlyphClass: 2
Flags: W
HStem: 505 21G<155 244>
VStem: 266.5 5<29.5723 341.169 474 571.167> 286.5 5<49.5723 320.969 473.999 550.967> 306.5 5<69.5732 300.77 474 530.768> 326.5 5<89.5713 280.568 474 510.568>
LayerCount: 2
Fore
SplineSet
344 497.943 m 1
 344 474 l 1
 331.5 474 l 1
 331.5 510.568 l 1
 344 497.943 l 1
45 100 m 1
 46.4639 96.4648 l 1
 146.464 -3.53516 l 1
 147.929 -2.92871 l 1
 150 -5 l 1
 249 -5 l 1
 251.075 -2.9248 l 1
 252.553 -3.53516 l 1
 352.553 96.4648 l 1
 354 100 l 1
 354 270 l 1
 352.553 273.518 l 1
 252.553 374.518 l 1
 249 373.057 l 1
 245.447 374.518 l 1
 155 283.167 l 1
 155 495 l 1
 244 495 l 1
 244 469 l 1
 249 464 l 1
 349 464 l 1
 354 469 l 1
 354 500 l 1
 352.553 503.518 l 1
 252.553 604.518 l 1
 251.086 603.914 l 1
 249 606 l 1
 150 606 l 1
 147.919 603.919 l 1
 146.464 604.518 l 1
 46.4639 503.518 l 1
 45 500 l 1
 45 100 l 1
344 267.943 m 1
 344 102.071 l 1
 331.5 89.5713 l 1
 331.5 280.568 l 1
 344 267.943 l 1
244 505 m 1
 155 505 l 1
 155 596 l 1
 244 596 l 1
 244 505 l 1
254 588.843 m 1
 266.5 576.218 l 1
 266.5 474 l 1
 254 474 l 1
 254 500 l 1
 254 588.843 l 1
145 500 m 1
 145 100.999 l 1
 145 12.0703 l 1
 133.5 23.5703 l 1
 133.5 577.228 l 1
 145 588.843 l 1
 145 500 l 1
155 95.999 m 1
 244 95.999 l 1
 244 4.99902 l 1
 155 4.99902 l 1
 155 95.999 l 1
155 105.999 m 1
 155 264.999 l 1
 244 264.999 l 1
 244 105.999 l 1
 155 105.999 l 1
254 100.999 m 1
 254 269.999 l 1
 254 358.842 l 1
 266.5 346.217 l 1
 266.5 24.5703 l 1
 254 12.0703 l 1
 254 100.999 l 1
244 274.999 m 1
 160.987 274.999 l 1
 244 358.842 l 1
 244 274.999 l 1
271.5 571.167 m 1
 286.5 556.017 l 1
 286.5 473.999 l 1
 271.5 473.999 l 1
 271.5 571.167 l 1
291.5 550.967 m 1
 306.5 535.817 l 1
 306.5 473.999 l 1
 291.5 473.999 l 1
 291.5 550.967 l 1
311.5 530.768 m 1
 326.5 515.618 l 1
 326.5 474 l 1
 311.5 474 l 1
 311.5 530.768 l 1
271.5 341.169 m 1
 286.5 326.019 l 1
 286.5 44.5723 l 1
 271.5 29.5723 l 1
 271.5 341.169 l 1
291.5 320.969 m 1
 306.5 305.819 l 1
 306.5 64.5723 l 1
 291.5 49.5723 l 1
 291.5 320.969 l 1
311.5 300.77 m 1
 326.5 285.62 l 1
 326.5 84.5732 l 1
 311.5 69.5732 l 1
 311.5 300.77 l 1
128.5 28.5742 m 1
 113.5 43.5732 l 1
 113.5 557.03 l 1
 128.5 572.181 l 1
 128.5 28.5742 l 1
108.5 48.5732 m 1
 93.5 63.5732 l 1
 93.5 536.83 l 1
 108.5 551.98 l 1
 108.5 48.5732 l 1
88.5 68.5732 m 1
 73.5 83.5732 l 1
 73.5 516.63 l 1
 88.5 531.78 l 1
 88.5 68.5732 l 1
68.5 88.5732 m 1
 55 102.073 l 1
 55 497.945 l 1
 68.5 511.58 l 1
 68.5 88.5732 l 1
EndSplineSet
EndChar

StartChar: colon
Encoding: 58 58 20
Width: 206
VWidth: 960
GlyphClass: 2
Flags: W
HStem: -8.55273 10<38.1436 155.916> 14.9473 5<38.1328 155.716> 34.9473 5<38.1162 155.5> 54.9473 5<38.0996 155.284> 74.9473 5<38.084 155.068> 91.4473 9.99969<38.0703 154.943> 394.447 10<38.1436 155.916> 417.947 5<38.1328 155.716> 437.947 5<38.1162 155.5> 457.947 5<38.0996 155.284> 477.947 5<38.084 155.068> 494.447 10<38.0703 154.943>
VStem: 23.9287 14.167<1.44727 14.9473 19.9473 34.9473 39.9473 54.9473 59.9473 74.9473 79.9473 91.4473 404.447 417.947 422.947 437.947 442.947 457.947 462.947 477.947 482.947 494.447> 155.284 13.779<1.44727 14.9473 19.9473 34.9473 39.9473 54.9473 59.9473 74.9473 79.9473 91.4473 404.447 417.947 422.947 437.947 442.947 457.947 462.947 477.947 482.947 494.447>
LayerCount: 2
Fore
SplineSet
154.943 494.447 m 1
 38.0703 494.447 l 1
 38.0703 490.614 38.0801 486.78 38.0801 482.947 c 1
 155.068 482.947 l 1
 154.943 494.447 l 1
170.145 403 m 1
 158.08 394.447 l 1
 26.0801 394.447 l 1
 24.0088 395.912 l 1
 23.9287 495.912 l 1
 35.9922 504.447 l 1
 166.992 504.447 l 1
 169.063 503 l 1
 170.145 403 l 1
155.771 417.947 m 1
 38.1328 417.947 l 1
 38.1436 404.447 l 1
 155.916 404.447 l 1
 155.771 417.947 l 1
155.716 422.947 m 1
 155.554 437.947 l 1
 38.1162 437.947 l 1
 38.1289 422.947 l 1
 155.716 422.947 l 1
155.5 442.947 m 1
 155.338 457.947 l 1
 38.0996 457.947 l 1
 38.1123 442.947 l 1
 155.5 442.947 l 1
155.284 462.947 m 1
 155.122 477.947 l 1
 38.084 477.947 l 1
 38.0957 462.947 l 1
 155.284 462.947 l 1
154.943 91.4473 m 1
 38.0703 91.4473 l 1
 38.0703 87.6143 38.0801 83.7803 38.0801 79.9473 c 1
 155.068 79.9473 l 1
 154.943 91.4473 l 1
170.145 -0 m 1
 158.08 -8.55273 l 1
 26.0801 -8.55273 l 1
 24.0088 -7.08789 l 1
 23.9287 92.9121 l 1
 35.9922 101.447 l 1
 166.992 101.447 l 1
 169.063 100 l 1
 170.145 -0 l 1
155.771 14.9473 m 1
 38.1328 14.9473 l 1
 38.1436 1.44727 l 1
 155.916 1.44727 l 1
 155.771 14.9473 l 1
155.716 19.9473 m 1
 155.554 34.9473 l 1
 38.1162 34.9473 l 1
 38.1289 19.9473 l 1
 155.716 19.9473 l 1
155.5 39.9473 m 1
 155.338 54.9473 l 1
 38.0996 54.9473 l 1
 38.1123 39.9473 l 1
 155.5 39.9473 l 1
155.284 59.9473 m 1
 155.122 74.9473 l 1
 38.084 74.9473 l 1
 38.0957 59.9473 l 1
 155.284 59.9473 l 1
EndSplineSet
EndChar

StartChar: semicolon
Encoding: 59 59 21
Width: 206
VWidth: 960
GlyphClass: 2
Flags: W
HStem: 87 12<55 66.5 71.5 86.5 91.5 106.5 111.5 126.5 131.5 145> 394.447 10<38.1436 155.916> 417.947 5<38.1328 155.716> 437.947 5<38.1162 155.5> 457.947 5<38.0996 155.284> 477.947 5<38.084 155.068> 494.447 10<38.0703 154.943>
VStem: 24.0088 14.1201<404.447 417.947 422.947 437.947 442.947 457.947 462.947 477.947 482.947 494.447> 45 10<-117.93 87> 66.5 5<-101.43 87> 86.5 5<-81.4287 87> 106.5 5<-61.4287 87> 126.5 5<-41.4287 87> 145 10<-27.9287 87> 155.716 14.429<404.447 417.947 422.947 437.947 442.947 457.947 462.947 477.947 482.947 494.447>
LayerCount: 2
Fore
SplineSet
55 87 m 1
 55 -117.93 l 1
 66.5 -106.43 l 1
 66.5 87 l 1
 55 87 l 1
146.447 99 m 1
 155 92 l 1
 155 -30 l 1
 153.535 -33.5352 l 1
 53.5352 -133.535 l 1
 45 -130 l 1
 45 87 l 1
 46.4473 99 l 1
 146.447 99 l 1
131.5 87 m 1
 131.5 -41.4287 l 1
 145 -27.9287 l 1
 145 87 l 1
 131.5 87 l 1
126.5 87 m 1
 111.5 87 l 1
 111.5 -61.4287 l 1
 126.5 -46.4287 l 1
 126.5 87 l 1
106.5 87 m 1
 91.5 87 l 1
 91.5 -81.4287 l 1
 106.5 -66.4287 l 1
 106.5 87 l 1
86.5 87 m 1
 71.5 87 l 1
 71.5 -101.43 l 1
 86.5 -86.4287 l 1
 86.5 87 l 1
154.943 494.447 m 1
 38.0703 494.447 l 1
 38.0703 490.614 38.0801 486.78 38.0801 482.947 c 1
 155.068 482.947 l 1
 154.943 494.447 l 1
170.145 403 m 1
 158.08 394.447 l 1
 26.0801 394.447 l 1
 24.0088 395.912 l 1
 23.9287 495.912 l 1
 35.9922 504.447 l 1
 166.992 504.447 l 1
 169.063 503 l 1
 170.145 403 l 1
155.771 417.947 m 1
 38.1328 417.947 l 1
 38.1436 404.447 l 1
 155.916 404.447 l 1
 155.771 417.947 l 1
155.716 422.947 m 1
 155.554 437.947 l 1
 38.1162 437.947 l 1
 38.1289 422.947 l 1
 155.716 422.947 l 1
155.5 442.947 m 1
 155.338 457.947 l 1
 38.0996 457.947 l 1
 38.1123 442.947 l 1
 155.5 442.947 l 1
155.284 462.947 m 1
 155.122 477.947 l 1
 38.084 477.947 l 1
 38.0957 462.947 l 1
 155.284 462.947 l 1
EndSplineSet
EndChar

StartChar: equal
Encoding: 61 61 22
Width: 200
VWidth: 960
GlyphClass: 2
Flags: W
HStem: 174 10<10 190> 225 10<10 190> 314 10<10 190> 365 10<10 190>
VStem: 0 10<184 225 324 365> 190 10<184 225 324 365>
LayerCount: 2
Fore
SplineSet
195 235 m 1
 200 230 l 1
 200 179 l 1
 195 174 l 1
 5 174 l 1
 0 179 l 1
 0 230 l 1
 5 235 l 1
 195 235 l 1
10 225 m 1
 10 184 l 1
 190 184 l 1
 190 225 l 1
 10 225 l 1
195 375 m 1
 200 370 l 1
 200 319 l 1
 195 314 l 1
 5 314 l 1
 0 319 l 1
 0 370 l 1
 5 375 l 1
 51.6224 375 90.7483 373.667 131.504 373.667 c 0
 151.882 373.667 172.667 374 195 375 c 1
10 365 m 1
 10 324 l 1
 190 324 l 1
 190 365 l 1
 10 365 l 1
EndSplineSet
EndChar

StartChar: question
Encoding: 63 63 23
Width: 400
VWidth: 960
GlyphClass: 2
Flags: W
HStem: 1.44727 10<138.1 255.916> 24.9473 5<138.101 255.717> 44.9473 5<138.101 255.501> 64.9473 5<138.101 255.284> 84.9473 5<138.101 255.067> 101.447 10<138.1 254.942> 195.482 11.518<151.464 164.964 169.964 184.964 189.964 204.964 209.964 224.964 229.964 241.464> 464 10.001<61 73.5 78.5 93.5 98.5 113.5 118.5 133.5 138.5 151> 495 10<161 250> 596 10<161 250>
VStem: 51 10<474 497.943> 73.5 5<474.001 510.568> 93.5 5<474.001 530.769> 113.5 5<474 550.968> 124.008 14.092<11.4473 24.9473 29.9473 44.9473 49.9473 64.9473 69.9473 84.9473 89.9473 101.447> 133.5 5<474 571.168> 141.464 10<207 299.074> 151 10<474 495 505 588.843> 164.964 5<207 312.709> 184.964 5<207 332.909> 204.964 5<207 353.108> 224.964 5<207 373.309> 241.593 9<207 295.131 305.131 389.975> 250.591 10.002<312.288 396.998 407.126 495 505 588.843> 255.916 14.228<11.4473 24.9473 29.9473 44.9473 49.9473 64.9473 69.9473 84.9473 89.9473 101.447> 273.093 5<329.964 570.179> 293.093 5<350.163 549.979> 313.093 5<370.362 529.777> 333.093 5<390.562 509.578> 350.593 10.407<403.188 497.943>
LayerCount: 2
Fore
SplineSet
255.284 69.9473 m 1xfffc3c7c
 255.123 84.9473 l 1
 138.101 84.9473 l 1
 138.101 69.9473 l 1
 255.284 69.9473 l 1xfffc3c7c
255.501 49.9473 m 1
 255.339 64.9473 l 1
 138.101 64.9473 l 1
 138.101 49.9473 l 1
 255.501 49.9473 l 1
255.717 29.9473 m 1
 255.555 44.9473 l 1
 138.101 44.9473 l 1
 138.101 29.9473 l 1
 255.717 29.9473 l 1
255.771 24.9473 m 1
 138.1 24.9473 l 1
 138.1 11.4473 l 1
 255.916 11.4473 l 1xfffe3cfc
 255.771 24.9473 l 1
270.144 10 m 1
 258.079 1.44727 l 1
 126.079 1.44727 l 1
 124.008 2.91211 l 1
 123.928 102.912 l 1
 135.991 111.447 l 1
 266.991 111.447 l 1
 269.062 110 l 1
 270.144 10 l 1
254.942 101.447 m 1
 138.1 101.447 l 1
 138.1 89.9473 l 1
 255.067 89.9473 l 1
 254.942 101.447 l 1
350.593 403.188 m 1
 350 497.943 l 1
 338.093 509.578 l 1
 338.093 390.562 l 1
 350.593 403.188 l 1
251.593 396.998 m 1
 250.593 396.998 l 1
 250.593 305.131 l 1xfffc3e7c
 251.593 305.131 l 1
 251.593 396.998 l 1
273.093 575.229 m 1
 260.593 588.843 l 1
 260.593 312.288 l 1xfffc3d7c
 273.093 324.913 l 1
 273.093 575.229 l 1
241.464 207 m 1
 241.593 389.975 l 1xfffc3e7c
 229.964 378.358 l 1
 229.964 207 l 1
 241.464 207 l 1
293.093 555.029 m 1
 278.093 570.179 l 1
 278.093 329.964 l 1
 293.093 345.114 l 1
 293.093 555.029 l 1
313.5 534.828 m 1
 298.093 549.979 l 1
 298.093 350.163 l 1
 313.093 365.312 l 1
 313.093 406 313.5 486.555 313.5 534.828 c 1
333.093 514.628 m 1
 318.093 529.777 l 1
 318.093 370.362 l 1
 333.093 385.513 l 1
 333.093 514.628 l 1
224.964 206.999 m 1
 225.093 373.309 l 1
 209.964 358.158 l 1
 209.964 206.999 l 1
 224.964 206.999 l 1
204.964 207 m 1
 205.093 353.108 l 1
 189.964 337.959 l 1
 189.964 207 l 1
 204.964 207 l 1
184.964 207 m 1
 185.093 332.909 l 1
 169.964 317.759 l 1
 169.964 207 l 1
 184.964 207 l 1
164.964 207 m 1
 165.093 312.709 l 1
 151.464 299.074 l 1
 151.464 207 l 1xfffcbc7c
 164.964 207 l 1
61 497.943 m 1
 61 474 l 1
 73.5 474 l 1
 73.5 510.568 l 1
 61 497.943 l 1
251.464 204 m 1
 251.464 204 248.75 196.75 246.464 194 c 1
 244.383 196.081 l 1
 242.928 195.482 l 1
 142.928 195.482 l 1
 141.464 200 l 1
 141.464 301.131 l 1xfffcbc7c
 143.057 304.647 l 1
 243.057 405.647 l 1
 244.512 405.05 l 1
 246.593 407.126 l 1
 250.591 407.126 l 1
 250.591 495 l 1
 161 495 l 1
 161 469 l 1xfffc7d7c
 156 464 l 1
 56 464 l 1
 51 469 l 1
 51 500 l 1
 52.4473 503.518 l 1
 152.447 604.518 l 1
 153.914 603.914 l 1
 156 606 l 1
 255 606 l 1
 257.081 603.919 l 1
 258.536 604.518 l 1
 359 504 l 1
 361 500 l 1
 361 401 l 1
 359 398 l 1
 259.146 296.613 l 1
 257.679 297.217 l 1
 255.593 295.131 l 1
 251.464 295.131 l 1
 251.464 204 l 1
161 505 m 1xfffc7c7c
 250 505 l 1
 250 596 l 1
 161 596 l 1
 161 505 l 1xfffc7c7c
151 588.843 m 1
 138.5 576.218 l 1
 138.5 474 l 1xfffd7c7c
 151 474 l 1
 151 500 l 1
 151 588.843 l 1
133.5 571.168 m 1
 118.5 556.018 l 1
 118.5 474 l 1
 133.5 474 l 1
 133.5 571.168 l 1
113.5 550.968 m 1
 98.5 535.818 l 1
 98.5 474 l 1
 113.5 474 l 1
 113.5 550.968 l 1
93.5 530.769 m 1
 78.5 515.619 l 1
 78.5 474.001 l 1
 93.5 474.001 l 1
 93.5 530.769 l 1
EndSplineSet
EndChar

StartChar: A
Encoding: 65 65 24
Width: 450
VWidth: 960
GlyphClass: 2
Flags: W
HStem: -5.00098 10<8.08398 108.721 305 316.5 321.5 336.5 341.5 356.5 361.5 376.5 381.5 395> 94.999 9.999<170.09 295> 144.998 10<194.459 295> 585.851 20G<297.319 381.213>
VStem: 295 10<4.99902 94.999 104.998 144.998 154.998 356.735 379.175 579.787> 316.5 5<4.99902 590.47> 336.5 5<4.99902 585.47> 356.5 5<4.99902 580.47> 376.5 5<4.99902 575.47> 395 10<4.99902 572.095>
LayerCount: 2
Fore
SplineSet
401.213 580.851 m 1
 405 575.999 l 1
 405 -0.000976562 l 1
 400 -5.00098 l 1
 300 -5.00098 l 1
 295 -0.000976562 l 1
 295 94.999 l 1
 164.697 94.999 l 1
 116.293 -2.22949 l 1
 111.817 -5.00098 l 1
 -0 -5.00098 l 1
 -4.47363 2.23242 l 1
 295.526 603.232 l 1
 297.319 602.811 l 1
 301.213 605.851 l 1
 401.213 580.851 l 1
8.08398 4.99902 m 1
 108.721 4.99902 l 1
 295 379.175 l 1
 295 579.787 l 1
 8.08398 4.99902 l 1
381.5 575.47 m 1
 381.5 4.99902 l 1
 395 4.99902 l 1
 395 572.095 l 1
 381.5 575.47 l 1
376.5 576.72 m 1
 361.5 580.47 l 1
 361.5 4.99902 l 1
 376.5 4.99902 l 1
 376.5 576.72 l 1
356.5 581.72 m 1
 341.5 585.47 l 1
 341.5 4.99902 l 1
 356.5 4.99902 l 1
 356.5 581.72 l 1
336.5 586.72 m 1
 321.5 590.47 l 1
 321.5 4.99902 l 1
 336.5 4.99902 l 1
 336.5 586.72 l 1
316.5 591.72 m 1
 305 594.595 l 1
 305 377.999 l 1
 305 199.999 l 1
 305 99.999 l 1
 305 4.99902 l 1
 316.5 4.99902 l 1
 316.5 591.72 l 1
295 356.735 m 1
 194.459 154.998 l 1
 295 154.998 l 1
 295 356.735 l 1
295 144.998 m 1
 190.09 144.998 l 1
 170.09 104.998 l 1
 295 104.998 l 1
 295 144.998 l 1
EndSplineSet
EndChar

StartChar: B
Encoding: 66 66 25
Width: 450
VWidth: 960
GlyphClass: 2
Flags: W
HStem: -5 10.001<164.986 295> 95.1436 13.5234<255 295> 245.001 9.99899<155 295> 345 10<155 295> 495 10<155 295> 595 10<155 295>
VStem: 45 10<103.057 498.929> 68.5 5<89.4209 512.429> 88.5 5<69.2207 532.429> 108.5 5<49.0215 552.429> 128.5 5<28.8223 572.43> 145 10<12.1572 245.001 255 345 355 495 505 588.93> 295 10<12.1562 95.001 109.001 245.001 261.156 345 355 495 505 587.844> 317.5 5<29.832 259.569 278.837 570.17> 337.5 5<50.0322 279.765 299.053 549.969> 357.5 5<70.2334 280.106 319.232 529.769> 377.5 5<90.4326 259.7 339.433 509.568> 395 10<103.059 246.946 352.058 496.943>
LayerCount: 2
Fore
SplineSet
68.5 512.429 m 1
 55 498.929 l 1
 55 103.057 l 1
 68.5 89.4209 l 1
 68.5 512.429 l 1
88.5 532.429 m 1
 73.5 517.429 l 1
 73.5 84.3711 l 1
 88.5 69.2207 l 1
 88.5 532.429 l 1
108.5 552.429 m 1
 93.5 537.43 l 1
 93.5 64.1719 l 1
 108.5 49.0215 l 1
 108.5 552.429 l 1
128.5 572.43 m 1
 113.5 557.43 l 1
 113.5 43.9727 l 1
 128.5 28.8223 l 1
 128.5 572.43 l 1
145 588.93 m 1
 133.5 577.43 l 1
 133.5 23.7725 l 1
 145 12.1572 l 1
 145 100.001 l 1
 145 250.001 l 1
 145 350.001 l 1
 145 500.001 l 1
 145 588.93 l 1
382.5 90.4326 m 1
 395 103.059 l 1
 395 246.946 l 1
 382.5 259.7 l 1
 382.5 90.4326 l 1
362.5 70.2334 m 1
 377.5 85.3828 l 1
 377.5 264.802 l 1
 362.5 280.106 l 1
 362.5 70.2334 l 1
322.5 570.17 m 1
 322.5 278.837 l 1
 337.5 294 l 1
 337.5 555.019 l 1
 322.5 570.17 l 1
342.5 284.819 m 1
 342.5 50.0322 l 1
 357.5 65.1826 l 1
 357.5 285.207 l 1
 350.229 292.626 l 1
 345.283 287.648 l 1
 342.5 284.819 l 1
337.5 279.765 m 1
 322.5 264.618 l 1
 322.5 29.832 l 1
 337.5 44.9824 l 1
 337.5 279.765 l 1
305 12.1562 m 1
 317.5 24.7822 l 1
 317.5 259.569 l 1
 305 246.945 l 1
 305 100 l 1
 305 12.1562 l 1
295 109.001 m 1
 295 245.001 l 1
 155 245.001 l 1
 155 9.00098 l 1
 254 108.667 l 1
 295 109.001 l 1
295 95.001 m 1
 255 95.1436 l 1
 164.986 5.00098 l 1
 295 5.00098 l 1
 295 95.001 l 1
382.5 339.433 m 1
 395 352.058 l 1
 395 496.943 l 1
 382.5 509.568 l 1
 382.5 339.433 l 1
362.5 319.232 m 1
 377.5 334.382 l 1
 377.5 514.618 l 1
 362.5 529.769 l 1
 362.5 319.232 l 1
357.5 314.182 m 1
 357.5 534.817 l 1
 342.5 549.969 l 1
 342.5 299.053 l 1
 346.672 303.27 l 1
 357.5 314.182 l 1
305 350 m 1
 305 261.156 l 1
 317.5 273.782 l 1
 317.5 575.219 l 1
 305 587.844 l 1
 305 500 l 1
 305 350 l 1
295 355 m 1
 295 495 l 1
 155 495 l 1
 155 355 l 1
 295 355 l 1
295 345 m 1
 155 345 l 1
 155 255 l 1
 295 255 l 1
 295 345 l 1
295 595 m 1
 155 595 l 1
 155 505 l 1
 295 505 l 1
 295 595 l 1
405 350 m 1
 403.553 346.482 l 1
 357.265 299.731 l 1
 403.553 252.5 l 1
 405 249 l 1
 405 101 l 1
 403.553 97.4824 l 1
 303.553 -3.51758 l 1
 302.086 -2.91406 l 1
 300 -5 l 1
 155 -5 l 1
 150 -5 l 1
 147.914 -2.91406 l 1
 146.447 -3.51758 l 1
 46.4473 97.4824 l 1
 45 101 l 1
 45 501 l 1
 46.4473 504.536 l 1
 146.447 604.536 l 1
 148.632 603.632 l 1
 150 605 l 1
 300 605 l 1
 302.086 602.914 l 1
 303.553 603.518 l 1
 403.553 502.518 l 1
 405 499 l 1
 405 350 l 1
EndSplineSet
EndChar

StartChar: C
Encoding: 67 67 26
Width: 450
VWidth: 960
GlyphClass: 2
Flags: W
HStem: -5 10<155 294> 96 10<155 294> 127.001 9.999<304 316.5 321.5 336.5 341.5 356.5 361.5 376.5 381.5 394> 460 10.001<304 316.5 321.5 336.5 341.5 356.5 361.5 376.5 381.5 394> 495 10.001<155 294> 596.001 9.99902<155 294>
VStem: 45 10<103.057 498.93> 68.5 5<89.4219 512.43> 88.5 5<69.2217 532.43> 108.5 5<49.0225 552.431> 128.5 5<28.8223 572.43> 145 10<12.1562 96 106 495 505.001 588.93> 294 10<12.1562 96 106 127 470.001 495 505.001 588.93> 316.5 5<29.832 127 470.001 571.43> 336.5 5<50.0322 127.001 470.001 551.43> 356.5 5<70.2314 127.001 470.001 531.43> 376.5 5<90.4307 127 470.001 511.429> 394 10<103.056 127 470 498.929>
LayerCount: 2
Fore
SplineSet
394 103.056 m 1
 394 127 l 1
 381.5 127 l 1
 381.5 90.4307 l 1
 394 103.056 l 1
45 501 m 1
 46.4473 504.536 l 1
 146.447 604.536 l 1
 147.925 603.925 l 1
 150 606 l 1
 299 606 l 1
 301.071 603.929 l 1
 302.536 604.536 l 1
 402.536 504.536 l 1
 404 501 l 1
 404 465 l 1
 399 460 l 1
 299 460 l 1
 294 465 l 1
 294 495 l 1
 155 495 l 1
 155 106 l 1
 294 106 l 1
 294 132 l 1
 299 137 l 1
 399 137 l 1
 404 132 l 1
 404 101 l 1
 402.536 97.4824 l 1
 302.536 -3.51758 l 1
 301.082 -2.91797 l 1
 299 -5 l 1
 150 -5 l 1
 147.914 -2.91406 l 1
 146.447 -3.51758 l 1
 46.4473 97.4824 l 1
 45 101 l 1
 45 501 l 1
394 470 m 1
 394 498.929 l 1
 381.5 511.429 l 1
 381.5 470 l 1
 394 470 l 1
294 96 m 1
 155 96 l 1
 155 5 l 1
 294 5 l 1
 294 96 l 1
304 12.1562 m 1
 316.5 24.7812 l 1
 316.5 127 l 1
 304 127 l 1
 304 101 l 1
 304 12.1562 l 1
145 101 m 1
 145 500.001 l 1
 145 588.93 l 1
 133.5 577.43 l 1
 133.5 23.7715 l 1
 145 12.1562 l 1
 145 101 l 1
155 505.001 m 1
 294 505.001 l 1
 294 596.001 l 1
 155 596.001 l 1
 155 505.001 l 1
304 500.001 m 1
 304 470.001 l 1
 316.5 470.001 l 1
 316.5 576.43 l 1
 304 588.93 l 1
 304 500.001 l 1
321.5 29.832 m 1
 336.5 44.9824 l 1
 336.5 127.001 l 1
 321.5 127.001 l 1
 321.5 29.832 l 1
341.5 50.0322 m 1
 356.5 65.1816 l 1
 356.5 127.001 l 1
 341.5 127.001 l 1
 341.5 50.0322 l 1
361.5 70.2314 m 1
 376.5 85.3818 l 1
 376.5 127.001 l 1
 361.5 127.001 l 1
 361.5 70.2314 l 1
321.5 470.001 m 1
 336.5 470.001 l 1
 336.5 556.43 l 1
 321.5 571.43 l 1
 321.5 470.001 l 1
341.5 470.001 m 1
 356.5 470.001 l 1
 356.5 536.43 l 1
 341.5 551.43 l 1
 341.5 470.001 l 1
361.5 470.001 m 1
 376.5 470.001 l 1
 376.5 516.43 l 1
 361.5 531.43 l 1
 361.5 470.001 l 1
128.5 572.43 m 1
 113.5 557.431 l 1
 113.5 43.9727 l 1
 128.5 28.8223 l 1
 128.5 572.43 l 1
108.5 552.431 m 1
 93.5 537.43 l 1
 93.5 64.1719 l 1
 108.5 49.0225 l 1
 108.5 552.431 l 1
88.5 532.43 m 1
 73.5 517.43 l 1
 73.5 84.3711 l 1
 88.5 69.2217 l 1
 88.5 532.43 l 1
68.5 512.43 m 1
 55 498.93 l 1
 55 103.057 l 1
 68.5 89.4219 l 1
 68.5 512.43 l 1
EndSplineSet
EndChar

StartChar: D
Encoding: 68 68 27
Width: 450
VWidth: 960
GlyphClass: 2
Flags: W
HStem: -23.5283 20G<295.431 302.535> 485.948 20G<385.501 394.001>
VStem: 320.501 5<32.3896 565.948> 340.501 5<52.5908 545.948> 360.501 5<72.79 525.948> 380.501 5<92.9902 505.948>
LayerCount: 2
Fore
SplineSet
404 499.518 m 1
 402.536 503.054 l 1
 302.536 603.054 l 1
 301.072 602.446 l 1
 299.001 604.518 l 1
 150.001 604.518 l 1
 50.001 504.518 l 1
 45.001 499.518 l 1
 45.001 -0.482422 l 1
 48.001 -5 l 1
 146.431 -5 l 1
 155.001 -1.48242 l 1
 155.001 87.2744 l 1
 246.675 -4.99707 l 1
 295.431 -4.98242 l 1
 298.989 -3.52832 l 1
 302.535 -4.98242 l 1
 402.535 96.0176 l 1
 404 99.5176 l 1
 404 499.518 l 1
55.001 4 m 1
 55.001 494.518 l 1
 67.501 509.518 l 1
 67.501 4 l 1
 55.001 4 l 1
294.001 94.5176 m 1
 294.001 7.76172 l 1
 248.001 7.66602 l 1
 161.903 94.5176 l 1
 294.001 94.5176 l 1
294.001 104.518 m 1
 155.001 104.518 l 1
 155.001 493.518 l 1
 294.001 493.518 l 1
 294.001 104.518 l 1
304.001 99.5176 m 1
 304.001 498.519 l 1
 304.001 587.447 l 1
 320.501 570.947 l 1
 320.501 27.3398 l 1
 304.001 10.6748 l 1
 304.001 99.5176 l 1
294.001 503.519 m 1
 155.001 503.519 l 1
 155.001 594.519 l 1
 294.001 594.519 l 1
 294.001 503.519 l 1
132.501 4.00098 m 1
 132.501 574.519 l 1
 145.001 588.519 l 1
 145.001 498.519 l 1
 145.001 4.00098 l 1
 132.501 4.00098 l 1
127.501 4.00098 m 1
 112.501 4.00098 l 1
 112.501 552.519 l 1
 127.501 569.519 l 1
 127.501 4.00098 l 1
107.501 4.00098 m 1
 92.501 4.00098 l 1
 92.501 531.519 l 1
 107.501 548.519 l 1
 107.501 4.00098 l 1
87.501 4.00098 m 1
 72.501 4.00098 l 1
 72.501 512.519 l 1
 87.501 528.519 l 1
 87.501 4.00098 l 1
325.501 565.948 m 1
 340.501 550.948 l 1
 340.501 47.54 l 1
 325.501 32.3896 l 1
 325.501 565.948 l 1
345.501 545.948 m 1
 360.501 530.948 l 1
 360.501 67.7402 l 1
 345.501 52.5908 l 1
 345.501 545.948 l 1
365.501 525.948 m 1
 380.501 510.948 l 1
 380.501 87.9404 l 1
 365.501 72.79 l 1
 365.501 525.948 l 1
385.501 505.948 m 1
 394.001 497.448 l 1
 394.001 101.575 l 1
 385.501 92.9902 l 1
 385.501 505.948 l 1
EndSplineSet
EndChar

StartChar: E
Encoding: 69 69 28
Width: 450
VWidth: 960
GlyphClass: 2
Flags: W
HStem: -5 10.0029<155 295> 95.0029 9.9971<155 295> 126.001 9.999<305 317.5 322.5 337.5 342.5 357.5 362.5 377.5 382.5 395> 245 10.003<155 265> 345.003 9.99701<155 265> 463 10.003<305 317.5 322.5 337.5 342.5 357.5 362.5 377.5 382.5 395> 495 10.003<155 295> 595.003 9.99701<155 295>
VStem: 45 10<101.575 497.943> 66.5 5<89.96 509.56> 86.5 5<69.7598 529.76> 106.5 5<49.5605 549.961> 126.5 5<29.3623 570.16> 145 10<10.6768 95.0029 105 245 255.003 345.003 355 495 505.003 588.847> 265 10<255.003 345.003> 295 10<11.1572 95.0029 105 126.001 473.003 495 505.003 587.847> 317.5 5<28.832 126.001 473.003 570.172> 337.5 5<49.0322 126.001 473.003 549.972> 357.5 5<69.2324 126.001 473.002 529.77> 377.5 5<89.4346 126.001 473.001 509.569> 395 10<102.059 126.003 473.001 496.944>
LayerCount: 2
Fore
SplineSet
146.447 -5 m 1
 46.4473 96 l 1
 45 99.5176 l 1
 45 500 l 1
 46.4473 503.518 l 1
 146.447 604.518 l 1
 148.623 603.623 l 1
 150 605 l 1
 300 605 l 1
 302.086 602.914 l 1
 303.553 603.518 l 1
 403.553 502.518 l 1
 405 499 l 1
 405 468 l 1
 400 463 l 1
 300 463 l 1
 295 468 l 1
 295 495 l 1
 155 495 l 1
 155 355 l 1
 270 355 l 1
 275 350 l 1
 275 250 l 1
 270 245 l 1
 155 245 l 1
 155 105 l 1
 295 105 l 1
 295 131 l 1
 300 136 l 1
 400 136 l 1
 405 131 l 1
 405 100 l 1
 403.553 96.4824 l 1
 303.553 -4.51758 l 1
 301.377 -3.62305 l 1
 300 -5 l 1
 150 -5 l 1
 148.965 -3.96484 l 1
 146.447 -5 l 1
55 101.575 m 1
 66.5 89.96 l 1
 66.5 509.56 l 1
 55 497.943 l 1
 55 101.575 l 1
86.5 529.76 m 1
 71.5 514.609 l 1
 71.5 84.9111 l 1
 86.5 69.7598 l 1
 86.5 529.76 l 1
106.5 549.961 m 1
 91.5 534.811 l 1
 91.5 64.7109 l 1
 106.5 49.5605 l 1
 106.5 549.961 l 1
126.5 570.16 m 1
 111.5 555.011 l 1
 111.5 44.5107 l 1
 126.5 29.3623 l 1
 126.5 570.16 l 1
395 102.059 m 1
 395 126.003 l 1
 382.5 126.003 l 1
 382.5 89.4346 l 1
 395 102.059 l 1
155 95.0029 m 1
 155 5.00293 l 1
 295 5.00293 l 1
 295 95.0029 l 1
 155 95.0029 l 1
145 10.6768 m 1
 145 100.003 l 1
 145 250.003 l 1
 145 350.003 l 1
 145 500.003 l 1
 145 588.847 l 1
 131.5 575.212 l 1
 131.5 24.3115 l 1
 145 10.6768 l 1
155 345.003 m 1
 155 255.003 l 1
 265 255.003 l 1
 265 345.003 l 1
 155 345.003 l 1
155 595.003 m 1
 155 505.003 l 1
 295 505.003 l 1
 295 595.003 l 1
 155 595.003 l 1
305 500.003 m 1
 305 473.003 l 1
 317.5 473.003 l 1
 317.5 575.222 l 1
 305 587.847 l 1
 305 500.003 l 1
322.5 473.003 m 1
 337.5 473.003 l 1
 337.5 555.021 l 1
 322.5 570.172 l 1
 322.5 473.003 l 1
342.5 473.003 m 1
 357.5 473.002 l 1
 357.5 534.82 l 1
 342.5 549.972 l 1
 342.5 473.003 l 1
362.5 473.002 m 1
 377.5 473.001 l 1
 377.5 514.619 l 1
 362.5 529.77 l 1
 362.5 473.002 l 1
382.5 473.001 m 1
 395 473.001 l 1
 395 496.944 l 1
 382.5 509.569 l 1
 382.5 473.001 l 1
305 11.1572 m 1
 317.5 23.7822 l 1
 317.5 126.001 l 1
 305 126.001 l 1
 305 100.001 l 1
 305 11.1572 l 1
322.5 28.832 m 1
 337.5 43.9824 l 1
 337.5 126.001 l 1
 322.5 126.001 l 1
 322.5 28.832 l 1
342.5 49.0322 m 1
 357.5 64.1826 l 1
 357.5 126.001 l 1
 342.5 126.001 l 1
 342.5 49.0322 l 1
362.5 69.2324 m 1
 377.5 84.3828 l 1
 377.5 126.001 l 1
 362.5 126.001 l 1
 362.5 69.2324 l 1
EndSplineSet
EndChar

StartChar: F
Encoding: 70 70 29
Width: 450
VWidth: 960
GlyphClass: 2
Flags: W
HStem: -5 11.001<55 66.5 71.5 86.5 91.5 106.5 111.5 126.5 131.5 145> 245 10.002<155 265> 345.002 9.99799<155 265> 463 10.002<305 317.5 322.5 337.5 342.5 357.5 362.5 377.5 382.5 395> 495 10.002<155 295> 595.002 9.99799<155 295>
VStem: 45 10<6 497.943> 66.5 5<6.00098 509.56> 86.5 5<6.00195 529.76> 106.5 5<6.00195 549.961> 126.5 5<6.00195 570.16> 145 10<6.00195 245 255.002 345.002 355 495 505.002 588.846> 265 10<255.002 345.002> 295 10<473.002 495 505.002 587.846> 317.5 5<473.002 570.171> 337.5 5<473.002 549.971> 357.5 5<473.001 529.769> 377.5 5<473 509.568> 395 10<473 496.943>
LayerCount: 2
Fore
SplineSet
155 4 m 1
 148.965 -3.96484 l 1
 146.447 -5 l 1
 46.4473 -5 l 1
 45 -0.482422 l 1
 45 500 l 1
 46.4473 503.518 l 1
 146.447 604.518 l 1
 148.623 603.623 l 1
 150 605 l 1
 300 605 l 1
 302.086 602.914 l 1
 303.553 603.518 l 1
 403.553 502.518 l 1
 405 499 l 1
 405 468 l 1
 400 463 l 1
 300 463 l 1
 295 468 l 1
 295 495 l 1
 155 495 l 1
 155 355 l 1
 270 355 l 1
 275 350 l 1
 275 250 l 1
 270 245 l 1
 155 245 l 1
 155 6 l 1
 155 4 l 1
55 6 m 1
 66.5 6.00098 l 1
 66.5 509.56 l 1
 55 497.943 l 1
 55 6 l 1
86.5 529.76 m 1
 71.5 514.609 l 1
 71.5 6.00098 l 1
 86.5 6.00098 l 1
 86.5 529.76 l 1
106.5 549.961 m 1
 91.5 534.811 l 1
 91.5 6.00195 l 1
 106.5 6.00195 l 1
 106.5 549.961 l 1
126.5 570.16 m 1
 111.5 555.011 l 1
 111.5 6.00195 l 1
 126.5 6.00195 l 1
 126.5 570.16 l 1
145 6.00195 m 1
 145 250.002 l 1
 145 350.002 l 1
 145 500.002 l 1
 145 588.846 l 1
 131.5 575.211 l 1
 131.5 6.00195 l 1
 145 6.00195 l 1
155 345.002 m 1
 155 255.002 l 1
 265 255.002 l 1
 265 345.002 l 1
 155 345.002 l 1
155 595.002 m 1
 155 505.002 l 1
 295 505.002 l 1
 295 595.002 l 1
 155 595.002 l 1
305 500.002 m 1
 305 473.002 l 1
 317.5 473.002 l 1
 317.5 575.221 l 1
 305 587.846 l 1
 305 500.002 l 1
322.5 473.002 m 1
 337.5 473.002 l 1
 337.5 555.02 l 1
 322.5 570.171 l 1
 322.5 473.002 l 1
342.5 473.002 m 1
 357.5 473.001 l 1
 357.5 534.819 l 1
 342.5 549.971 l 1
 342.5 473.002 l 1
362.5 473.001 m 1
 377.5 473 l 1
 377.5 514.618 l 1
 362.5 529.769 l 1
 362.5 473.001 l 1
382.5 473 m 1
 395 473 l 1
 395 496.943 l 1
 382.5 509.568 l 1
 382.5 473 l 1
EndSplineSet
EndChar

StartChar: G
Encoding: 71 71 30
Width: 450
VWidth: 960
GlyphClass: 2
Flags: W
HStem: -5 10<155 294> 96 10<155 294> 287.001 9.99899<304 316.5 321.5 336.5 341.5 356.5 361.5 376.5 381.5 394> 460 10.001<304 316.5 321.5 336.5 341.5 356.5 361.5 376.5 381.5 394> 495 10.001<155 294> 596.001 9.99902<155 294>
VStem: 45 10<103.057 498.93> 68.5 5<89.4219 512.43> 88.5 5<69.2217 532.43> 108.5 5<49.0225 552.431> 128.5 5<28.8223 572.43> 145 10<12.1562 96 106 495 505.001 588.93> 294 10<12.1562 96 106 287 470.001 495 505.001 588.93> 316.5 5<29.832 287 470.001 571.43> 336.5 5<50.0322 287.001 470.001 551.43> 356.5 5<70.2314 287.001 470.001 531.43> 376.5 5<90.4307 287 470.001 511.429> 394 10<103.056 287 470 498.929>
LayerCount: 2
Fore
SplineSet
394 103.056 m 1
 394 287 l 1
 381.5 287 l 1
 381.5 90.4307 l 1
 394 103.056 l 1
45 501 m 1
 46.4473 504.536 l 1
 146.447 604.536 l 1
 147.925 603.925 l 1
 150 606 l 1
 299 606 l 1
 301.071 603.929 l 1
 302.536 604.536 l 1
 402.536 504.536 l 1
 404 501 l 1
 404 465 l 1
 399 460 l 1
 299 460 l 1
 294 465 l 1
 294 495 l 1
 155 495 l 1
 155 106 l 1
 294 106 l 1
 294 292 l 1
 299 297 l 1
 399 297 l 1
 404 292 l 1
 404 101 l 1
 402.536 97.4824 l 1
 302.536 -3.51758 l 1
 301.082 -2.91797 l 1
 299 -5 l 1
 150 -5 l 1
 147.914 -2.91406 l 1
 146.447 -3.51758 l 1
 46.4473 97.4824 l 1
 45 101 l 1
 45 501 l 1
394 470 m 1
 394 498.929 l 1
 381.5 511.429 l 1
 381.5 470 l 1
 394 470 l 1
294 96 m 1
 155 96 l 1
 155 5 l 1
 294 5 l 1
 294 96 l 1
304 12.1562 m 1
 316.5 24.7812 l 1
 316.5 287 l 1
 304 287 l 1
 304 101 l 1
 304 12.1562 l 1
145 101 m 1
 145 500.001 l 1
 145 588.93 l 1
 133.5 577.43 l 1
 133.5 23.7715 l 1
 145 12.1562 l 1
 145 101 l 1
155 505.001 m 1
 294 505.001 l 1
 294 596.001 l 1
 155 596.001 l 1
 155 505.001 l 1
304 500.001 m 1
 304 470.001 l 1
 316.5 470.001 l 1
 316.5 576.43 l 1
 304 588.93 l 1
 304 500.001 l 1
321.5 29.832 m 1
 336.5 44.9824 l 1
 336.5 287.001 l 1
 321.5 287.001 l 1
 321.5 29.832 l 1
341.5 50.0322 m 1
 356.5 65.1816 l 1
 356.5 287.001 l 1
 341.5 287.001 l 1
 341.5 50.0322 l 1
361.5 70.2314 m 1
 376.5 85.3818 l 1
 376.5 287.001 l 1
 361.5 287.001 l 1
 361.5 70.2314 l 1
321.5 470.001 m 1
 336.5 470.001 l 1
 336.5 556.43 l 1
 321.5 571.43 l 1
 321.5 470.001 l 1
341.5 470.001 m 1
 356.5 470.001 l 1
 356.5 536.43 l 1
 341.5 551.43 l 1
 341.5 470.001 l 1
361.5 470.001 m 1
 376.5 470.001 l 1
 376.5 516.43 l 1
 361.5 531.43 l 1
 361.5 470.001 l 1
128.5 572.43 m 1
 113.5 557.431 l 1
 113.5 43.9727 l 1
 128.5 28.8223 l 1
 128.5 572.43 l 1
108.5 552.431 m 1
 93.5 537.43 l 1
 93.5 64.1719 l 1
 108.5 49.0225 l 1
 108.5 552.431 l 1
88.5 532.43 m 1
 73.5 517.43 l 1
 73.5 84.3711 l 1
 88.5 69.2217 l 1
 88.5 532.43 l 1
68.5 512.43 m 1
 55 498.93 l 1
 55 103.057 l 1
 68.5 89.4219 l 1
 68.5 512.43 l 1
EndSplineSet
EndChar

StartChar: H
Encoding: 72 72 31
Width: 450
VWidth: 960
GlyphClass: 2
Flags: W
HStem: -5 10<55 66.5 71.5 86.5 91.5 106.5 111.5 126.5 131.5 145 305 316.5 321.5 336.5 341.5 356.5 361.5 376.5 381.5 395> 270 10<155 295> 320 10<155 295> 595 10<55 66.5 71.5 86.5 91.5 106.5 111.5 126.5 131.5 145 305 316.5 321.5 336.5 341.5 356.5 361.5 376.5 381.5 395>
VStem: 45 10<5 595> 66.5 5<5 595> 86.5 5<5 595> 106.5 5<5 595> 126.5 5<5 595> 145 10<5 270 280 320 330 595> 295 10<5 270 280 320 330 595> 316.5 5<5 595> 336.5 5<5 595> 356.5 5<5 595> 376.5 5<5 595> 395 10<5 595>
LayerCount: 2
Fore
SplineSet
55 595 m 1
 55 5 l 1
 66.5 5 l 1
 66.5 595 l 1
 55 595 l 1
150 605 m 1
 155 600 l 1
 155 330 l 1
 295 330 l 1
 295 600 l 1
 300 605 l 1
 400 605 l 1
 405 600 l 1
 405 0 l 1
 400 -5 l 1
 300 -5 l 1
 295 0 l 1
 295 270 l 1
 155 270 l 1
 155 0 l 1
 150 -5 l 1
 50 -5 l 1
 45 0 l 1
 45 600 l 1
 50 605 l 1
 150 605 l 1
131.5 595 m 1
 131.5 5 l 1
 145 5 l 1
 145 275 l 1
 145 325 l 1
 145 595 l 1
 131.5 595 l 1
126.5 595 m 1
 111.5 595 l 1
 111.5 5 l 1
 126.5 5 l 1
 126.5 595 l 1
106.5 595 m 1
 91.5 595 l 1
 91.5 5 l 1
 106.5 5 l 1
 106.5 595 l 1
86.5 595 m 1
 71.5 595 l 1
 71.5 5 l 1
 86.5 5 l 1
 86.5 595 l 1
381.5 595 m 1
 381.5 5 l 1
 395 5 l 1
 395 595 l 1
 381.5 595 l 1
376.5 595 m 1
 361.5 595 l 1
 361.5 5 l 1
 376.5 5 l 1
 376.5 595 l 1
356.5 595 m 1
 341.5 595 l 1
 341.5 5 l 1
 356.5 5 l 1
 356.5 595 l 1
336.5 595 m 1
 321.5 595 l 1
 321.5 5 l 1
 336.5 5 l 1
 336.5 595 l 1
316.5 595 m 1
 305 595 l 1
 305 325 l 1
 305 275 l 1
 305 5 l 1
 316.5 5 l 1
 316.5 595 l 1
295 320 m 1
 155 320 l 1
 155 280 l 1
 295 280 l 1
 295 320 l 1
EndSplineSet
EndChar

StartChar: I
Encoding: 73 73 32
Width: 200
VWidth: 960
GlyphClass: 2
Flags: W
HStem: -5 10<55 66.5 71.5 86.5 91.5 106.5 111.5 126.5 131.5 145> 595 10<55 66.5 71.5 86.5 91.5 106.5 111.5 126.5 131.5 145>
VStem: 45 10<5 595> 66.5 5<5 595> 86.5 5<5 595> 106.5 5<5 595> 126.5 5<5 595> 145 10<5 595>
LayerCount: 2
Fore
SplineSet
55 595 m 1
 55 5 l 1
 66.5 5 l 1
 66.5 595 l 1
 55 595 l 1
150 605 m 1
 155 600 l 1
 155 0 l 1
 150 -5 l 1
 50 -5 l 1
 45 0 l 1
 45 600 l 1
 50 605 l 1
 150 605 l 1
131.5 595 m 1
 131.5 5 l 1
 145 5 l 1
 145 595 l 1
 131.5 595 l 1
126.5 595 m 1
 111.5 595 l 1
 111.5 5 l 1
 126.5 5 l 1
 126.5 595 l 1
106.5 595 m 1
 91.5 595 l 1
 91.5 5 l 1
 106.5 5 l 1
 106.5 595 l 1
86.5 595 m 1
 71.5 595 l 1
 71.5 5 l 1
 86.5 5 l 1
 86.5 595 l 1
EndSplineSet
EndChar

StartChar: J
Encoding: 74 74 33
Width: 450
VWidth: 960
GlyphClass: 2
Flags: W
HStem: -23.6231 20G<148.447 152 302 305.553>
VStem: 69.5 5<89.4316 126> 89.5 5<69.2314 126> 109.5 5<49.0312 126> 129.5 5<28.8311 126> 320.5 5<29.3604 595> 340.5 5<49.5586 595> 360.5 5<69.7588 595> 380.5 5<89.959 595>
LayerCount: 2
Fore
SplineSet
297 105 m 1
 157 105 l 1
 157 131 l 1
 152 136 l 1
 52 136 l 1
 47 131 l 1
 47 100 l 1
 48.4473 96.4824 l 1
 148.447 -4.51758 l 1
 150.623 -3.62305 l 1
 152 -5 l 1
 302 -5 l 1
 303.035 -3.96484 l 1
 305.553 -5 l 1
 405.553 96 l 1
 407 99.5176 l 1
 407 600 l 1
 405.553 604.518 l 1
 305.553 604.518 l 1
 303.377 603.623 l 1
 297 595 l 1
 297 105 l 1
397 101.575 m 1
 385.5 89.959 l 1
 385.5 595 l 1
 397 595 l 1
 397 101.575 l 1
365.5 595 m 1
 380.5 595 l 1
 380.5 84.9102 l 1
 365.5 69.7588 l 1
 365.5 595 l 1
345.5 595 m 1
 360.5 595 l 1
 360.5 64.709 l 1
 345.5 49.5586 l 1
 345.5 595 l 1
325.5 595 m 1
 340.5 595 l 1
 340.5 44.5088 l 1
 325.5 29.3604 l 1
 325.5 595 l 1
57 102.057 m 1
 57 126 l 1
 69.5 126 l 1
 69.5 89.4316 l 1
 57 102.057 l 1
297 95 m 1
 297 5 l 1
 157 5 l 1
 157 95 l 1
 297 95 l 1
307 10.6738 m 1
 307 100 l 1
 307 595 l 1
 320.5 595 l 1
 320.5 24.3086 l 1
 307 10.6738 l 1
147 11.1562 m 1
 134.5 23.7812 l 1
 134.5 126 l 1
 147 126 l 1
 147 100 l 1
 147 11.1562 l 1
129.5 28.8311 m 1
 114.5 43.9814 l 1
 114.5 126 l 1
 129.5 126 l 1
 129.5 28.8311 l 1
109.5 49.0312 m 1
 94.5 64.1816 l 1
 94.5 126 l 1
 109.5 126 l 1
 109.5 49.0312 l 1
89.5 69.2314 m 1
 74.5 84.3818 l 1
 74.5 126 l 1
 89.5 126 l 1
 89.5 69.2314 l 1
EndSplineSet
EndChar

StartChar: K
Encoding: 75 75 34
Width: 450
VWidth: 960
GlyphClass: 2
Flags: W
HStem: -5 10<55 66.5 71.5 86.5 91.5 106.5 111.5 126.5 131.5 145> 595 10<55 66.5 71.5 86.5 91.5 106.5 111.5 126.5 131.5 145>
VStem: 45 10<5 595> 66.5 5<5 595> 86.5 5<5 595> 106.5 5<5 595> 126.5 5<5 595> 145 9.99899<5 208.321 223.2 240.407 242.763 270.295 272.975 300.182 303.184 330.069 333.395 357.743 372.611 595>
LayerCount: 2
Fore
SplineSet
55 595 m 1
 55 5 l 1
 66.5 5 l 1
 66.5 595 l 1
 55 595 l 1
150 605 m 1
 154.999 600 l 1
 154.999 372.611 l 1
 361.509 597.54 l 1
 368.538 597.874 l 1
 442.845 530.952 l 1
 443.183 523.856 l 1
 229.54 291.014 l 1
 430.025 71.6914 l 1
 429.682 64.6025 l 1
 355.375 -2.31934 l 1
 348.348 -1.98828 l 1
 155 208.321 l 1
 155 0 l 1
 150 -5 l 1
 50 -5 l 1
 45 0 l 1
 45 600 l 1
 50 605 l 1
 150 605 l 1
432.403 526.898 m 1
 365.527 587.13 l 1
 161.752 365.172 l 1
 222.768 298.424 l 1
 432.403 526.898 l 1
131.5 595 m 1
 131.5 5 l 1
 145 5 l 1
 145 595 l 1
 131.5 595 l 1
126.5 595 m 1
 111.5 595 l 1
 111.5 5 l 1
 126.5 5 l 1
 126.5 595 l 1
106.5 595 m 1
 91.5 595 l 1
 91.5 5 l 1
 106.5 5 l 1
 106.5 595 l 1
86.5 595 m 1
 71.5 595 l 1
 71.5 5 l 1
 86.5 5 l 1
 86.5 595 l 1
155 333.395 m 1
 157.033 335.255 l 1
 409.214 59.626 l 1
 419.247 68.6611 l 1
 155 357.743 l 1
 155 333.395 l 1
155 330.069 m 1
 154.999 303.184 l 1
 157.191 305.19 l 1
 394.351 46.2393 l 1
 405.499 56.2793 l 1
 155 330.069 l 1
154.999 300.182 m 1
 154.999 272.975 l 1
 157.35 275.13 l 1
 379.486 32.8535 l 1
 390.635 42.8936 l 1
 154.999 300.182 l 1
154.999 270.295 m 1
 154.999 242.763 l 1
 157.509 245.066 l 1
 364.623 19.4668 l 1
 375.771 29.5078 l 1
 154.999 270.295 l 1
154.999 240.407 m 1
 154.5 223.2 l 1
 352.36 8.42285 l 1
 360.907 16.1211 l 1
 154.999 240.407 l 1
EndSplineSet
EndChar

StartChar: L
Encoding: 76 76 35
Width: 450
VWidth: 960
GlyphClass: 2
Flags: W
HStem: -5 10<155 295> 95 10<155 295> 126 10<305 317.5 322.5 337.5 342.5 357.5 362.5 377.5 382.5 395> 595 9.51801<55 66.5 71.5 86.5 91.5 106.5 111.5 126.5 131.5 145>
VStem: 45 10<101.575 595> 66.5 5<89.959 595> 86.5 5<69.7588 595> 106.5 5<49.5586 595> 126.5 5<29.3604 595> 145 10<10.6738 95 105 595> 295 10<11.1562 95 105 126> 317.5 5<28.8311 126> 337.5 5<49.0312 126> 357.5 5<69.2314 126> 377.5 5<89.4316 126> 395 10<102.056 126>
LayerCount: 2
Fore
SplineSet
155 105 m 1
 295 105 l 1
 295 131 l 1
 300 136 l 1
 400 136 l 1
 405 131 l 1
 405 100 l 1
 403.553 96.4824 l 1
 303.553 -4.51758 l 1
 301.377 -3.62305 l 1
 300 -5 l 1
 150 -5 l 1
 148.965 -3.96484 l 1
 146.447 -5 l 1
 46.4473 96 l 1
 45 99.5176 l 1
 45 600 l 1
 46.4473 604.518 l 1
 146.447 604.518 l 1
 148.623 603.623 l 1
 155 595 l 1
 155 105 l 1
55 101.575 m 1
 66.5 89.959 l 1
 66.5 595 l 1
 55 595 l 1
 55 101.575 l 1
86.5 595 m 1
 71.5 595 l 1
 71.5 84.9102 l 1
 86.5 69.7588 l 1
 86.5 595 l 1
106.5 595 m 1
 91.5 595 l 1
 91.5 64.709 l 1
 106.5 49.5586 l 1
 106.5 595 l 1
126.5 595 m 1
 111.5 595 l 1
 111.5 44.5088 l 1
 126.5 29.3604 l 1
 126.5 595 l 1
395 102.056 m 1
 395 126 l 1
 382.5 126 l 1
 382.5 89.4316 l 1
 395 102.056 l 1
155 95 m 1
 155 5 l 1
 295 5 l 1
 295 95 l 1
 155 95 l 1
145 10.6738 m 1
 145 100 l 1
 145 595 l 1
 131.5 595 l 1
 131.5 24.3086 l 1
 145 10.6738 l 1
305 11.1562 m 1
 317.5 23.7812 l 1
 317.5 126 l 1
 305 126 l 1
 305 100 l 1
 305 11.1562 l 1
322.5 28.8311 m 1
 337.5 43.9814 l 1
 337.5 126 l 1
 322.5 126 l 1
 322.5 28.8311 l 1
342.5 49.0312 m 1
 357.5 64.1816 l 1
 357.5 126 l 1
 342.5 126 l 1
 342.5 49.0312 l 1
362.5 69.2314 m 1
 377.5 84.3818 l 1
 377.5 126 l 1
 362.5 126 l 1
 362.5 69.2314 l 1
EndSplineSet
EndChar

StartChar: M
Encoding: 77 77 36
Width: 740
VWidth: 960
GlyphClass: 2
Flags: W
HStem: -4.99902 9.99902<55 142.5 595 606.5 611.5 626.5 631.5 646.5 651.5 666.5 671.5 685> 39.501 9.999<317.712 332.696 338.299 355.109 360.713 377.522 383.126 399.934 405.537 416.9> 584.299 20G<77.6757 151.956 587.552 671.213>
VStem: 44.999 10.001<5 549.919> 142.5 10<4.52539 355.942> 585 10<5 358.789 379.614 580.226> 606.5 5<5 590.471> 626.5 5<5 585.471> 646.5 5<5 580.471> 666.5 5<5 575.471> 685 10<5 572.096>
LayerCount: 2
Fore
SplineSet
595 594.596 m 1
 595 5 l 1
 606.5 5 l 1
 606.5 591.721 l 1
 595 594.596 l 1
691.213 580.851 m 1
 695 576.001 l 1
 695 0.000976562 l 1
 690 -4.99902 l 1
 590 -4.99902 l 1
 585 0.000976562 l 1
 585 358.789 l 1
 429.461 42.2656 l 1
 426.698 42.2656 l 1
 424.989 39.501 l 1
 314.633 39.501 l 1
 314.633 44.502 l 1
 310.165 42.2656 l 1
 152.5 355.942 l 1
 152.5 -0.5 l 1
 147.474 -5.5 l 1
 49.9736 -5 l 1
 44.999 0 l 1
 44.999 571 l 1
 46.6846 571.404 l 1
 48.5967 575.799 l 1
 146.097 604.299 l 1
 151.956 601.735 l 1
 368.069 169.519 l 1
 584.617 603.684 l 1
 587.552 602.992 l 1
 591.213 605.851 l 1
 691.213 580.851 l 1
151.956 381.77 m 1
 152.5 379.5 l 1
 152.5 378.202 l 1
 317.712 49.5 l 1
 332.696 49.5 l 1
 68.8037 571.287 l 1
 57.1924 567.894 l 1
 151.956 381.77 l 1
671.5 575.471 m 1
 671.5 5 l 1
 685 5 l 1
 685 572.096 l 1
 671.5 575.471 l 1
666.5 576.721 m 1
 651.5 580.471 l 1
 651.5 5 l 1
 666.5 5 l 1
 666.5 576.721 l 1
646.5 581.721 m 1
 631.5 585.471 l 1
 631.5 5 l 1
 646.5 5 l 1
 646.5 581.721 l 1
626.5 586.721 m 1
 611.5 590.471 l 1
 611.5 5 l 1
 626.5 5 l 1
 626.5 586.721 l 1
338.299 49.5 m 1
 355.109 49.5 l 1
 88.3301 576.995 l 1
 73.6855 572.714 l 1
 338.299 49.5 l 1
360.713 49.5 m 1
 377.522 49.5 l 1
 107.856 582.702 l 1
 93.2119 578.422 l 1
 360.713 49.5 l 1
383.126 49.5 m 1
 399.934 49.5 l 1
 127.383 588.41 l 1
 112.738 584.129 l 1
 383.126 49.5 l 1
405.537 49.5 m 1
 416.9 49.5 l 1
 144.896 593.529 l 1
 132.264 589.837 l 1
 405.537 49.5 l 1
373.68 158.364 m 1
 424.951 55.7607 l 1
 584.092 379.614 l 1
 584.092 580.226 l 1
 373.68 158.364 l 1
142.5 375.837 m 1
 55 549.919 l 1
 55 5 l 1
 142.5 4.52539 l 1
 142.5 375.837 l 1
EndSplineSet
EndChar

StartChar: N
Encoding: 78 78 37
Width: 484
VWidth: 960
GlyphClass: 2
Flags: W
HStem: -5.00098 9.97461<55 142.5> 594.461 10.038<342.489 429.989>
VStem: 45 10<4.97363 549.914> 142.5 10.001<4.52539 355.895> 332.49 9.99902<242.883 594.461> 429.989 10.001<49.1318 594.026>
LayerCount: 2
Fore
SplineSet
320.131 44.5898 m 1
 340.06 5.46484 l 1
 352.726 9.16699 l 1
 68.8027 571.287 l 1
 57.168 567.886 l 1
 151.965 379.75 l 1
 152.199 378.765 l 1
 320.131 44.5898 l 1
429.989 49.1318 m 1
 429.989 594.026 l 1
 342.489 594.461 l 1
 342.489 223.683 l 1
 429.989 49.1318 l 1
142.5 375.795 m 1
 55 549.914 l 1
 55 4.97363 l 1
 142.5 4.52539 l 1
 142.5 375.795 l 1
46.6836 571.399 m 1
 48.5977 575.798 l 1
 146.098 604.298 l 1
 151.966 601.746 l 1
 332.49 242.883 l 1
 332.49 599.499 l 1
 337.517 604.499 l 1
 435.017 603.999 l 1
 439.99 598.999 l 1
 439.99 27.999 l 1
 438.303 27.5996 l 1
 436.391 23.2021 l 1
 338.889 -5.29785 l 1
 333.02 -2.76758 l 1
 311.209 40.0742 l 1
 152.501 355.895 l 1
 152.501 -0.500977 l 1
 147.475 -5.50098 l 1
 49.9746 -5.00098 l 1
 45 -0.000976562 l 1
 45 570.999 l 1
 46.6836 571.399 l 1
127.068 588.316 m 1
 112.736 584.127 l 1
 396.662 22.0068 l 1
 411.303 26.2871 l 1
 127.068 588.316 l 1
131.95 589.743 m 1
 416.186 27.7139 l 1
 427.824 31.1162 l 1
 144.906 593.53 l 1
 131.95 589.743 l 1
107.855 582.7 m 1
 93.2119 578.419 l 1
 377.137 16.2998 l 1
 391.781 20.5801 l 1
 107.855 582.7 l 1
88.3311 576.993 m 1
 73.6855 572.712 l 1
 357.608 10.5918 l 1
 372.256 14.873 l 1
 88.3311 576.993 l 1
EndSplineSet
EndChar

StartChar: O
Encoding: 79 79 38
Width: 450
VWidth: 960
GlyphClass: 2
Flags: W
HStem: -5 10.001<155 294> 96.001 10<155 294> 495.001 10<155 294> 596.001 9.99902<155 294>
VStem: 45 10<102.072 497.943> 62.5 5<94.5723 505.519> 82.5 5<74.5723 525.719> 102.5 5<54.5723 545.919> 122.5 5<34.5723 566.119> 145 10<12.0723 96.001 106.001 495.001 505.001 588.844> 294 10<12.0723 96.001 106.001 495.001 505.001 588.844> 320.5 5<33.5732 567.13> 340.5 5<53.5723 546.929> 360.5 5<73.5713 526.729> 380.5 5<93.5713 506.528> 394 10<102.071 497.943>
LayerCount: 2
Fore
SplineSet
404 100 m 1
 402.536 96.4648 l 1
 302.536 -3.53516 l 1
 301.071 -2.92871 l 1
 299 -5 l 1
 150 -5 l 1
 147.925 -2.9248 l 1
 146.447 -3.53516 l 1
 46.4473 96.4648 l 1
 45 100 l 1
 45 500 l 1
 46.4473 503.518 l 1
 146.447 604.518 l 1
 147.914 603.914 l 1
 150 606 l 1
 299 606 l 1
 301.081 603.919 l 1
 302.536 604.518 l 1
 402.536 503.518 l 1
 404 500 l 1
 404 100 l 1
55 497.943 m 1
 55 102.072 l 1
 62.5 94.5723 l 1
 62.5 505.519 l 1
 55 497.943 l 1
294 596.001 m 1
 155 596.001 l 1
 155 505.001 l 1
 294 505.001 l 1
 294 596.001 l 1
294 495.001 m 1
 155 495.001 l 1
 155 106.001 l 1
 294 106.001 l 1
 294 495.001 l 1
304 500.001 m 1
 304 101.001 l 1
 304 12.0723 l 1
 320.5 28.5723 l 1
 320.5 572.179 l 1
 304 588.844 l 1
 304 500.001 l 1
294 96.001 m 1
 155 96.001 l 1
 155 5.00098 l 1
 294 5.00098 l 1
 294 96.001 l 1
127.5 571.169 m 1
 127.5 29.5723 l 1
 145 12.0723 l 1
 145 101.001 l 1
 145 500.001 l 1
 145 588.844 l 1
 127.5 571.169 l 1
122.5 566.119 m 1
 107.5 550.969 l 1
 107.5 49.5723 l 1
 122.5 34.5723 l 1
 122.5 566.119 l 1
102.5 545.919 m 1
 87.5 530.769 l 1
 87.5 69.5723 l 1
 102.5 54.5723 l 1
 102.5 545.919 l 1
82.5 525.719 m 1
 67.5 510.569 l 1
 67.5 89.5723 l 1
 82.5 74.5723 l 1
 82.5 525.719 l 1
325.5 33.5732 m 1
 340.5 48.5723 l 1
 340.5 551.979 l 1
 325.5 567.13 l 1
 325.5 33.5732 l 1
345.5 53.5723 m 1
 360.5 68.5713 l 1
 360.5 531.778 l 1
 345.5 546.929 l 1
 345.5 53.5723 l 1
365.5 73.5713 m 1
 380.5 88.5713 l 1
 380.5 511.578 l 1
 365.5 526.729 l 1
 365.5 73.5713 l 1
385.5 93.5713 m 1
 394 102.071 l 1
 394 497.943 l 1
 385.5 506.528 l 1
 385.5 93.5713 l 1
EndSplineSet
EndChar

StartChar: P
Encoding: 80 80 39
Width: 450
VWidth: 960
GlyphClass: 2
Flags: W
HStem: 485.949 20G<385.501 394.001>
VStem: 320.501 5<252.391 565.948> 340.501 5<272.592 545.949> 360.501 5<292.791 525.949> 380.501 5<312.991 505.949>
LayerCount: 2
Fore
SplineSet
404 499.518 m 1
 402.536 503.054 l 1
 302.536 603.054 l 1
 301.072 602.446 l 1
 299.001 604.518 l 1
 150.001 604.518 l 1
 50.001 504.518 l 1
 45.001 499.518 l 1
 45.001 -2.48242 l 1
 46.4482 -6 l 1
 146.431 -6 l 1
 155.001 -2.48242 l 1
 155.001 307.274 l 1
 238.587 215 l 1
 295.431 215.018 l 1
 298.989 216.472 l 1
 302.535 215.018 l 1
 402.535 316.018 l 1
 404 319.518 l 1
 404 499.518 l 1
55.001 6 m 1
 55.001 494.518 l 1
 67.501 509.518 l 1
 67.501 6 l 1
 55.001 6 l 1
294.001 314.518 m 1
 294.001 226.762 l 1
 240.906 227 l 1
 161.903 314.518 l 1
 294.001 314.518 l 1
294.001 324.518 m 1
 155.001 324.518 l 1
 155.001 493.518 l 1
 294.001 493.518 l 1
 294.001 324.518 l 1
304.001 319.518 m 1
 304.001 498.519 l 1
 304.001 587.447 l 1
 320.501 570.947 l 1
 320.501 247.34 l 1
 304.001 230.675 l 1
 304.001 319.518 l 1
294.001 503.519 m 1
 155.001 503.519 l 1
 155.001 594.519 l 1
 294.001 594.519 l 1
 294.001 503.519 l 1
132.501 6.00098 m 1
 132.501 574.519 l 1
 145.001 588.519 l 1
 145.001 498.519 l 1
 145.001 6.00098 l 1
 132.501 6.00098 l 1
127.501 6.00098 m 1
 112.501 6.00098 l 1
 112.501 552.519 l 1
 127.501 569.519 l 1
 127.501 6.00098 l 1
107.501 6.00098 m 1
 92.501 6.00098 l 1
 92.501 531.519 l 1
 107.501 548.519 l 1
 107.501 6.00098 l 1
87.501 6.00098 m 1
 72.501 6.00098 l 1
 72.501 512.519 l 1
 87.501 528.519 l 1
 87.501 6.00098 l 1
325.501 565.948 m 1
 340.501 550.949 l 1
 340.501 267.541 l 1
 325.501 252.391 l 1
 325.501 565.948 l 1
345.501 545.949 m 1
 360.501 530.949 l 1
 360.501 287.741 l 1
 345.501 272.592 l 1
 345.501 545.949 l 1
365.501 525.949 m 1
 380.501 510.949 l 1
 380.501 307.941 l 1
 365.501 292.791 l 1
 365.501 525.949 l 1
385.501 505.949 m 1
 394.001 497.449 l 1
 394.001 321.576 l 1
 385.501 312.991 l 1
 385.501 505.949 l 1
EndSplineSet
EndChar

StartChar: Q
Encoding: 81 81 40
Width: 450
VWidth: 960
GlyphClass: 2
Flags: W
HStem: -5 10<155 171 181 194.5 199.5 214.5 219.5 234.5 239.5 254.5 259.5 271 281 294> 96 10<155 294> 495 10<155 294> 596 10<155 294>
VStem: 45 10<102.072 497.943> 62.5 5<94.5723 505.519> 82.5 5<74.5703 525.717> 102.5 5<54.5713 545.918> 122.5 5<34.5713 566.118> 145 10<12.0713 96 106 495 505 588.843> 171 10<-89.9287 -5> 194.5 5<-103.429 -5> 214.5 5<-123.429 -5> 234.5 5<-143.429 -5> 254.5 5<-163.43 -5> 271 10<-179.93 -5> 294 10<12.0713 96 106 495 505 588.843> 320.5 5<33.5703 567.127> 340.5 5<53.5713 546.928> 360.5 5<73.5713 526.729> 380.5 5<93.5713 506.528> 394 10<102.071 497.943>
LayerCount: 2
Fore
SplineSet
385.5 93.5713 m 1
 394 102.071 l 1
 394 497.943 l 1
 385.5 506.528 l 1
 385.5 93.5713 l 1
365.5 73.5713 m 1
 380.5 88.5713 l 1
 380.5 511.578 l 1
 365.5 526.729 l 1
 365.5 73.5713 l 1
345.5 53.5713 m 1
 360.5 68.5703 l 1
 360.5 531.777 l 1
 345.5 546.928 l 1
 345.5 53.5713 l 1
325.5 33.5703 m 1
 340.5 48.5703 l 1
 340.5 551.977 l 1
 325.5 567.127 l 1
 325.5 33.5703 l 1
82.5 525.717 m 1
 67.5 510.567 l 1
 67.5 89.5703 l 1
 82.5 74.5703 l 1
 82.5 525.717 l 1
102.5 545.918 m 1
 87.5 530.768 l 1
 87.5 69.5713 l 1
 102.5 54.5713 l 1
 102.5 545.918 l 1
122.5 566.118 m 1
 107.5 550.968 l 1
 107.5 49.5713 l 1
 122.5 34.5713 l 1
 122.5 566.118 l 1
127.5 571.168 m 1
 127.5 29.5713 l 1
 145 12.0713 l 1
 145 101 l 1
 145 500 l 1
 145 588.843 l 1
 127.5 571.168 l 1
294 96 m 1
 155 96 l 1
 155 5 l 1
 179.553 5 l 1
 279.553 5 l 1
 294 5 l 1
 294 96 l 1
304 500 m 1
 304 101 l 1
 304 12.0713 l 1
 320.5 28.5713 l 1
 320.5 572.178 l 1
 304 588.843 l 1
 304 500 l 1
294 495 m 1
 155 495 l 1
 155 106 l 1
 294 106 l 1
 294 495 l 1
294 596 m 1
 155 596 l 1
 155 505 l 1
 294 505 l 1
 294 596 l 1
55 497.943 m 1
 55 102.072 l 1
 62.5 94.5723 l 1
 62.5 505.519 l 1
 55 497.943 l 1
404 100.001 m 1
 402.536 96.4648 l 1
 302.536 -3.53516 l 1
 301.071 -2.92871 l 1
 299 -5 l 1
 281 -5 l 1
 281 -192 l 1
 272.465 -195.535 l 1
 172.465 -95.5352 l 1
 171 -92 l 1
 171 -5 l 1
 150 -5 l 1
 147.914 -2.92871 l 1
 146.447 -3.53516 l 1
 46.4473 96.4648 l 1
 45 100 l 1
 45 500 l 1
 46.4473 503.518 l 1
 146.447 604.518 l 1
 147.914 603.914 l 1
 150 606 l 1
 299 606 l 1
 301.071 603.914 l 1
 302.536 604.519 l 1
 402.536 503.519 l 1
 404 500.001 l 1
 404 100.001 l 1
254.5 -5 m 1
 239.5 -5 l 1
 239.5 -148.429 l 1
 254.5 -163.43 l 1
 254.5 -5 l 1
234.5 -5 m 1
 219.5 -5 l 1
 219.5 -128.429 l 1
 234.5 -143.429 l 1
 234.5 -5 l 1
214.5 -5 m 1
 199.5 -5 l 1
 199.5 -108.429 l 1
 214.5 -123.429 l 1
 214.5 -5 l 1
181 -5 m 1
 181 -89.9287 l 1
 194.5 -103.429 l 1
 194.5 -5 l 1
 181 -5 l 1
259.5 -5 m 1
 259.5 -168.43 l 1
 271 -179.93 l 1
 271 -5 l 1
 259.5 -5 l 1
EndSplineSet
EndChar

StartChar: R
Encoding: 82 82 41
Width: 450
VWidth: 960
GlyphClass: 2
Flags: W
HStem: -3.99609 9.76074<55 68.5 73.5 88.5 93.5 108.5 113.5 128.5 133.5 145 305 317.5 322.5 337.5 342.5 357.5 362.5 377.5 382.5 395> 245.004 10<155 295> 345.004 10<155 295> 495.004 10<155 295> 595.004 10<155 295>
VStem: 45 10<5.94922 498.928> 68.5 5<5.81445 512.429> 88.5 5<5.61426 532.428> 108.5 5<5.41504 552.429> 128.5 5<5.21582 572.43> 145 10<5.05078 245.004 255.004 345.004 355.004 495.004 505.004 588.93> 295 10<4.00391 245.004 261.16 345.004 355.004 495.004 505.004 587.848> 317.5 5<4.00391 259.572 278.839 570.171> 337.5 5<4.00391 279.771 299.057 549.973> 357.5 5<4.00391 280.106 319.236 529.772> 377.5 5<4.00195 259.7 339.437 509.572> 395 10<4.00098 246.946 352.062 496.947>
LayerCount: 2
Fore
SplineSet
68.5 512.429 m 1
 55 498.928 l 1
 55 5.94922 l 1
 68.5 5.81445 l 1
 68.5 512.429 l 1
88.5 532.428 m 1
 73.5 517.429 l 1
 73.5 5.76465 l 1
 88.5 5.61426 l 1
 88.5 532.428 l 1
108.5 552.429 m 1
 93.5 537.43 l 1
 93.5 5.56543 l 1
 108.5 5.41504 l 1
 108.5 552.429 l 1
128.5 572.43 m 1
 113.5 557.43 l 1
 113.5 5.36621 l 1
 128.5 5.21582 l 1
 128.5 572.43 l 1
145 588.93 m 1
 133.5 577.43 l 1
 133.5 5.16602 l 1
 145 5.05078 l 1
 145 250.001 l 1
 145 350.001 l 1
 145 500.001 l 1
 145 588.93 l 1
382.5 4.00098 m 1
 395 4.00098 l 1
 395 246.946 l 1
 382.5 259.7 l 1
 382.5 4.00098 l 1
362.5 4.00098 m 1
 377.5 4.00195 l 1
 377.5 264.803 l 1
 362.5 280.106 l 1
 362.5 4.00098 l 1
322.5 570.171 m 1
 322.5 278.839 l 1
 337.5 294.001 l 1
 337.5 555.021 l 1
 322.5 570.171 l 1
322.5 264.62 m 1
 322.5 4.00293 l 1
 337.5 4.00293 l 1
 337.5 279.771 l 1
 322.5 264.62 l 1
342.5 284.821 m 1
 342.5 4.00391 l 1
 357.5 4.00391 l 1
 357.5 285.211 l 1
 350.229 292.629 l 1
 346.468 288.848 l 1
 342.5 284.821 l 1
305 246.949 m 1
 305 4.00391 l 1
 317.5 4.00391 l 1
 317.5 259.572 l 1
 305 246.949 l 1
382.5 339.437 m 1
 395 352.062 l 1
 395 496.947 l 1
 382.5 509.572 l 1
 382.5 339.437 l 1
362.5 319.236 m 1
 377.5 334.386 l 1
 377.5 514.622 l 1
 362.5 529.772 l 1
 362.5 319.236 l 1
357.5 314.186 m 1
 357.5 534.821 l 1
 342.5 549.973 l 1
 342.5 299.057 l 1
 346.672 303.273 l 1
 357.5 314.186 l 1
305 350.004 m 1
 305 261.16 l 1
 317.5 273.787 l 1
 317.5 575.223 l 1
 305 587.848 l 1
 305 500.004 l 1
 305 350.004 l 1
295 355.004 m 1
 295 495.004 l 1
 155 495.004 l 1
 155 355.004 l 1
 295 355.004 l 1
295 345.004 m 1
 155 345.004 l 1
 155 255.004 l 1
 295 255.004 l 1
 295 345.004 l 1
295 595.004 m 1
 155 595.004 l 1
 155 505.004 l 1
 295 505.004 l 1
 295 595.004 l 1
405 350.004 m 1
 403.553 346.486 l 1
 357.265 299.735 l 1
 403.553 252.504 l 1
 405 249.004 l 1
 405 -0.996094 l 1
 400 -5.99609 l 1
 300 -5.99609 l 1
 295 -0.996094 l 1
 295 245.004 l 1
 155 245.004 l 1
 155 0.00390625 l 1
 149.95 -4.99609 l 1
 49.9502 -3.99609 l 1
 45 1.00391 l 1
 45 501.004 l 1
 46.4648 504.54 l 1
 146.464 604.54 l 1
 148.636 603.64 l 1
 150 605.004 l 1
 300 605.004 l 1
 302.086 602.918 l 1
 303.553 603.521 l 1
 403.553 502.521 l 1
 405 499.004 l 1
 405 350.004 l 1
EndSplineSet
EndChar

StartChar: S
Encoding: 83 83 42
Width: 450
VWidth: 960
GlyphClass: 2
Flags: W
HStem: -6 10<155.001 294.001> 95 10<155.001 294.001> 126 10<55 67.5 72.501 87.501 92.501 107.501 112.501 127.501 132.501 145.001> 242.874 10.128<155.593 294.592> 344.869 10<155.593 294.593> 464 10<304.465 316.965 321.965 336.965 341.965 356.965 361.965 376.965 381.965 394.465> 495 10<155.465 294.465> 596 10<155.465 294.465>
VStem: 45.4648 9.9991<102.057 126 350.927 497.943> 67.5 5.001<89.4316 126 337.292 511.579> 87.501 5<69.2324 126 317.092 531.778> 107.501 5<49.0322 126 296.892 551.978> 127.501 5.00001<28.832 126 276.689 572.177> 145.593 9.87199<11.1572 95 105 126 260.025 344.869 354.869 495 505 588.843> 294.592 10.001<11.1572 95 105 242.874 253.002 337.712 474 495 505 588.843> 317.093 5<29.8223 320.037 474 571.168> 337.093 5<50.0225 299.837 474 550.968> 357.5 4.59299<70.2217 279.637 473.999 530.767> 377.093 5<90.4219 259.438 474 510.568> 394 11.001<102.057 246.812 474 497.943>
LayerCount: 2
Fore
SplineSet
394.593 246.812 m 1
 382.093 259.438 l 1
 382.093 90.4219 l 1
 394 102.057 l 1
 394.593 246.812 l 1
155.593 253.002 m 1
 294.593 253.002 l 1
 294.593 344.869 l 1
 155.593 344.869 l 1
 155.593 253.002 l 1
317.093 24.7725 m 1
 317.093 325.087 l 1
 304.593 337.712 l 1
 304.593 11.1572 l 1
 317.093 24.7725 l 1
145.464 588.843 m 1
 133.964 577.228 l 1
 133.964 271.642 l 1
 145.593 260.025 l 1
 145.464 588.843 l 1
337.093 44.9717 m 1
 337.093 304.887 l 1
 322.093 320.037 l 1
 322.093 29.8223 l 1
 337.093 44.9717 l 1
357.5 65.1719 m 1
 357.5 113.445 357.093 244 357.093 284.688 c 1
 342.093 299.837 l 1
 342.093 50.0225 l 1
 357.5 65.1719 l 1
377.093 85.3721 m 1
 377.093 264.486 l 1
 362.093 279.637 l 1
 362.093 70.2217 l 1
 377.093 85.3721 l 1
128.964 572.177 m 1
 113.964 557.027 l 1
 113.964 291.84 l 1
 129.093 276.689 l 1
 128.964 572.177 l 1
108.964 551.978 m 1
 93.9639 536.828 l 1
 93.9639 312.041 l 1
 109.093 296.892 l 1
 108.964 551.978 l 1
88.9639 531.778 m 1
 73.9639 516.629 l 1
 73.9639 332.242 l 1
 89.0928 317.092 l 1
 88.9639 531.778 l 1
68.9639 511.579 m 1
 55.4639 497.943 l 1
 55.4639 350.927 l 1
 69.0928 337.292 l 1
 68.9639 511.579 l 1
55 102.057 m 1
 67.5 89.4316 l 1
 67.5 126 l 1
 55 126 l 1
 55 102.057 l 1
405 249 m 1
 405.001 100 l 1
 403.001 96 l 1
 302.537 -4.51758 l 1
 301.082 -3.91895 l 1
 299.001 -6 l 1
 150.001 -6 l 1
 147.915 -3.91406 l 1
 146.448 -4.51758 l 1
 46.4482 96.4824 l 1
 45.001 100 l 1
 45.001 131 l 1
 50.001 136 l 1
 150.001 136 l 1
 155.001 131 l 1
 155.001 105 l 1
 294.592 105 l 1
 294.592 242.874 l 1
 150.594 242.874 l 1
 148.513 244.95 l 1
 147.058 244.353 l 1
 47.0576 345.353 l 1
 45.4648 348.869 l 1
 45.4648 500 l 1
 46.9287 503.518 l 1
 146.929 604.518 l 1
 148.384 603.919 l 1
 150.465 606 l 1
 299.465 606 l 1
 301.551 603.914 l 1
 303.018 604.518 l 1
 403.001 504 l 1
 404.001 500 l 1
 404.001 469 l 1
 399.465 464 l 1
 299.465 464 l 1
 294.465 469 l 1
 294.465 495 l 1
 155.465 495 l 1
 155.465 354.869 l 1
 299.594 354.869 l 1
 301.68 352.783 l 1
 303.146 353.387 l 1
 403 252 l 1
 405 249 l 1
155.001 95 m 1
 155.001 4 l 1
 294.001 4 l 1
 294.001 95 l 1
 155.001 95 l 1
145.001 11.1572 m 1
 145.001 100 l 1
 145.001 126 l 1
 132.501 126 l 1
 132.501 23.7822 l 1
 145.001 11.1572 l 1
127.501 28.832 m 1
 127.501 126 l 1
 112.501 126 l 1
 112.501 43.9824 l 1
 127.501 28.832 l 1
107.501 49.0322 m 1
 107.501 126 l 1
 92.501 126 l 1
 92.501 64.1816 l 1
 107.501 49.0322 l 1
87.501 69.2324 m 1
 87.501 126 l 1
 72.501 126 l 1
 72.501 84.3818 l 1
 87.501 69.2324 l 1
394.465 497.943 m 1
 381.965 510.568 l 1
 381.965 474 l 1
 394.465 474 l 1
 394.465 497.943 l 1
294.465 505 m 1
 294.465 596 l 1
 155.465 596 l 1
 155.465 505 l 1
 294.465 505 l 1
304.465 588.843 m 1
 304.465 500 l 1
 304.465 474 l 1
 316.965 474 l 1
 316.965 576.218 l 1
 304.465 588.843 l 1
321.965 571.168 m 1
 321.965 474 l 1
 336.965 474 l 1
 336.965 556.018 l 1
 321.965 571.168 l 1
341.965 550.968 m 1
 341.965 473.999 l 1
 356.965 473.999 l 1
 356.965 535.817 l 1
 341.965 550.968 l 1
361.965 530.767 m 1
 361.965 473.998 l 1
 376.965 473.998 l 1
 376.965 515.616 l 1
 361.965 530.767 l 1
EndSplineSet
EndChar

StartChar: T
Encoding: 84 84 43
Width: 450
VWidth: 960
GlyphClass: 2
Flags: W
HStem: -5 10<181 192.5 197.5 212.5 217.5 232.5 237.5 252.5 257.5 271> 463 10.001<4 16.5 21.5 36.5 41.5 56.5 61.5 76.5 81.5 94 354 366.5 371.5 386.5 391.5 406.5 411.5 426.5 431.5 444> 495 10.002<104 171 181 192.5 197.5 212.5 217.5 232.5 237.5 252.5 257.5 271 281 344> 595.002 9.99799<104 344>
VStem: -6 10<473.002 496.945> 16.5 5<473.002 509.57> 36.5 5<473.001 529.77> 56.5 5<473 549.97> 76.5 5<473 570.169> 94 10<473 495 505.002 587.844> 171 10<5 495> 192.5 5<5 495> 212.5 5<5 495> 232.5 5<5 495> 252.5 5<5 495> 271 10<5 495> 344 10<473.002 495 505.002 587.846> 366.5 5<473.002 570.171> 386.5 5<473.002 549.971> 406.5 5<473.001 529.769> 426.5 5<473 509.568> 444 10<473 496.943>
LayerCount: 2
Fore
SplineSet
104 495 m 1
 104 468 l 1
 99 463 l 1
 -1 463 l 1
 -6 468 l 1
 -6 499 l 1
 -4.55273 502.518 l 1
 95.4473 603.518 l 1
 96.9141 602.914 l 1
 99 605 l 1
 349 605 l 1
 351.086 602.914 l 1
 352.553 603.518 l 1
 452.553 502.518 l 1
 454 499 l 1
 454 468 l 1
 449 463 l 1
 349 463 l 1
 344 468 l 1
 344 495 l 1
 281 495 l 1
 281 0 l 1
 276 -5 l 1
 176 -5 l 1
 171 0 l 1
 171 495 l 1
 104 495 l 1
94 473 m 1
 94 587.844 l 1
 81.5 575.219 l 1
 81.5 473 l 1
 94 473 l 1
76.5 473 m 1
 76.5 570.169 l 1
 61.5 555.018 l 1
 61.5 473 l 1
 76.5 473 l 1
56.5 473 m 1
 56.5 549.97 l 1
 41.5 534.818 l 1
 41.5 473 l 1
 56.5 473 l 1
36.5 473.001 m 1
 36.5 529.77 l 1
 21.5 514.619 l 1
 21.5 473.001 l 1
 36.5 473.001 l 1
16.5 473.002 m 1
 16.5 509.57 l 1
 4 496.945 l 1
 4 473.002 l 1
 16.5 473.002 l 1
104 595.002 m 1
 104 505.002 l 1
 344 505.002 l 1
 344 595.002 l 1
 104 595.002 l 1
354 500.002 m 1
 354 473.002 l 1
 366.5 473.002 l 1
 366.5 575.221 l 1
 354 587.846 l 1
 354 500.002 l 1
371.5 473.002 m 1
 386.5 473.002 l 1
 386.5 555.02 l 1
 371.5 570.171 l 1
 371.5 473.002 l 1
391.5 473.002 m 1
 406.5 473.001 l 1
 406.5 534.819 l 1
 391.5 549.971 l 1
 391.5 473.002 l 1
411.5 473.001 m 1
 426.5 473 l 1
 426.5 514.618 l 1
 411.5 529.769 l 1
 411.5 473.001 l 1
431.5 473 m 1
 444 473 l 1
 444 496.943 l 1
 431.5 509.568 l 1
 431.5 473 l 1
181 495 m 1
 181 5 l 1
 192.5 5 l 1
 192.5 495 l 1
 181 495 l 1
197.5 495 m 1
 197.5 5 l 1
 212.5 5 l 1
 212.5 495 l 1
 197.5 495 l 1
217.5 495 m 1
 217.5 5 l 1
 232.5 5 l 1
 232.5 495 l 1
 217.5 495 l 1
237.5 495 m 1
 237.5 5 l 1
 252.5 5 l 1
 252.5 495 l 1
 237.5 495 l 1
257.5 495 m 1
 257.5 5 l 1
 271 5 l 1
 271 495 l 1
 257.5 495 l 1
EndSplineSet
EndChar

StartChar: U
Encoding: 85 85 44
Width: 450
VWidth: 960
GlyphClass: 2
Flags: W
HStem: -6 10<155 309> 95 10<155 309> 595 10<55 66.5 71.5 86.5 91.5 106.5 111.5 126.5 131.5 145 319 332.5 337.5 352.5 357.5 372.5 377.5 392.5 397.5 409>
VStem: 45 10<102.057 595> 66.5 5<90.4414 594.999> 86.5 5<70.2412 594.999> 106.5 5<50.042 595> 126.5 5<29.8418 595> 145 10<11.1562 95 105 595> 309 10<11.1562 95 105 595> 332.5 5<29.8418 595> 352.5 5<50.042 595> 372.5 5<70.2412 595> 392.5 5<90.4414 595> 409 10<102.057 595>
LayerCount: 2
Fore
SplineSet
150 -6 m 1
 147.914 -3.91406 l 1
 146.447 -4.51758 l 1
 46.4473 96.4824 l 1
 45 100 l 1
 45 600 l 1
 50 605 l 1
 150 605 l 1
 155 600 l 1
 155 105 l 1
 294 105 l 1
 309 105 l 1
 309 600 l 1
 314 605 l 1
 414 605 l 1
 419 600 l 1
 419 100 l 1
 417.553 96.4824 l 1
 317.553 -4.51758 l 1
 316.553 -5.51758 l 1
 150 -6 l 1
409 102.057 m 1
 409 595 l 1
 397.5 595 l 1
 397.5 90.4414 l 1
 409 102.057 l 1
332.5 24.792 m 1
 332.5 595 l 1
 319 595 l 1
 319 100 l 1
 319 11.1562 l 1
 332.5 24.792 l 1
337.5 29.8418 m 1
 352.5 44.9912 l 1
 352.5 595 l 1
 337.5 595 l 1
 337.5 29.8418 l 1
357.5 50.042 m 1
 372.5 65.1914 l 1
 372.5 595 l 1
 357.5 595 l 1
 357.5 50.042 l 1
377.5 70.2412 m 1
 392.5 85.3916 l 1
 392.5 595 l 1
 377.5 595 l 1
 377.5 70.2412 l 1
55 102.057 m 1
 66.5 90.4414 l 1
 66.5 595 l 1
 55 595 l 1
 55 102.057 l 1
309 95 m 1
 155 95 l 1
 155 4 l 1
 309 4 l 1
 309 95 l 1
131.5 24.792 m 1
 145 11.1562 l 1
 145 100 l 1
 145 595 l 1
 131.5 595 l 1
 131.5 24.792 l 1
126.5 29.8418 m 1
 126.5 595 l 1
 111.5 595 l 1
 111.5 44.9912 l 1
 126.5 29.8418 l 1
106.5 50.042 m 1
 106.5 595 l 1
 91.5 595 l 1
 91.5 65.1914 l 1
 106.5 50.042 l 1
86.5 70.2412 m 1
 86.5 594.999 l 1
 71.5 594.999 l 1
 71.5 85.3906 l 1
 73.9824 80.3408 79.2334 75.291 86.5 70.2412 c 1
EndSplineSet
EndChar

StartChar: V
Encoding: 86 86 45
Width: 450
VWidth: 960
GlyphClass: 2
Flags: W
HStem: -5 10.001<180.325 192.337 197.56 213.228 218.451 234.118 239.341 255.872 261.096 272.676> 584.787 20G<32.2822 104.79 351.212 423.719>
LayerCount: 2
Fore
SplineSet
176.611 -5 m 1
 171.824 -1.44434 l 1
 -0.521484 569.665 l 1
 2.82031 575.896 l 1
 98.5557 604.787 l 1
 104.79 601.432 l 1
 227.671 190.427 l 1
 351.212 601.432 l 1
 357.445 604.787 l 1
 453.181 575.896 l 1
 456.522 569.665 l 1
 284.176 -1.44434 l 1
 282.427 -0.918945 l 1
 279.39 -5 l 1
 176.611 -5 l 1
272.676 5 m 1
 96.6455 593.766 l 1
 83.7402 589.87 l 1
 261.096 5 l 1
 272.676 5 l 1
445.504 567.768 m 1
 359.348 593.766 l 1
 233.043 173.562 l 1
 232.681 173.671 l 1
 279.411 17.3691 l 1
 445.504 567.768 l 1
255.872 5.00098 m 1
 78.9531 588.427 l 1
 64.5859 584.091 l 1
 239.341 5.00098 l 1
 255.872 5.00098 l 1
234.118 5.00098 m 1
 59.7988 582.646 l 1
 45.4395 578.312 l 1
 218.451 5.00098 l 1
 234.118 5.00098 l 1
213.228 5 m 1
 40.6523 576.868 l 1
 26.292 572.534 l 1
 197.56 5 l 1
 213.228 5 l 1
192.337 5 m 1
 21.5107 571.091 l 1
 10.4961 567.767 l 1
 180.325 5 l 1
 192.337 5 l 1
EndSplineSet
EndChar

StartChar: W
Encoding: 87 87 46
Width: 750
VWidth: 960
GlyphClass: 2
Flags: W
HStem: -5 10<180.325 192.337 197.56 213.228 218.451 234.118 239.341 255.872 261.097 272.677 481.325 493.337 498.56 514.228 519.45 535.117 540.341 556.872 562.095 573.675> 495.999 10.001<333.154 345.165 350.388 366.057 371.278 386.946 392.17 407.981 413.203 426.854> 584.787 20G<32.2831 104.791 652.213 724.72>
LayerCount: 2
Fore
SplineSet
176.611 -5 m 1
 171.825 -1.44434 l 1
 -0.520508 569.665 l 1
 2.82129 575.896 l 1
 98.5566 604.787 l 1
 104.791 601.433 l 1
 227.672 190.427 l 1
 321.456 502.433 l 1
 323.35 501.863 l 1
 326.423 506 l 1
 430.579 506 l 1
 435.37 502.432 l 1
 528.668 190.414 l 1
 652.213 601.432 l 1
 658.446 604.787 l 1
 754.182 575.896 l 1
 757.523 569.665 l 1
 585.177 -1.44434 l 1
 583.428 -0.918945 l 1
 580.391 -5 l 1
 477.612 -5 l 1
 472.826 -1.44434 l 1
 378.623 310.713 l 1
 284.175 -1.44434 l 1
 282.426 -0.918945 l 1
 279.39 -5 l 1
 176.611 -5 l 1
272.677 5 m 1
 96.6465 593.766 l 1
 83.7412 589.87 l 1
 261.097 5 l 1
 272.677 5 l 1
333.154 496.001 m 1
 383.415 329.446 l 1
 481.325 5.00098 l 1
 493.337 5.00098 l 1
 345.165 496.001 l 1
 333.154 496.001 l 1
746.504 567.768 m 1
 660.348 593.766 l 1
 534.043 173.562 l 1
 533.673 173.673 l 1
 580.411 17.3682 l 1
 746.504 567.768 l 1
255.872 5.00098 m 1
 78.9531 588.427 l 1
 64.5859 584.091 l 1
 239.341 5.00098 l 1
 255.872 5.00098 l 1
234.118 5.00098 m 1
 59.7988 582.646 l 1
 45.4395 578.312 l 1
 218.451 5.00098 l 1
 234.118 5.00098 l 1
213.228 5 m 1
 40.6523 576.868 l 1
 26.292 572.534 l 1
 197.56 5 l 1
 213.228 5 l 1
192.337 5 m 1
 21.5107 571.091 l 1
 10.4961 567.767 l 1
 180.325 5 l 1
 192.337 5 l 1
232.68 173.67 m 1
 279.416 17.3438 l 1
 373.404 327.999 l 1
 326.342 483.955 l 1
 233.043 173.561 l 1
 232.68 173.67 l 1
413.203 495.999 m 1
 562.095 4.99902 l 1
 573.675 4.99902 l 1
 426.854 495.999 l 1
 413.203 495.999 l 1
407.981 495.999 m 1
 392.17 495.999 l 1
 540.341 4.99902 l 1
 556.872 4.99902 l 1
 407.981 495.999 l 1
386.946 495.999 m 1
 371.278 495.999 l 1
 519.45 4.99902 l 1
 535.117 4.99902 l 1
 386.946 495.999 l 1
366.057 495.999 m 1
 350.388 495.999 l 1
 498.56 4.99902 l 1
 514.228 4.99902 l 1
 366.057 495.999 l 1
EndSplineSet
EndChar

StartChar: X
Encoding: 88 88 47
Width: 450
VWidth: 960
GlyphClass: 2
Flags: W
HStem: -5.80664 21G<69.948 111.481 336.527 378.054> 584.298 20G<63.7625 104.299 343.704 384.238>
LayerCount: 2
Fore
SplineSet
9.71582 546.392 m 1
 11.4619 553.245 l 1
 97.4473 604.298 l 1
 104.299 602.552 l 1
 223.804 401.277 l 1
 343.704 602.552 l 1
 350.553 604.298 l 1
 436.538 553.245 l 1
 438.284 546.392 l 1
 287.917 293.298 l 1
 431.792 50.9785 l 1
 429.988 44.0996 l 1
 343.322 -5.80664 l 1
 336.527 -4.02637 l 1
 223.595 186.177 l 1
 111.481 -4.02637 l 1
 104.68 -5.80664 l 1
 18.0127 44.0996 l 1
 16.2051 50.9785 l 1
 159.8 293.618 l 1
 9.71582 546.392 l 1
27.3867 50.2363 m 1
 105.381 5.32031 l 1
 217.77 195.985 l 1
 165.619 283.817 l 1
 27.3867 50.2363 l 1
427.133 547.199 m 1
 349.74 593.147 l 1
 229.614 391.492 l 1
 282.104 303.089 l 1
 427.133 547.199 l 1
86.6455 586.255 m 1
 408.906 43.498 l 1
 420.605 50.2354 l 1
 98.2529 593.146 l 1
 86.6455 586.255 l 1
82.3447 583.701 m 1
 69.4482 576.044 l 1
 391.684 33.5811 l 1
 404.572 41.0029 l 1
 82.3447 583.701 l 1
65.1484 573.491 m 1
 52.2461 565.83 l 1
 373.779 23.2715 l 1
 387.351 31.0859 l 1
 65.1484 573.491 l 1
47.9463 563.278 m 1
 35.0488 555.62 l 1
 356.533 13.3398 l 1
 369.446 20.7754 l 1
 47.9463 563.278 l 1
30.75 553.067 m 1
 20.8652 547.198 l 1
 342.605 5.31934 l 1
 352.201 10.8457 l 1
 30.75 553.067 l 1
EndSplineSet
EndChar

StartChar: Y
Encoding: 89 89 48
Width: 450
VWidth: 960
GlyphClass: 2
Flags: W
HStem: -7.04102 10.0371<48.002 169.385> 92.9229 10.0091<47.999 198.636 209.087 293.663> 586.472 20G<73.4222 107.912 351.219 423.72>
VStem: 37.999 10.001<2.99609 14.4385 19.4385 34.4346 39.4346 54.4287 59.4287 74.4287 79.4326 92.9229>
LayerCount: 2
Fore
SplineSet
445.504 567.767 m 1
 359.325 593.773 l 1
 249.545 234.895 l 1
 249.968 234.303 l 1
 249.194 233.752 l 1
 209.087 102.639 l 1
 305.097 102.469 l 1
 445.504 567.767 l 1
173.9 -5.07324 m 1
 171.04 -6 l 1
 43.04 -7.04102 l 1
 37.999 -2.04102 l 1
 37.999 97.9316 l 1
 43.002 102.932 l 1
 198.636 102.656 l 1
 238.538 233.1 l 1
 18.9238 540.655 l 1
 20.0498 547.603 l 1
 100.885 606.472 l 1
 107.912 605.314 l 1
 278.514 363.786 l 1
 351.219 601.462 l 1
 357.444 604.786 l 1
 453.18 575.896 l 1
 456.521 569.663 l 1
 313.461 95.6006 l 1
 311.251 96.2617 l 1
 312.166 93.3887 l 1
 173.9 -5.07324 l 1
293.663 92.4893 m 1
 47.999 92.9229 l 1
 47.999 79.4326 l 1
 275.007 79.2041 l 1
 293.663 92.4893 l 1
91.7773 587.47 m 1
 270.374 337.18 l 1
 274.813 351.691 l 1
 102.67 595.402 l 1
 91.7773 587.47 l 1
87.7344 584.525 m 1
 75.6064 575.692 l 1
 262.89 312.711 l 1
 268.53 331.154 l 1
 87.7344 584.525 l 1
71.5645 572.749 m 1
 59.4414 563.919 l 1
 255.571 288.785 l 1
 261.045 306.681 l 1
 71.5645 572.749 l 1
55.3994 560.975 m 1
 43.2764 552.146 l 1
 248.254 264.861 l 1
 253.729 282.758 l 1
 55.3994 560.975 l 1
39.2344 549.201 m 1
 29.9404 542.433 l 1
 242.223 245.144 l 1
 246.411 258.836 l 1
 39.2344 549.201 l 1
267.997 74.208 m 1
 48 74.4287 l 1
 48 59.4287 l 1
 246.68 59.0273 l 1
 267.997 74.208 l 1
239.678 54.042 m 1
 48 54.4287 l 1
 48 39.4346 l 1
 218.701 39.1035 l 1
 239.678 54.042 l 1
211.699 34.1172 m 1
 48.001 34.4346 l 1
 48.001 19.4385 l 1
 190.644 19.123 l 1
 211.699 34.1172 l 1
183.646 14.1387 m 1
 48.002 14.4385 l 1
 48.002 2.99609 l 1
 169.385 3.9834 l 1
 183.646 14.1387 l 1
EndSplineSet
EndChar

StartChar: Z
Encoding: 90 90 49
Width: 450
VWidth: 960
GlyphClass: 2
Flags: W
HStem: -5 10<55.0586 437.839> 18.5 5<48.1738 419.154> 38.5 5<37.9736 398.954> 58.5 5<27.7734 378.754> 78.5 5<17.5732 358.554> 95 10<11.2959 127.131 139.923 346.938> 497 10<110.038 307.199 319.923 439.621> 518.5 5<98.3057 433.378> 539.481 5.00897<76.9014 422.966> 559.492 5.00397<56.4883 412.563> 579.492 5.005<36.084 402.329> 596 10<19.2432 396.276>
LayerCount: 2
Fore
SplineSet
3.5 597.429 m 1
 7 606 l 1
 399.335 606 l 1
 403.786 603.285 l 1
 454.451 504.278 l 1
 452.697 501.41 l 1
 453.915 498.887 l 1
 139.923 105 l 1
 349 105 l 1
 352.518 103.553 l 1
 453.518 3.55273 l 1
 450 -5 l 1
 52 -5 l 1
 47.5459 -2.27148 l 1
 -3.4541 97.7285 l 1
 -1.70801 100.579 l 1
 -2.92871 103.093 l 1
 307.199 497 l 1
 108 497 l 1
 104.5 498.429 l 1
 3.5 597.429 l 1
30.9795 584.497 m 1
 402.329 584.173 l 1
 396.276 596 l 1
 19.2432 596 l 1
 30.9795 584.497 l 1
36.084 579.492 m 1
 51.3828 564.496 l 1
 412.563 564.174 l 1
 404.889 579.171 l 1
 36.084 579.492 l 1
56.4883 559.492 m 1
 71.791 544.49 l 1
 422.966 543.847 l 1
 415.123 559.172 l 1
 56.4883 559.492 l 1
76.9014 539.481 m 1
 93.2051 523.5 l 1
 433.378 523.5 l 1
 425.526 538.842 l 1
 76.9014 539.481 l 1
98.3057 518.5 m 1
 110.038 507 l 1
 317.496 507 l 1
 441.821 507 l 1
 435.937 518.5 l 1
 98.3057 518.5 l 1
424.204 18.5 m 1
 48.1738 18.5 l 1
 55.0586 5 l 1
 437.839 5 l 1
 424.204 18.5 l 1
419.154 23.5 m 1
 404.004 38.5 l 1
 37.9736 38.5 l 1
 45.624 23.5 l 1
 419.154 23.5 l 1
398.954 43.5 m 1
 383.804 58.5 l 1
 27.7734 58.5 l 1
 35.4238 43.5 l 1
 398.954 43.5 l 1
378.754 63.5 m 1
 363.604 78.5 l 1
 17.5732 78.5 l 1
 25.2236 63.5 l 1
 378.754 63.5 l 1
358.554 83.5 m 1
 346.938 95 l 1
 129.538 95 l 1
 9.1582 95 l 1
 15.0234 83.5 l 1
 358.554 83.5 l 1
127.131 105 m 1
 439.621 497 l 1
 319.923 497 l 1
 11.2959 105 l 1
 127.131 105 l 1
EndSplineSet
EndChar

StartChar: backslash
Encoding: 92 92 50
Width: 400
VWidth: 960
GlyphClass: 2
Flags: W
LayerCount: 2
Fore
SplineSet
373.664 -82.9805 m 1
 370.799 -89.4434 l 1
 323.217 -107.797 l 1
 316.752 -104.932 l 1
 26.3359 648.001 l 1
 29.2012 654.466 l 1
 76.7832 672.818 l 1
 83.248 669.952 l 1
 373.664 -82.9805 l 1
75.7168 661.689 m 1
 37.4648 646.935 l 1
 324.283 -96.668 l 1
 362.535 -81.9131 l 1
 75.7168 661.689 l 1
EndSplineSet
EndChar

StartChar: underscore
Encoding: 95 95 51
Width: 300
VWidth: 960
GlyphClass: 2
Flags: W
HStem: -106 10<0 297> -55 10<0 297>
VStem: -10 10<-96 -55> 297 10<-96 -55>
LayerCount: 2
Fore
SplineSet
302 -45 m 1
 307 -50 l 1
 307 -101 l 1
 302 -106 l 1
 -5 -106 l 1
 -10 -101 l 1
 -10 -50 l 1
 -5 -45 l 1
 302 -45 l 1
0 -55 m 1
 0 -96 l 1
 297 -96 l 1
 297 -55 l 1
 0 -55 l 1
EndSplineSet
EndChar

StartChar: grave
Encoding: 96 96 52
Width: 300
VWidth: 960
GlyphClass: 2
Flags: W
HStem: 508.088 226.462
VStem: 256.433 10.342<516.12 529.029 534.641 551.478 557.09 573.927 579.538 596.375 601.985 617.14>
LayerCount: 2
Fore
SplineSet
150.615 557.336 m 1
 82.0254 591.201 l 1
 79.5137 594.058 l 1
 33.2246 728.438 l 1
 40.166 734.55 l 1
 262.535 624.752 l 1
 265.32 620.333 l 1
 266.775 508.088 l 1
 264.291 506.521 l 1
 251.525 507.509 l 1
 150.615 557.336 l 1
52.8887 702.059 m 1
 255.56 601.985 l 1
 255.361 617.14 l 1
 46.6387 720.198 l 1
 52.8887 702.059 l 1
55.2021 695.34 m 1
 62.1475 675.184 l 1
 255.851 579.538 l 1
 255.632 596.375 l 1
 55.2021 695.34 l 1
64.46 668.465 m 1
 71.4033 648.307 l 1
 256.142 557.09 l 1
 255.923 573.927 l 1
 64.46 668.465 l 1
73.7178 641.588 m 1
 80.6611 621.431 l 1
 256.433 534.641 l 1
 256.214 551.478 l 1
 73.7178 641.588 l 1
82.9756 614.711 m 1
 88.2998 599.258 l 1
 163.079 562.333 l 1
 256.673 516.12 l 1
 256.505 529.029 l 1
 82.9756 614.711 l 1
EndSplineSet
EndChar

StartChar: a
Encoding: 97 97 53
Width: 400
VWidth: 960
GlyphClass: 2
Flags: W
HStem: -5 10<155 244> 96 10<155 244> 225 10<155 238.013> 364 10.001<55 67.5 72.5 87.5 92.5 107.5 112.5 127.5 132.5 145> 395 10<155 244> 496 10<155 244>
VStem: 45 10<102.071 227.943 374 397.943> 67.5 5<89.5713 240.568 374.001 410.568> 87.5 5<69.5742 260.771 374.001 430.769> 107.5 5<49.5732 280.97 374 450.968> 127.5 5<29.5732 301.17 374 471.168> 145 10<12.0713 96 106 225 235 318.843 374 395 405 488.843> 244 10<12.0713 96 106 225 243.167 395 405 488.843> 265.5 5<28.5752 472.182> 285.5 5<48.5742 451.98> 305.5 5<68.5732 431.78> 325.5 5<88.5732 411.58> 344 10<102.073 397.945>
LayerCount: 2
Fore
SplineSet
55 397.943 m 1
 55 374 l 1
 67.5 374 l 1
 67.5 410.568 l 1
 55 397.943 l 1
354 100 m 1
 352.536 96.4648 l 1
 252.536 -3.53516 l 1
 251.071 -2.92871 l 1
 249 -5 l 1
 150 -5 l 1
 147.925 -2.9248 l 1
 146.447 -3.53516 l 1
 46.4473 96.4648 l 1
 45 100 l 1
 45 230 l 1
 46.4473 233.518 l 1
 146.447 334.518 l 1
 150 333.057 l 1
 153.553 334.518 l 1
 244 243.167 l 1
 244 395 l 1
 155 395 l 1
 155 369 l 1
 150 364 l 1
 50 364 l 1
 45 369 l 1
 45 400 l 1
 46.4473 403.518 l 1
 146.447 504.518 l 1
 147.914 503.914 l 1
 150 506 l 1
 249 506 l 1
 251.081 503.919 l 1
 252.536 504.518 l 1
 352.536 403.518 l 1
 354 400 l 1
 354 100 l 1
55 227.943 m 1
 55 102.071 l 1
 67.5 89.5713 l 1
 67.5 240.568 l 1
 55 227.943 l 1
155 405 m 1
 244 405 l 1
 244 496 l 1
 155 496 l 1
 155 405 l 1
145 488.843 m 1
 132.5 476.218 l 1
 132.5 374 l 1
 145 374 l 1
 145 400 l 1
 145 488.843 l 1
254 400 m 1
 254 101 l 1
 254 12.0713 l 1
 265.5 23.5713 l 1
 265.5 477.228 l 1
 254 488.843 l 1
 254 400 l 1
244 96 m 1
 155 96 l 1
 155 5 l 1
 244 5 l 1
 244 96 l 1
244 106 m 1
 244 225 l 1
 155 225 l 1
 155 106 l 1
 244 106 l 1
145 101 m 1
 145 230 l 1
 145 318.843 l 1
 132.5 306.218 l 1
 132.5 24.5713 l 1
 145 12.0713 l 1
 145 101 l 1
155 235 m 1
 238.013 235 l 1
 155 318.843 l 1
 155 235 l 1
127.5 471.168 m 1
 112.5 456.018 l 1
 112.5 374 l 1
 127.5 374 l 1
 127.5 471.168 l 1
107.5 450.968 m 1
 92.5 435.818 l 1
 92.5 374 l 1
 107.5 374 l 1
 107.5 450.968 l 1
87.5 430.769 m 1
 72.5 415.619 l 1
 72.5 374.001 l 1
 87.5 374.001 l 1
 87.5 430.769 l 1
127.5 301.17 m 1
 112.5 286.02 l 1
 112.5 44.5732 l 1
 127.5 29.5732 l 1
 127.5 301.17 l 1
107.5 280.97 m 1
 92.5 265.82 l 1
 92.5 64.5732 l 1
 107.5 49.5732 l 1
 107.5 280.97 l 1
87.5 260.771 m 1
 72.5 245.621 l 1
 72.5 84.5742 l 1
 87.5 69.5742 l 1
 87.5 260.771 l 1
270.5 28.5752 m 1
 285.5 43.5742 l 1
 285.5 457.031 l 1
 270.5 472.182 l 1
 270.5 28.5752 l 1
290.5 48.5742 m 1
 305.5 63.5732 l 1
 305.5 436.83 l 1
 290.5 451.98 l 1
 290.5 48.5742 l 1
310.5 68.5732 m 1
 325.5 83.5732 l 1
 325.5 416.63 l 1
 310.5 431.78 l 1
 310.5 68.5732 l 1
330.5 88.5732 m 1
 344 102.073 l 1
 344 397.945 l 1
 330.5 411.58 l 1
 330.5 88.5732 l 1
EndSplineSet
EndChar

StartChar: b
Encoding: 98 98 54
Width: 400
VWidth: 960
GlyphClass: 2
Flags: W
HStem: -5 10<155.001 244.001> 96 10<155.001 244.001> 395 10<161.903 244.001> 484.5 20G<225.826 248.99 248.99 272.338> 714.518 20G<126.632 155.001>
VStem: 45.001 10<105 627.944> 67.501 5<90 640.569> 87.501 5<71.001 660.77> 107.501 5<51 680.969> 127.501 5.00001<30 701.169> 145.001 10<11 96 106 395 412.244 718.844> 244.001 10<12.0713 96 106 395 405 488.756> 270.501 5<33.5732 467.13> 290.501 5<53.5732 446.93> 310.501 5<73.5723 426.729> 330.501 5<93.5713 406.528> 344.001 9.99899<102.071 397.943>
LayerCount: 2
Fore
SplineSet
354 100 m 1
 352.537 96.4648 l 1
 252.537 -3.53516 l 1
 251.072 -2.92871 l 1
 249.001 -5 l 1
 150.001 -5 l 1
 50.001 95 l 1
 45.001 100 l 1
 45.001 630 l 1
 46.4482 633.518 l 1
 146.431 734.518 l 1
 155.001 731 l 1
 155.001 412.244 l 1
 245.43 504.5 l 1
 248.99 503.046 l 1
 252.536 504.5 l 1
 352.536 403.5 l 1
 354 400 l 1
 354 100 l 1
55.001 627.944 m 1
 55.001 105 l 1
 67.501 90 l 1
 67.501 640.569 l 1
 55.001 627.944 l 1
244.001 405 m 1
 244.001 488.756 l 1
 161.903 405 l 1
 244.001 405 l 1
244.001 395 m 1
 155.001 395 l 1
 155.001 106 l 1
 244.001 106 l 1
 244.001 395 l 1
254.001 400 m 1
 254.001 101 l 1
 254.001 12.0713 l 1
 270.501 28.5713 l 1
 270.501 472.178 l 1
 254.001 488.843 l 1
 254.001 400 l 1
244.001 96 m 1
 155.001 96 l 1
 155.001 5 l 1
 244.001 5 l 1
 244.001 96 l 1
132.501 706.219 m 1
 132.501 25 l 1
 145.001 11 l 1
 145.001 101 l 1
 145.001 718.844 l 1
 132.501 706.219 l 1
127.501 701.169 m 1
 112.501 686.018 l 1
 112.501 47 l 1
 127.501 30 l 1
 127.501 701.169 l 1
107.501 680.969 m 1
 92.501 665.819 l 1
 92.501 68 l 1
 107.501 51 l 1
 107.501 680.969 l 1
87.501 660.77 m 1
 72.501 645.62 l 1
 72.501 87.001 l 1
 87.501 71.001 l 1
 87.501 660.77 l 1
275.501 33.5732 m 1
 290.501 48.5732 l 1
 290.501 451.979 l 1
 275.501 467.13 l 1
 275.501 33.5732 l 1
295.501 53.5732 m 1
 310.501 68.5723 l 1
 310.501 431.779 l 1
 295.501 446.93 l 1
 295.501 53.5732 l 1
315.501 73.5723 m 1
 330.501 88.5713 l 1
 330.501 411.578 l 1
 315.501 426.729 l 1
 315.501 73.5723 l 1
335.501 93.5713 m 1
 344.001 102.071 l 1
 344.001 397.943 l 1
 335.501 406.528 l 1
 335.501 93.5713 l 1
EndSplineSet
EndChar

StartChar: c
Encoding: 99 99 55
Width: 400
VWidth: 960
GlyphClass: 2
Flags: W
HStem: -5 10<155 244> 96 10<155 244> 127.001 9.999<254 266.5 271.5 286.5 291.5 306.5 311.5 326.5 331.5 344> 360 10.002<254 266.5 271.5 286.5 291.5 306.5 311.5 326.5 331.5 344> 395 10.001<155 244> 496.001 9.99899<155 244>
VStem: 45 10<103.057 398.93> 68.5 5<89.4219 412.43> 88.5 5<69.2217 432.43> 108.5 5<49.0225 452.431> 128.5 5<28.8232 472.431> 145 10<12.1562 96 106 395 405.001 488.93> 244 10<12.1562 96 106 127 370.001 395 405.001 488.93> 266.5 5<29.832 127 370.002 471.431> 286.5 5<50.0322 127.001 370.002 451.431> 306.5 5<70.2314 127.001 370.002 431.431> 326.5 5<90.4307 127 370.002 411.429> 344 10<103.056 127 370 398.929>
LayerCount: 2
Fore
SplineSet
344 103.056 m 1
 344 127 l 1
 331.5 127 l 1
 331.5 90.4307 l 1
 344 103.056 l 1
45 401 m 1
 46.4473 404.536 l 1
 146.447 504.536 l 1
 147.925 503.925 l 1
 150 506 l 1
 249 506 l 1
 251.071 503.929 l 1
 252.536 504.536 l 1
 352.536 404.536 l 1
 354 401 l 1
 354 365 l 1
 349 360 l 1
 249 360 l 1
 244 365 l 1
 244 395 l 1
 155 395 l 1
 155 106 l 1
 244 106 l 1
 244 132 l 1
 249 137 l 1
 349 137 l 1
 354 132 l 1
 354 101 l 1
 352.536 97.4824 l 1
 252.536 -3.51758 l 1
 251.082 -2.91797 l 1
 249 -5 l 1
 150 -5 l 1
 147.914 -2.91406 l 1
 146.447 -3.51758 l 1
 46.4473 97.4824 l 1
 45 101 l 1
 45 401 l 1
344 370 m 1
 344 398.929 l 1
 331.5 411.429 l 1
 331.5 370 l 1
 344 370 l 1
244 96 m 1
 155 96 l 1
 155 5 l 1
 244 5 l 1
 244 96 l 1
254 12.1562 m 1
 266.5 24.7812 l 1
 266.5 127 l 1
 254 127 l 1
 254 101 l 1
 254 12.1562 l 1
145 101 m 1
 145 400.001 l 1
 145 488.93 l 1
 133.5 477.43 l 1
 133.5 23.7715 l 1
 145 12.1562 l 1
 145 101 l 1
155 405.001 m 1
 244 405.001 l 1
 244 496.001 l 1
 155 496.001 l 1
 155 405.001 l 1
254 400.001 m 1
 254 370.001 l 1
 266.5 370.001 l 1
 266.5 476.43 l 1
 254 488.93 l 1
 254 400.001 l 1
271.5 29.832 m 1
 286.5 44.9824 l 1
 286.5 127.001 l 1
 271.5 127.001 l 1
 271.5 29.832 l 1
291.5 50.0322 m 1
 306.5 65.1816 l 1
 306.5 127.001 l 1
 291.5 127.001 l 1
 291.5 50.0322 l 1
311.5 70.2314 m 1
 326.5 85.3818 l 1
 326.5 127.001 l 1
 311.5 127.001 l 1
 311.5 70.2314 l 1
271.5 370.002 m 1
 286.5 370.002 l 1
 286.5 456.431 l 1
 271.5 471.431 l 1
 271.5 370.002 l 1
291.5 370.002 m 1
 306.5 370.002 l 1
 306.5 436.431 l 1
 291.5 451.431 l 1
 291.5 370.002 l 1
311.5 370.002 m 1
 326.5 370.002 l 1
 326.5 416.431 l 1
 311.5 431.431 l 1
 311.5 370.002 l 1
128.5 472.431 m 1
 113.5 457.431 l 1
 113.5 43.9727 l 1
 128.5 28.8232 l 1
 128.5 472.431 l 1
108.5 452.431 m 1
 93.5 437.43 l 1
 93.5 64.1719 l 1
 108.5 49.0225 l 1
 108.5 452.431 l 1
88.5 432.43 m 1
 73.5 417.43 l 1
 73.5 84.3711 l 1
 88.5 69.2217 l 1
 88.5 432.43 l 1
68.5 412.43 m 1
 55 398.93 l 1
 55 103.057 l 1
 68.5 89.4219 l 1
 68.5 412.43 l 1
EndSplineSet
EndChar

StartChar: d
Encoding: 100 100 56
Width: 400
VWidth: 960
GlyphClass: 2
Flags: W
HStem: -5 9.99902<155 244> 95.999 10<155 244> 398.999 10<155 238.013>
VStem: 45 10<102.071 401.943> 67.5 5<89.5713 414.568> 87.5 5<69.5713 434.768> 107.5 5<49.5703 454.967> 127.5 5<29.5703 475.167> 145 10<12.0703 95.999 105.999 398.999 408.999 492.842> 244 10<12.0703 95.999 105.999 398.999 417.167 725.843> 265.5 5<28.5723 709.179> 285.5 5<48.5713 688.979> 305.5 5<68.5703 668.777> 325.5 5<88.5703 648.577> 344 10<102.07 634.942>
LayerCount: 2
Fore
SplineSet
55 401.943 m 1
 55 102.071 l 1
 67.5 89.5713 l 1
 67.5 414.568 l 1
 55 401.943 l 1
244 642 m 1
 244 733 l 1
 244 733 246 742 249 743 c 1
 251.081 740.919 l 1
 252.536 741.518 l 1
 352.536 640.518 l 1
 354 637 l 1
 354 100 l 1
 352.536 96.4648 l 1
 252.536 -3.53516 l 1
 251.071 -2.92871 l 1
 249 -5 l 1
 150 -5 l 1
 147.925 -2.9248 l 1
 146.447 -3.53516 l 1
 46.4473 96.4648 l 1
 45 100 l 1
 45 404 l 1
 46.4473 407.518 l 1
 146.447 508.518 l 1
 150 507.057 l 1
 153.553 508.518 l 1
 244 417.167 l 1
 244 642 l 1
254 637 m 1
 254 100.999 l 1
 254 12.0703 l 1
 265.5 23.5703 l 1
 265.5 714.229 l 1
 254 725.843 l 1
 254 637 l 1
244 95.999 m 1
 155 95.999 l 1
 155 4.99902 l 1
 244 4.99902 l 1
 244 95.999 l 1
244 105.999 m 1
 244 398.999 l 1
 155 398.999 l 1
 155 105.999 l 1
 244 105.999 l 1
145 100.999 m 1
 145 403.999 l 1
 145 492.842 l 1
 132.5 480.217 l 1
 132.5 24.5703 l 1
 145 12.0703 l 1
 145 100.999 l 1
155 408.999 m 1
 238.013 408.999 l 1
 155 492.842 l 1
 155 408.999 l 1
127.5 475.167 m 1
 112.5 460.017 l 1
 112.5 44.5703 l 1
 127.5 29.5703 l 1
 127.5 475.167 l 1
107.5 454.967 m 1
 92.5 439.817 l 1
 92.5 64.5703 l 1
 107.5 49.5703 l 1
 107.5 454.967 l 1
87.5 434.768 m 1
 72.5 419.618 l 1
 72.5 84.5713 l 1
 87.5 69.5713 l 1
 87.5 434.768 l 1
270.5 28.5723 m 1
 285.5 43.5713 l 1
 285.5 694.028 l 1
 270.5 709.179 l 1
 270.5 28.5723 l 1
290.5 48.5713 m 1
 305.5 63.5703 l 1
 305.5 673.827 l 1
 290.5 688.979 l 1
 290.5 48.5713 l 1
310.5 68.5703 m 1
 325.5 83.5703 l 1
 325.5 653.627 l 1
 310.5 668.777 l 1
 310.5 68.5703 l 1
330.5 88.5703 m 1
 344 102.07 l 1
 344 634.942 l 1
 330.5 648.577 l 1
 330.5 88.5703 l 1
EndSplineSet
EndChar

StartChar: e
Encoding: 101 101 57
Width: 400
VWidth: 960
GlyphClass: 2
Flags: W
HStem: -5 10<155 244> 96 10<155 244> 126.999 10.001<254 266.5 271.5 286.5 291.5 306.5 311.5 326.5 331.5 344> 295.999 10.001<160.987 244> 395 10<155 244> 496 10<155 244>
VStem: 45 10<103.056 398.928> 68.5 5<89.4209 412.428> 88.5 5<69.2207 432.428> 108.5 5<49.0215 452.428> 128.5 5<28.8213 472.428> 145 10<12.1572 96 106 287.833 306 395 405 488.929> 244 10<12.1572 96 106 127 212.156 295.999 306 395 405 488.929> 266.5 5<29.8311 126.999 229.831 471.428> 286.5 5<50.0312 126.999 250.03 451.428> 306.5 5<70.2314 126.999 270.23 431.428> 326.5 5<90.4316 126.999 290.432 411.429> 344 10<103.057 127 303.057 398.929>
LayerCount: 2
Fore
SplineSet
344 103.057 m 1
 344 127 l 1
 331.5 127 l 1
 331.5 90.4316 l 1
 344 103.057 l 1
45 401 m 1
 46.4639 404.535 l 1
 146.464 504.535 l 1
 147.929 503.929 l 1
 150 506 l 1
 249 506 l 1
 251.075 503.925 l 1
 252.553 504.535 l 1
 352.553 404.535 l 1
 354 401 l 1
 354 301 l 1
 352.553 297.482 l 1
 252.553 196.482 l 1
 249 197.943 l 1
 245.447 196.482 l 1
 155 287.833 l 1
 155 106 l 1
 244 106 l 1
 244 132 l 1
 249 137 l 1
 349 137 l 1
 354 132 l 1
 354 101 l 1
 352.553 97.4824 l 1
 252.553 -3.51758 l 1
 251.086 -2.91406 l 1
 249 -5 l 1
 150 -5 l 1
 147.919 -2.91895 l 1
 146.464 -3.51758 l 1
 46.4639 97.4824 l 1
 45 101 l 1
 45 401 l 1
344 303.057 m 1
 344 398.929 l 1
 331.5 411.429 l 1
 331.5 290.432 l 1
 344 303.057 l 1
244 96 m 1
 155 96 l 1
 155 5 l 1
 244 5 l 1
 244 96 l 1
254 12.1572 m 1
 266.5 24.7822 l 1
 266.5 127 l 1
 254 127 l 1
 254 101 l 1
 254 12.1572 l 1
145 101 m 1
 145 400 l 1
 145 488.929 l 1
 133.5 477.429 l 1
 133.5 23.7725 l 1
 145 12.1572 l 1
 145 101 l 1
155 405 m 1
 244 405 l 1
 244 496 l 1
 155 496 l 1
 155 405 l 1
155 395 m 1
 155 306 l 1
 244 306 l 1
 244 395 l 1
 155 395 l 1
254 400 m 1
 254 300.999 l 1
 254 212.156 l 1
 266.5 224.781 l 1
 266.5 476.429 l 1
 254 488.929 l 1
 254 400 l 1
244 295.999 m 1
 160.987 295.999 l 1
 244 212.156 l 1
 244 295.999 l 1
271.5 29.8311 m 1
 286.5 44.9814 l 1
 286.5 126.999 l 1
 271.5 126.999 l 1
 271.5 29.8311 l 1
291.5 50.0312 m 1
 306.5 65.1807 l 1
 306.5 126.999 l 1
 291.5 126.999 l 1
 291.5 50.0312 l 1
311.5 70.2314 m 1
 326.5 85.3809 l 1
 326.5 126.999 l 1
 311.5 126.999 l 1
 311.5 70.2314 l 1
271.5 229.831 m 1
 286.5 244.98 l 1
 286.5 456.428 l 1
 271.5 471.428 l 1
 271.5 229.831 l 1
291.5 250.03 m 1
 306.5 265.181 l 1
 306.5 436.428 l 1
 291.5 451.428 l 1
 291.5 250.03 l 1
311.5 270.23 m 1
 326.5 285.381 l 1
 326.5 416.428 l 1
 311.5 431.428 l 1
 311.5 270.23 l 1
128.5 472.428 m 1
 113.5 457.428 l 1
 113.5 43.9707 l 1
 128.5 28.8213 l 1
 128.5 472.428 l 1
108.5 452.428 m 1
 93.5 437.428 l 1
 93.5 64.1709 l 1
 108.5 49.0215 l 1
 108.5 452.428 l 1
88.5 432.428 m 1
 73.5 417.428 l 1
 73.5 84.3711 l 1
 88.5 69.2207 l 1
 88.5 432.428 l 1
68.5 412.428 m 1
 55 398.928 l 1
 55 103.056 l 1
 68.5 89.4209 l 1
 68.5 412.428 l 1
EndSplineSet
EndChar

StartChar: f
Encoding: 102 102 58
Width: 354
VWidth: 960
GlyphClass: 2
Flags: W
HStem: -3.53516 21G<126.446 155> 395 9.99899<155 204.929> 494.999 10.001<155 294.929> 601 9.99902<254 266.5 271.5 286.5 291.5 306.5 311.5 326.5 331.5 344.324> 632 9.99902<155 244> 732.999 10.001<155 244>
VStem: 45 10<102.07 634.942> 68.5 5<88.5703 648.577> 88.5 5<68.5703 668.778> 108.5 5<48.5703 688.978> 128.5 5<28.5693 709.177> 145 10<12.0703 395 404.999 494.999 505 632 641.999 725.843> 244 10<610.999 632 641.999 725.843> 266.5 5<611 708.169> 286.5 5<611 687.968> 306.5 5<610.999 667.767> 326.5 5<610.998 647.566> 344.664 9.99973<611.25 634.795>
LayerCount: 2
Fore
SplineSet
354.664 621.468 m 0
 354.664 619.513 354.703 615.358 353.984 605.632 c 1
 349 601 l 1
 249 601 l 1
 244 606 l 1
 244 632 l 1
 155 632 l 1
 155 505 l 1
 307 505 l 1
 310.536 496.464 l 1
 210.536 396.464 l 1
 207 395 l 1
 155 395 l 1
 155 0 l 1
 146.446 -3.53516 l 1
 46.4473 96.4648 l 1
 45 100 l 1
 45 637 l 1
 46.4473 640.518 l 1
 146.446 741.518 l 1
 147.914 740.914 l 1
 150 743 l 1
 249 743 l 1
 251.086 740.914 l 1
 252.553 741.518 l 1
 352.553 640.518 l 1
 353.983 637.383 l 1
 354.266 633.513 354.664 628.107 354.664 621.468 c 0
55 634.942 m 1
 55 102.07 l 1
 68.5 88.5703 l 1
 68.5 648.577 l 1
 55 634.942 l 1
204.929 404.999 m 1
 294.929 494.999 l 1
 155 494.999 l 1
 155 404.999 l 1
 204.929 404.999 l 1
254 725.843 m 1
 254 636.999 l 1
 254 610.999 l 1
 266.5 610.999 l 1
 266.5 713.218 l 1
 254 725.843 l 1
244 641.999 m 1
 244 732.999 l 1
 155 732.999 l 1
 155 641.999 l 1
 244 641.999 l 1
145 725.843 m 1
 133.5 714.229 l 1
 133.5 23.5703 l 1
 145 12.0703 l 1
 145 399.999 l 1
 145 499.999 l 1
 145 636.999 l 1
 145 725.843 l 1
271.5 611 m 1
 286.5 611 l 1
 286.5 693.018 l 1
 271.5 708.169 l 1
 271.5 611 l 1
291.5 611 m 1
 306.5 610.999 l 1
 306.5 672.817 l 1
 291.5 687.968 l 1
 291.5 611 l 1
311.5 610.999 m 1
 326.5 610.998 l 1
 326.5 652.616 l 1
 311.5 667.767 l 1
 311.5 610.999 l 1
331.5 610.998 m 1
 344.324 610.998 l 1
 344.677 616.881 344.662 619.391 344.664 621.741 c 0
 344.664 626.92 344.389 631.332 344.145 634.795 c 1
 331.5 647.566 l 1
 331.5 610.998 l 1
128.5 709.177 m 1
 113.5 694.027 l 1
 113.5 43.5693 l 1
 128.5 28.5693 l 1
 128.5 709.177 l 1
108.5 688.978 m 1
 93.5 673.828 l 1
 93.5 63.5703 l 1
 108.5 48.5703 l 1
 108.5 688.978 l 1
88.5 668.778 m 1
 73.5 653.627 l 1
 73.5 83.5703 l 1
 88.5 68.5703 l 1
 88.5 668.778 l 1
EndSplineSet
EndChar

StartChar: g
Encoding: 103 103 59
Width: 400
VWidth: 960
GlyphClass: 2
Flags: W
VStem: 68.5 5<-109.568 -73> 88.5 5<-129.768 -73> 108.5 5<-149.967 -72.999> 128.5 5<-170.167 -73> 266.5 5<-171.18 472.428> 286.5 5<-150.979 452.428> 306.5 5<-130.779 432.428> 326.5 5<-110.579 412.428>
LayerCount: 2
Fore
SplineSet
56 -96.9434 m 1
 56 -73 l 1
 68.5 -73 l 1
 68.5 -109.568 l 1
 56 -96.9434 l 1
355 401 m 1
 353.536 404.535 l 1
 253.536 504.535 l 1
 252.071 503.929 l 1
 250 506 l 1
 151 506 l 1
 148.925 503.925 l 1
 147.447 504.535 l 1
 47.4473 404.535 l 1
 46 401 l 1
 46 101 l 1
 47.4473 97.4824 l 1
 147.447 -3.51758 l 1
 151 -2.05664 l 1
 154.553 -3.51758 l 1
 245 87.833 l 1
 245 -94 l 1
 156 -94 l 1
 156 -68 l 1
 151 -63 l 1
 51 -63 l 1
 46 -68 l 1
 46 -99 l 1
 47.4473 -102.518 l 1
 147.447 -203.518 l 1
 148.914 -202.914 l 1
 151 -205 l 1
 250 -205 l 1
 252.081 -202.919 l 1
 253.536 -203.518 l 1
 353.536 -102.518 l 1
 355 -99 l 1
 355 401 l 1
56 103.057 m 1
 56 398.929 l 1
 68.5 411.429 l 1
 68.5 90.4316 l 1
 56 103.057 l 1
156 -104 m 1
 245 -104 l 1
 245 -195 l 1
 156 -195 l 1
 156 -104 l 1
146 -187.843 m 1
 133.5 -175.218 l 1
 133.5 -73 l 1
 146 -73 l 1
 146 -99 l 1
 146 -187.843 l 1
255 -99 m 1
 255 400.001 l 1
 255 488.93 l 1
 266.5 477.43 l 1
 266.5 -176.228 l 1
 255 -187.843 l 1
 255 -99 l 1
245 405.001 m 1
 156 405.001 l 1
 156 496.001 l 1
 245 496.001 l 1
 245 405.001 l 1
245 395.001 m 1
 245 106.001 l 1
 156 106.001 l 1
 156 395.001 l 1
 245 395.001 l 1
146 400.001 m 1
 146 101.001 l 1
 146 12.1582 l 1
 133.5 24.7832 l 1
 133.5 476.43 l 1
 146 488.93 l 1
 146 400.001 l 1
156 96.001 m 1
 239.013 96.001 l 1
 156 12.1582 l 1
 156 96.001 l 1
128.5 -170.167 m 1
 113.5 -155.017 l 1
 113.5 -72.999 l 1
 128.5 -72.999 l 1
 128.5 -170.167 l 1
108.5 -149.967 m 1
 93.5 -134.817 l 1
 93.5 -72.999 l 1
 108.5 -72.999 l 1
 108.5 -149.967 l 1
88.5 -129.768 m 1
 73.5 -114.618 l 1
 73.5 -73 l 1
 88.5 -73 l 1
 88.5 -129.768 l 1
128.5 29.8311 m 1
 113.5 44.9814 l 1
 113.5 456.428 l 1
 128.5 471.428 l 1
 128.5 29.8311 l 1
108.5 50.0312 m 1
 93.5 65.1807 l 1
 93.5 436.428 l 1
 108.5 451.428 l 1
 108.5 50.0312 l 1
88.5 70.2314 m 1
 73.5 85.3809 l 1
 73.5 416.428 l 1
 88.5 431.428 l 1
 88.5 70.2314 l 1
271.5 472.428 m 1
 286.5 457.428 l 1
 286.5 -156.029 l 1
 271.5 -171.18 l 1
 271.5 472.428 l 1
291.5 452.428 m 1
 306.5 437.428 l 1
 306.5 -135.829 l 1
 291.5 -150.979 l 1
 291.5 452.428 l 1
311.5 432.428 m 1
 326.5 417.428 l 1
 326.5 -115.629 l 1
 311.5 -130.779 l 1
 311.5 432.428 l 1
331.5 412.428 m 1
 345 398.928 l 1
 345 -96.9443 l 1
 331.5 -110.579 l 1
 331.5 412.428 l 1
EndSplineSet
EndChar

StartChar: h
Encoding: 104 104 60
Width: 400
VWidth: 960
GlyphClass: 2
Flags: W
HStem: -5.00195 10<55.001 66.501 71.501 86.501 91.501 106.501 111.501 126.501 131.501 145.001> 394.998 10.001<161.903 244.001> 716.03 20G<149.275 150.241>
VStem: 45.001 10<4.99902 627.942> 66.501 5<4.99902 639.558> 86.501 5<4.99805 659.757> 106.501 5<4.99805 679.956> 126.501 5.00001<4.99805 700.157> 145.001 10<4.99805 394.998 412.242 718.843> 244.001 10<12.0703 394.998 404.999 488.755> 270.501 5<33.5703 467.127> 290.501 5<53.5703 446.927> 310.501 5<73.5693 426.726> 330.501 5<93.5684 406.525> 344.001 9.99899<102.068 397.94>
LayerCount: 2
Fore
SplineSet
354 100 m 2
 354 98.6045 353.524 97.4492 352.537 96.4629 c 2
 252.537 -3.53711 l 2
 251.549 -4.52545 250.347 -5.03428 249.082 -5.03428 c 0
 248.428 -5.03428 247.756 -4.89791 247.088 -4.62109 c 0
 245.129 -3.80957 244.001 -2.12207 244.001 -0.00195312 c 2
 244.001 394.998 l 1
 155.001 394.998 l 1
 155.001 -0.00195312 l 2
 155.001 -2.89258 152.891 -5.00195 150.001 -5.00195 c 2
 50.001 -5.00195 l 2
 47.1104 -5.00195 45.001 -2.89258 45.001 -0.00195312 c 2
 45.001 629.998 l 2
 45.001 631.385 45.4717 632.529 46.4482 633.516 c 2
 146.431 734.516 l 2
 147.42 735.515 148.636 736.03 149.915 736.03 c 0
 150.568 736.03 151.238 735.895 151.902 735.622 c 0
 153.867 734.814 155 733.123 155 730.998 c 2
 155 412.242 l 1
 244.956 504.016 l 2
 245.317 504.497 245.776 504.91 246.323 505.24 c 0
 247.144 505.781 248.062 506.047 249.017 506.026 c 0
 249.85 506.032 250.655 505.816 251.392 505.391 c 0
 252.096 505.021 252.672 504.525 253.102 503.929 c 2
 352.536 403.5 l 2
 353.511 402.514 354 401.387 354 400 c 2
 354 100 l 2
55.001 627.942 m 1
 55.001 4.99902 l 1
 66.501 4.99902 l 1
 66.501 639.558 l 1
 55.001 627.942 l 1
244.001 404.999 m 1
 244.001 488.755 l 1
 161.903 404.999 l 1
 244.001 404.999 l 1
254.001 399.999 m 1
 254.001 12.0703 l 1
 270.501 28.5703 l 1
 270.501 472.177 l 1
 254.001 488.842 l 1
 254.001 399.999 l 1
131.501 705.207 m 1
 131.501 4.99805 l 1
 145.001 4.99805 l 1
 145.001 399.52 l 2
 144.957 399.894 145.001 400.265 145.001 400.629 c 2
 145.001 718.843 l 1
 131.501 705.207 l 1
126.501 700.157 m 1
 111.501 685.007 l 1
 111.501 4.99805 l 1
 126.501 4.99805 l 1
 126.501 700.157 l 1
106.501 679.956 m 1
 91.501 664.807 l 1
 91.501 4.99805 l 1
 106.501 4.99805 l 1
 106.501 679.956 l 1
86.501 659.757 m 1
 71.501 644.607 l 1
 71.501 4.99805 l 1
 86.501 4.99805 l 1
 86.501 659.757 l 1
275.501 33.5703 m 1
 290.501 48.5703 l 1
 290.501 451.977 l 1
 275.501 467.127 l 1
 275.501 33.5703 l 1
295.501 53.5703 m 1
 310.501 68.5693 l 1
 310.501 431.776 l 1
 295.501 446.927 l 1
 295.501 53.5703 l 1
315.501 73.5693 m 1
 330.501 88.5684 l 1
 330.501 411.575 l 1
 315.501 426.726 l 1
 315.501 73.5693 l 1
335.501 93.5684 m 1
 344.001 102.068 l 1
 344.001 397.94 l 1
 335.501 406.525 l 1
 335.501 93.5684 l 1
EndSplineSet
EndChar

StartChar: i
Encoding: 105 105 61
Width: 200
VWidth: 960
GlyphClass: 2
Flags: W
HStem: -4.99902 9.99902<55 66.5 71.5 86.5 91.5 106.5 111.5 126.5 131.5 145> 484.519 20G<126.645 155> 714.52 20G<126.645 155>
VStem: 45 10<5.00098 397.943 511.071 627.944> 66.5 5<5.00098 409.56 527.571 639.56> 86.5 5<5.00098 429.759 547.572 659.76> 106.5 5<5.00098 449.96 567.572 679.96> 126.5 5<5.00098 470.159 587.572 700.16> 145 10<5.00098 488.845 601.072 718.846>
LayerCount: 2
Fore
SplineSet
86.5 429.759 m 1
 71.5 414.608 l 1
 71.5 5 l 1
 86.5 5 l 1
 86.5 429.759 l 1
106.5 449.96 m 1
 91.5 434.81 l 1
 91.5 5.00098 l 1
 106.5 5.00098 l 1
 106.5 449.96 l 1
126.5 470.159 m 1
 111.5 455.01 l 1
 111.5 5.00098 l 1
 126.5 5.00098 l 1
 126.5 470.159 l 1
131.5 475.21 m 1
 131.5 5.00098 l 1
 145 5.00098 l 1
 145 488.845 l 1
 131.5 475.21 l 1
146.447 504.519 m 1
 155 501.001 l 1
 155 0.000976562 l 1
 150 -4.99902 l 1
 50 -4.99902 l 1
 45 0.000976562 l 1
 45 400.001 l 1
 46.4473 403.519 l 1
 146.447 504.519 l 1
55 397.943 m 1
 55 5.00098 l 1
 66.5 5.00098 l 1
 66.5 409.56 l 1
 55 397.943 l 1
55 627.944 m 1
 55 511.071 l 1
 66.5 522.571 l 1
 66.5 639.56 l 1
 55 627.944 l 1
146.447 734.52 m 1
 155 731.002 l 1
 155 599.002 l 1
 153.535 595.467 l 1
 53.5352 495.467 l 1
 45 499.002 l 1
 45 630.002 l 1
 46.4473 633.52 l 1
 146.447 734.52 l 1
131.5 705.211 m 1
 131.5 587.572 l 1
 145 601.072 l 1
 145 718.846 l 1
 131.5 705.211 l 1
126.5 700.16 m 1
 111.5 685.01 l 1
 111.5 567.572 l 1
 126.5 582.572 l 1
 126.5 700.16 l 1
106.5 679.96 m 1
 91.5 664.811 l 1
 91.5 547.572 l 1
 106.5 562.572 l 1
 106.5 679.96 l 1
86.5 659.76 m 1
 71.5 644.609 l 1
 71.5 527.571 l 1
 86.5 542.572 l 1
 86.5 659.76 l 1
EndSplineSet
EndChar

StartChar: j
Encoding: 106 106 62
Width: 200
VWidth: 960
GlyphClass: 2
Flags: W
HStem: -203.518 21G<26.6453 49.4941 49.4941 72.3371> -73 10<-45 -32.5 -27.5 -12.5 -7.5 7.5 12.5 27.5 32.5 44> 484.535 20G<44 72.5352> 714.518 20G<45 73.3547>
VStem: -55 10<-96.9424 -72.999> -32.5 5<-109.567 -72.999> -12.5 5<-129.769 -73> 7.5 5<-149.97 -73.001> 27.5 5<-170.17 -73.001> 44 10<-186.834 -73.001 -63 488.929 601.07 718.844> 65.5 5<-171.178 472.431> 68.5 5<587.57 700.157> 85.5 5<-150.978 452.431> 88.5 5<567.57 679.959> 105.5 5<-130.776 432.431> 108.5 5<547.57 659.76> 125.5 5<-110.578 412.429> 128.5 5<527.571 639.561> 144 10<-96.9434 398.929 511.071 627.944>
LayerCount: 2
Fore
SplineSet
-55 -68 m 1xffc020
 -50 -63 l 1
 44 -63 l 1
 44 501 l 1
 52.5352 504.535 l 1
 152.535 404.535 l 1
 154 401 l 1
 154 -99 l 1
 152.535 -102.518 l 1
 52.5352 -203.518 l 1
 49.4941 -202.265 l 1
 46.4473 -203.518 l 1
 -53.5527 -102.518 l 1
 -55 -99 l 1
 -55 -68 l 1xffc020
144 -96.9434 m 1
 144 398.929 l 1
 130.5 412.429 l 1
 130.5 -110.578 l 1xffc0a0
 144 -96.9434 l 1
155 499 m 1
 146.465 495.465 l 1
 46.4473 595.465 l 1
 45 599 l 1
 45 731 l 1
 53.5527 734.518 l 1
 153.553 633.518 l 1
 155 630 l 1
 155 499 l 1
54 -186.834 m 1
 65.5 -176.229 l 1
 65.5 477.429 l 1xffe020
 54 488.929 l 1
 54 -186.834 l 1
44 -73.001 m 1
 32.5 -73.001 l 1
 32.5 -175.22 l 1
 44 -186.835 l 1
 44 -73.001 l 1
27.5 -73.001 m 1
 12.5 -73.001 l 1
 12.5 -155.02 l 1
 27.5 -170.17 l 1
 27.5 -73.001 l 1
7.5 -73.001 m 1
 -7.5 -73 l 1
 -7.5 -134.818 l 1
 7.5 -149.97 l 1
 7.5 -73.001 l 1
-12.5 -73 m 1
 -27.5 -72.999 l 1
 -27.5 -114.617 l 1
 -12.5 -129.769 l 1
 -12.5 -73 l 1
-32.5 -72.999 m 1
 -45 -72.999 l 1
 -45 -96.9424 l 1
 -32.5 -109.567 l 1
 -32.5 -72.999 l 1
70.5 -171.178 m 1
 85.5 -156.026 l 1
 85.5 457.431 l 1xffe820
 70.5 472.431 l 1
 70.5 -171.178 l 1
90.5 -150.978 m 1
 105.5 -135.826 l 1
 105.5 437.431 l 1xffca20
 90.5 452.431 l 1
 90.5 -150.978 l 1
110.5 -130.776 m 1
 125.5 -115.627 l 1
 125.5 417.431 l 1xffc2a0
 110.5 432.431 l 1
 110.5 -130.776 l 1
133.5 522.572 m 1xffc060
 145 511.071 l 1
 145 627.944 l 1
 133.5 639.561 l 1
 133.5 522.572 l 1xffc060
113.5 542.572 m 1xffc160
 128.5 527.571 l 1
 128.5 644.608 l 1
 113.5 659.76 l 1
 113.5 542.572 l 1xffc160
93.5 562.571 m 1xffc520
 108.5 547.57 l 1
 108.5 664.809 l 1
 93.5 679.959 l 1
 93.5 562.571 l 1xffc520
73.5 582.57 m 1xffd420
 88.5 567.57 l 1
 88.5 685.008 l 1
 73.5 700.157 l 1
 73.5 582.57 l 1xffd420
68.5 587.57 m 1
 68.5 705.209 l 1
 55 718.844 l 1
 55 601.07 l 1
 68.5 587.57 l 1
EndSplineSet
EndChar

StartChar: k
Encoding: 107 107 63
Width: 350
VWidth: 960
GlyphClass: 2
Flags: W
HStem: -4.99805 10<55 66.5 71.5 86.5 91.5 106.5 111.5 126.5 131.5 145 242.915 255.272 261.035 279.244 285.011 302.241 308.009 327.219 332.989 345.311> 496.003 9.99802<242.831 345.175> 714.52 20G<126.645 155>
VStem: 45 10<5.00293 627.945> 66.5 5<5.00293 639.562> 86.5 5<5.00293 659.762> 106.5 5<5.00293 679.962> 126.5 5<5.00293 700.161> 145 10<5.00293 140.019 160.32 181.173 191.265 221.279 231.317 261.088 271.119 302.373 312.364 332.312 369.054 718.847>
LayerCount: 2
Fore
SplineSet
358.323 2.5127 m 1
 354 -4.99805 l 1
 240 -4.99805 l 1
 235.648 -2.46094 l 1
 155 140.019 l 1
 155 0.00195312 l 1
 150 -4.99805 l 1
 50 -4.99805 l 1
 45 0.00195312 l 1
 45 630.002 l 1
 46.4473 633.52 l 1
 146.447 734.52 l 1
 155 731.002 l 1
 155 369.054 l 1
 235.713 503.573 l 1
 240 506.001 l 1
 354 506.001 l 1
 358.289 498.431 l 1
 211.996 254.28 l 1
 358.323 2.5127 l 1
55 627.945 m 1
 55 5.00293 l 1
 66.5 5.00293 l 1
 66.5 639.562 l 1
 55 627.945 l 1
131.5 705.212 m 1
 131.5 5.00293 l 1
 145 5.00293 l 1
 145 159.003 l 1
 145 718.847 l 1
 131.5 705.212 l 1
126.5 700.161 m 1
 111.5 685.012 l 1
 111.5 5.00293 l 1
 126.5 5.00293 l 1
 126.5 700.161 l 1
106.5 679.962 m 1
 91.5 664.812 l 1
 91.5 5.00293 l 1
 106.5 5.00293 l 1
 106.5 679.962 l 1
86.5 659.762 m 1
 71.5 644.611 l 1
 71.5 5.00293 l 1
 86.5 5.00293 l 1
 86.5 659.762 l 1
155 160.32 m 1
 242.915 5.00293 l 1
 255.272 5.00293 l 1
 155 181.173 l 1
 155 160.32 l 1
261.035 5.00293 m 1
 279.244 5.00195 l 1
 155 221.279 l 1
 155 191.265 l 1
 261.035 5.00293 l 1
285.011 5.00195 m 1
 302.241 5.00195 l 1
 155 261.088 l 1
 155 231.317 l 1
 285.011 5.00195 l 1
308.009 5.00195 m 1
 327.219 5.00195 l 1
 155 302.373 l 1
 155 271.119 l 1
 308.009 5.00195 l 1
332.989 5.00195 m 1
 345.311 5.00293 l 1
 155 332.312 l 1
 155 312.364 l 1
 332.989 5.00195 l 1
155.807 350.963 m 1
 206.257 264.159 l 1
 345.175 496.003 l 1
 242.831 496.003 l 1
 155.807 350.963 l 1
EndSplineSet
EndChar

StartChar: l
Encoding: 108 108 64
Width: 200
VWidth: 960
GlyphClass: 2
Flags: W
HStem: -4.99805 10<55 66.5 71.5 86.5 91.5 106.5 111.5 126.5 131.5 145> 714.52 20G<126.645 155>
VStem: 45 10<5.00098 627.943> 66.5 5<5.00195 639.56> 86.5 5<5.00195 659.761> 106.5 5<5.00195 679.961> 126.5 5<5.00195 700.16> 145 10<5.00195 718.846>
LayerCount: 2
Fore
SplineSet
55 627.943 m 1
 55 5.00098 l 1
 66.5 5.00098 l 1
 66.5 639.56 l 1
 55 627.943 l 1
146.447 734.52 m 1
 155 731.002 l 1
 155 0.00195312 l 1
 150 -4.99805 l 1
 50 -4.99805 l 1
 45 0.00195312 l 1
 45 630.002 l 1
 46.4473 633.52 l 1
 146.447 734.52 l 1
131.5 705.211 m 1
 131.5 5.00195 l 1
 145 5.00195 l 1
 145 718.846 l 1
 131.5 705.211 l 1
126.5 700.16 m 1
 111.5 685.011 l 1
 111.5 5.00195 l 1
 126.5 5.00195 l 1
 126.5 700.16 l 1
106.5 679.961 m 1
 91.5 664.811 l 1
 91.5 5.00195 l 1
 106.5 5.00195 l 1
 106.5 679.961 l 1
86.5 659.761 m 1
 71.5 644.61 l 1
 71.5 5.00195 l 1
 86.5 5.00195 l 1
 86.5 659.761 l 1
EndSplineSet
EndChar

StartChar: m
Encoding: 109 109 65
Width: 604
VWidth: 960
GlyphClass: 2
Flags: W
VStem: 270.5 5<4 466.061> 290.5 5<3.99902 445.591> 310.5 5<3.99902 425.119> 330.333 5.974<4 403.826> 474.5 5<32.5713 466.129> 494.5 5<52.5713 445.93> 514.5 5<72.5723 425.73> 534.5 5<92.5723 405.529>
LayerCount: 2
Fore
SplineSet
344 4 m 1
 335.5 4 l 1
 336.307 403.826 l 1
 344 395.952 l 1
 344 4 l 1
354 394 m 1
 448 394 l 1
 448 -1 l 1
 456.535 -4.53516 l 1
 556.535 95.4648 l 1
 558 99 l 1
 558 399 l 1
 556.535 402.518 l 1
 456.535 503.518 l 1
 455.081 502.919 l 1
 453 505 l 1
 349 505 l 1
 346.914 502.919 l 1
 345.447 503.518 l 1
 300.195 453.714 l 1
 252.535 503.518 l 1
 251.081 502.919 l 1
 249 505 l 1
 150 505 l 1
 147.914 502.919 l 1
 146.447 503.518 l 1
 46.4473 402.518 l 1
 45 399 l 1
 45 -1 l 1
 50 -6 l 1
 150 -6 l 1
 155 -1 l 1
 155 394 l 1
 244 394 l 1
 244 -2 l 1
 252.535 -5.53516 l 1
 352.535 -5.53516 l 1
 354 -2 l 1
 354 394 l 1
448 404 m 1
 354 404 l 1
 354 495 l 1
 448 495 l 1
 448 404 l 1
458 399 m 1
 458 487.844 l 1
 474.5 471.179 l 1
 474.5 27.5713 l 1
 458 11.0713 l 1
 458 399 l 1
479.5 32.5713 m 1
 479.5 466.129 l 1
 494.5 450.979 l 1
 494.5 47.5713 l 1
 479.5 32.5713 l 1
499.5 52.5713 m 1
 499.5 445.93 l 1
 514.5 430.778 l 1
 514.5 67.5713 l 1
 499.5 52.5713 l 1
519.5 72.5723 m 1
 519.5 425.73 l 1
 534.5 410.579 l 1
 534.5 87.5723 l 1
 519.5 72.5723 l 1
539.5 92.5723 m 1
 539.5 405.529 l 1
 548 396.944 l 1
 548 101.072 l 1
 539.5 92.5723 l 1
55 396.944 m 1
 66.5 408.56 l 1
 66.5 4.00098 l 1
 55 4.00098 l 1
 55 396.944 l 1
244 404 m 1
 155 404 l 1
 155 495 l 1
 244 495 l 1
 244 404 l 1
254 399 m 1
 254 487.844 l 1
 270.5 471.179 l 1
 270.5 4 l 1
 254 4 l 1
 254 399 l 1
131.5 474.208 m 1
 145 487.844 l 1
 145 399 l 1
 145 4 l 1
 131.5 4 l 1
 131.5 474.208 l 1
126.5 469.158 m 1
 126.5 4 l 1
 111.5 4 l 1
 111.5 454.009 l 1
 126.5 469.158 l 1
106.5 448.958 m 1
 106.5 4 l 1
 91.5 4 l 1
 91.5 433.809 l 1
 106.5 448.958 l 1
86.5 428.759 m 1
 86.5 3.99902 l 1
 71.5 3.99902 l 1
 71.5 413.607 l 1
 86.5 428.759 l 1
315.5 457.999 m 1
 331.5 473.499 l 1
 331.368 422.638 l 1
 315.5 438.456 l 1
 315.5 457.999 l 1
310.5 430.238 m 1
 310.5 3.99902 l 1
 295.5 3.99902 l 1
 295.5 445.591 l 1
 310.5 430.238 l 1
290.5 450.708 m 1
 290.5 3.99805 l 1
 275.5 3.99805 l 1
 275.5 466.061 l 1
 290.5 450.708 l 1
315.5 425.119 m 1
 330.333 409.915 l 1
 330.5 3.99805 l 1
 315.5 3.99805 l 1
 315.5 425.119 l 1
310.5 443.439 m 1
 306.231 447.695 l 1
 310.5 451.776 l 1
 310.5 443.439 l 1
344 410.045 m 1
 336.342 417.679 l 1
 336.5 478.499 l 1
 344 487.843 l 1
 344 410.045 l 1
EndSplineSet
EndChar

StartChar: n
Encoding: 110 110 66
Width: 400
VWidth: 960
GlyphClass: 2
Flags: W
HStem: -5 10.001<55 66.5 71.5 86.5 91.5 106.5 111.5 126.5 131.5 145> 395 10.001<155 244> 496.001 9.99899<155 244>
VStem: 45 10<5.00098 397.943> 66.5 5<5.00098 409.559> 86.5 5<5.00098 429.759> 106.5 5<5.00098 449.959> 126.5 5<5.00098 470.159> 145 10<5.00098 395 405.001 488.844> 244 10<12.0723 395 405.001 488.844> 270.5 5<33.5732 467.13> 290.5 5<53.5732 446.93> 310.5 5<73.5723 426.729> 330.5 5<93.5713 406.528> 344 10<102.071 397.943>
LayerCount: 2
Fore
SplineSet
354 100 m 1
 352.536 96.4648 l 1
 252.536 -3.53516 l 1
 244 0 l 1
 244 395 l 1
 155 395 l 1
 155 0 l 1
 150 -5 l 1
 50 -5 l 1
 45 0 l 1
 45 400 l 1
 46.4473 403.518 l 1
 146.447 504.518 l 1
 147.914 503.914 l 1
 150 506 l 1
 249 506 l 1
 251.081 503.919 l 1
 252.536 504.518 l 1
 352.536 403.518 l 1
 354 400 l 1
 354 100 l 1
55 397.943 m 1
 55 5.00098 l 1
 66.5 5.00098 l 1
 66.5 409.559 l 1
 55 397.943 l 1
244 405.001 m 1
 244 496.001 l 1
 155 496.001 l 1
 155 405.001 l 1
 244 405.001 l 1
254 400.001 m 1
 254 12.0723 l 1
 270.5 28.5723 l 1
 270.5 472.179 l 1
 254 488.844 l 1
 254 400.001 l 1
131.5 475.209 m 1
 131.5 5.00098 l 1
 145 5.00098 l 1
 145 400.001 l 1
 145 488.844 l 1
 131.5 475.209 l 1
126.5 470.159 m 1
 111.5 455.009 l 1
 111.5 5.00098 l 1
 126.5 5.00098 l 1
 126.5 470.159 l 1
106.5 449.959 m 1
 91.5 434.809 l 1
 91.5 5.00098 l 1
 106.5 5.00098 l 1
 106.5 449.959 l 1
86.5 429.759 m 1
 71.5 414.609 l 1
 71.5 5.00098 l 1
 86.5 5.00098 l 1
 86.5 429.759 l 1
275.5 33.5732 m 1
 290.5 48.5732 l 1
 290.5 451.979 l 1
 275.5 467.13 l 1
 275.5 33.5732 l 1
295.5 53.5732 m 1
 310.5 68.5723 l 1
 310.5 431.779 l 1
 295.5 446.93 l 1
 295.5 53.5732 l 1
315.5 73.5723 m 1
 330.5 88.5713 l 1
 330.5 411.578 l 1
 315.5 426.729 l 1
 315.5 73.5723 l 1
335.5 93.5713 m 1
 344 102.071 l 1
 344 397.943 l 1
 335.5 406.528 l 1
 335.5 93.5713 l 1
EndSplineSet
EndChar

StartChar: o
Encoding: 111 111 67
Width: 400
VWidth: 960
GlyphClass: 2
Flags: W
HStem: -5 10.001<155 244> 96.001 10<155 244> 395.001 10<155 244> 496.001 9.99899<155 244>
VStem: 45 10<102.072 397.943> 62.5 5<94.5723 405.519> 82.5 5<74.5723 425.719> 102.5 5<54.5723 445.919> 122.5 5<34.5723 466.119> 145 10<12.0723 96.001 106.001 395.001 405.001 488.844> 244 10<12.0723 96.001 106.001 395.001 405.001 488.844> 270.5 5<33.5732 467.13> 290.5 5<53.5732 446.93> 310.5 5<73.5723 426.729> 330.5 5<93.5713 406.528> 344 10<102.071 397.943>
LayerCount: 2
Fore
SplineSet
354 100 m 1
 352.536 96.4648 l 1
 252.536 -3.53516 l 1
 251.071 -2.92871 l 1
 249 -5 l 1
 150 -5 l 1
 147.925 -2.9248 l 1
 146.447 -3.53516 l 1
 46.4473 96.4648 l 1
 45 100 l 1
 45 400 l 1
 46.4473 403.518 l 1
 146.447 504.518 l 1
 147.914 503.914 l 1
 150 506 l 1
 249 506 l 1
 251.081 503.919 l 1
 252.536 504.518 l 1
 352.536 403.518 l 1
 354 400 l 1
 354 100 l 1
55 397.943 m 1
 55 102.072 l 1
 62.5 94.5723 l 1
 62.5 405.519 l 1
 55 397.943 l 1
244 496.001 m 1
 155 496.001 l 1
 155 405.001 l 1
 244 405.001 l 1
 244 496.001 l 1
244 395.001 m 1
 155 395.001 l 1
 155 106.001 l 1
 244 106.001 l 1
 244 395.001 l 1
254 400.001 m 1
 254 101.001 l 1
 254 12.0723 l 1
 270.5 28.5723 l 1
 270.5 472.179 l 1
 254 488.844 l 1
 254 400.001 l 1
244 96.001 m 1
 155 96.001 l 1
 155 5.00098 l 1
 244 5.00098 l 1
 244 96.001 l 1
127.5 471.169 m 1
 127.5 29.5723 l 1
 145 12.0723 l 1
 145 101.001 l 1
 145 400.001 l 1
 145 488.844 l 1
 127.5 471.169 l 1
122.5 466.119 m 1
 107.5 450.969 l 1
 107.5 49.5723 l 1
 122.5 34.5723 l 1
 122.5 466.119 l 1
102.5 445.919 m 1
 87.5 430.769 l 1
 87.5 69.5723 l 1
 102.5 54.5723 l 1
 102.5 445.919 l 1
82.5 425.719 m 1
 67.5 410.569 l 1
 67.5 89.5723 l 1
 82.5 74.5723 l 1
 82.5 425.719 l 1
275.5 33.5732 m 1
 290.5 48.5732 l 1
 290.5 451.979 l 1
 275.5 467.13 l 1
 275.5 33.5732 l 1
295.5 53.5732 m 1
 310.5 68.5723 l 1
 310.5 431.779 l 1
 295.5 446.93 l 1
 295.5 53.5732 l 1
315.5 73.5723 m 1
 330.5 88.5713 l 1
 330.5 411.578 l 1
 315.5 426.729 l 1
 315.5 73.5723 l 1
335.5 93.5713 m 1
 344 102.071 l 1
 344 397.943 l 1
 335.5 406.528 l 1
 335.5 93.5713 l 1
EndSplineSet
EndChar

StartChar: p
Encoding: 112 112 68
Width: 400
VWidth: 960
GlyphClass: 2
Flags: W
HStem: -23.5283 20G<245.431 252.535>
VStem: 270.501 5<32.3857 465.944> 290.501 5<52.5869 445.944> 310.501 5<72.7861 425.944> 330.501 5<92.9863 405.944>
LayerCount: 2
Fore
SplineSet
354 399.518 m 1
 352.536 403.054 l 1
 252.536 503.054 l 1
 251.072 502.446 l 1
 249.001 504.518 l 1
 150.001 504.518 l 1
 50.001 404.518 l 1
 45.001 399.518 l 1
 45.001 -130.482 l 1
 46.4482 -134 l 1
 146.431 -235 l 1
 155.001 -231.482 l 1
 155.001 87.2744 l 1
 245.431 -4.98242 l 1
 248.989 -3.52832 l 1
 252.535 -4.98242 l 1
 352.535 96.0176 l 1
 354 99.5176 l 1
 354 399.518 l 1
55.001 -128.427 m 1
 55.001 394.518 l 1
 67.501 409.518 l 1
 67.501 -141.052 l 1
 55.001 -128.427 l 1
244.001 94.5166 m 1
 244.001 10.7607 l 1
 161.903 94.5166 l 1
 244.001 94.5166 l 1
244.001 104.517 m 1
 155.001 104.517 l 1
 155.001 393.517 l 1
 244.001 393.517 l 1
 244.001 104.517 l 1
254.001 99.5166 m 1
 254.001 398.518 l 1
 254.001 487.446 l 1
 270.501 470.946 l 1
 270.501 27.3389 l 1
 254.001 10.6738 l 1
 254.001 99.5166 l 1
244.001 403.518 m 1
 155.001 403.518 l 1
 155.001 494.518 l 1
 244.001 494.518 l 1
 244.001 403.518 l 1
132.501 -206.7 m 1
 132.501 474.518 l 1
 145.001 488.518 l 1
 145.001 398.518 l 1
 145.001 -219.325 l 1
 132.501 -206.7 l 1
127.501 -201.65 m 1
 112.501 -186.502 l 1
 112.501 452.518 l 1
 127.501 469.518 l 1
 127.501 -201.65 l 1
107.501 -181.451 m 1
 92.501 -166.303 l 1
 92.501 431.517 l 1
 107.501 448.517 l 1
 107.501 -181.451 l 1
87.501 -161.253 m 1
 72.501 -146.104 l 1
 72.501 412.516 l 1
 87.501 428.516 l 1
 87.501 -161.253 l 1
275.501 465.944 m 1
 290.501 450.944 l 1
 290.501 47.5361 l 1
 275.501 32.3857 l 1
 275.501 465.944 l 1
295.501 445.944 m 1
 310.501 430.944 l 1
 310.501 67.7363 l 1
 295.501 52.5869 l 1
 295.501 445.944 l 1
315.501 425.944 m 1
 330.501 410.944 l 1
 330.501 87.9365 l 1
 315.501 72.7861 l 1
 315.501 425.944 l 1
335.501 405.944 m 1
 344.001 397.444 l 1
 344.001 101.571 l 1
 335.501 92.9863 l 1
 335.501 405.944 l 1
EndSplineSet
EndChar

StartChar: q
Encoding: 113 113 69
Width: 400
VWidth: 960
GlyphClass: 2
Flags: W
HStem: -4.98242 21G<126.663 150.011 150.011 173.173> 94.5166 10.0004<155 237.098> 393.517 10.001<155 244> 494.518 10<155 244>
VStem: 45 10<101.571 397.444> 63.5 5<92.9863 405.944> 83.5 5<72.7861 425.944> 103.5 5<52.5869 445.944> 123.5 5<32.3857 465.944> 145 10<10.7607 94.5166 104.517 393.517 403.518 487.446> 244 10<-219.325 87.2744 104.517 393.517 403.518 488.518> 266.5 5<-201.65 469.518> 286.5 5<-181.451 448.517> 306.5 5<-161.253 428.516> 326.5 5<-141.052 409.518> 344 10<-128.427 394.518>
LayerCount: 2
Fore
SplineSet
45 399.518 m 1
 46.4648 403.054 l 1
 146.465 503.054 l 1
 147.929 502.446 l 1
 150 504.518 l 1
 249 504.518 l 1
 349 404.518 l 1
 354 399.518 l 1
 354 -130.482 l 1
 352.553 -134 l 1
 252.569 -235 l 1
 243.999 -231.482 l 1
 243.999 87.2744 l 1
 153.569 -4.98242 l 1
 150.011 -3.52832 l 1
 146.465 -4.98242 l 1
 46.4648 96.0176 l 1
 45 99.5176 l 1
 45 399.518 l 1
344 -128.427 m 1
 344 394.518 l 1
 331.5 409.518 l 1
 331.5 -141.052 l 1
 344 -128.427 l 1
155 94.5166 m 1
 155 10.7607 l 1
 237.098 94.5166 l 1
 155 94.5166 l 1
155 104.517 m 1
 244 104.517 l 1
 244 393.517 l 1
 155 393.517 l 1
 155 104.517 l 1
145 99.5166 m 1
 145 398.518 l 1
 145 487.446 l 1
 128.5 470.946 l 1
 128.5 27.3389 l 1
 145 10.6738 l 1
 145 99.5166 l 1
155 403.518 m 1
 244 403.518 l 1
 244 494.518 l 1
 155 494.518 l 1
 155 403.518 l 1
266.5 -206.7 m 1
 266.5 474.518 l 1
 254 488.518 l 1
 254 398.518 l 1
 254 -219.325 l 1
 266.5 -206.7 l 1
271.5 -201.65 m 1
 286.5 -186.502 l 1
 286.5 452.518 l 1
 271.5 469.518 l 1
 271.5 -201.65 l 1
291.5 -181.451 m 1
 306.5 -166.303 l 1
 306.5 431.517 l 1
 291.5 448.517 l 1
 291.5 -181.451 l 1
311.5 -161.253 m 1
 326.5 -146.104 l 1
 326.5 412.516 l 1
 311.5 428.516 l 1
 311.5 -161.253 l 1
123.5 465.944 m 1
 108.5 450.944 l 1
 108.5 47.5361 l 1
 123.5 32.3857 l 1
 123.5 465.944 l 1
103.5 445.944 m 1
 88.5 430.944 l 1
 88.5 67.7363 l 1
 103.5 52.5869 l 1
 103.5 445.944 l 1
83.5 425.944 m 1
 68.5 410.944 l 1
 68.5 87.9365 l 1
 83.5 72.7861 l 1
 83.5 425.944 l 1
63.5 405.944 m 1
 55 397.444 l 1
 55 101.571 l 1
 63.5 92.9863 l 1
 63.5 405.944 l 1
EndSplineSet
EndChar

StartChar: r
Encoding: 114 114 70
Width: 400
VWidth: 960
GlyphClass: 2
Flags: W
VStem: 266.5 5<374 471.168> 286.5 5<374 450.968> 306.5 5<374.001 430.769> 326.5 5<374.001 410.568>
LayerCount: 2
Fore
SplineSet
344 397.943 m 1
 344 374 l 1
 331.5 374 l 1
 331.5 410.568 l 1
 344 397.943 l 1
155 5 m 1
 155 395 l 1
 244 395 l 1
 244 369 l 1
 249 364 l 1
 349 364 l 1
 354 369 l 1
 354 400 l 1
 352.553 403.518 l 1
 252.553 504.518 l 1
 251.086 503.914 l 1
 249 506 l 1
 150 506 l 1
 147.919 503.919 l 1
 146.464 504.518 l 1
 46.4639 403.518 l 1
 45 400 l 1
 45 340 44.5361 59.5352 44.5361 -0.464844 c 1
 46 -4 l 1
 146.464 -3.53516 l 1
 147.929 -2.92871 l 1
 155 5 l 1
244 405 m 1
 155 405 l 1
 155 496 l 1
 244 496 l 1
 244 405 l 1
254 488.843 m 1
 266.5 476.218 l 1
 266.5 374 l 1
 254 374 l 1
 254 400 l 1
 254 488.843 l 1
145 7 m 1
 133.5 7 l 1
 133.5 477.228 l 1
 145 488.843 l 1
 145 7 l 1
271.5 471.168 m 1
 286.5 456.018 l 1
 286.5 374 l 1
 271.5 374 l 1
 271.5 471.168 l 1
291.5 450.968 m 1
 306.5 435.818 l 1
 306.5 374 l 1
 291.5 374 l 1
 291.5 450.968 l 1
311.5 430.769 m 1
 326.5 415.619 l 1
 326.5 374.001 l 1
 311.5 374.001 l 1
 311.5 430.769 l 1
128.5 7.00195 m 1
 113.5 7.00098 l 1
 113.5 457.029 l 1
 128.5 472.18 l 1
 128.5 7.00195 l 1
108.5 7.00098 m 1
 93.5 7 l 1
 93.5 436.828 l 1
 108.5 451.979 l 1
 108.5 7.00098 l 1
88.5 7 m 1
 73.5 7 l 1
 73.5 416.628 l 1
 88.5 431.778 l 1
 88.5 7 l 1
68.5 7 m 1
 55 7 l 1
 55 397.943 l 1
 68.5 411.578 l 1
 68.5 7 l 1
EndSplineSet
EndChar

StartChar: s
Encoding: 115 115 71
Width: 406
VWidth: 960
GlyphClass: 2
Flags: W
HStem: -6.00195 10<161.001 250.001> 94.998 10<161.001 250.001> 125.998 10<61 73.5 78.501 93.501 98.501 113.501 118.501 133.501 138.501 151.001> 192.872 10.13<161.593 250.592> 294.869 9.99802<161.593 250.593> 363.998 10<260.465 272.965 277.965 292.965 297.965 312.965 317.965 332.965 337.965 350.465> 394.998 10<161.465 250.465> 495.998 10<161.465 250.465>
VStem: 51.4648 9.9991<102.055 125.998 300.925 397.941> 73.5 5.001<89.4297 125.998 287.29 411.577> 93.501 5<69.2305 125.998 267.09 431.776> 113.501 5<49.0303 125.998 246.89 451.976> 133.501 5<28.8301 125.998 226.688 472.176> 151.593 10<11.1553 94.998 104.998 125.998 210.025 294.869 304.867 394.998 404.998 488.843> 250.593 9.99998<11.1572 94.998 104.998 192.872 203.002 287.712 373.998 394.998 404.998 488.841> 273.093 5<29.8223 270.037 373.998 471.166> 293.093 5<50.0225 249.837 373.998 450.966> 313.5 4.59299<70.2207 229.636 373.997 430.765> 333.093 5<90.4219 209.438 373.998 410.566> 350 11.001<102.057 196.812 373.998 397.941>
LayerCount: 2
Fore
SplineSet
350.593 196.812 m 1
 338.093 209.438 l 1
 338.093 90.4219 l 1
 350 102.057 l 1
 350.593 196.812 l 1
161.593 203.002 m 1
 250.593 203.002 l 1
 250.593 294.869 l 1
 161.593 294.869 l 1
 161.593 203.002 l 1
273.093 24.7725 m 1
 273.093 275.087 l 1
 260.593 287.712 l 1
 260.593 11.1572 l 1
 273.093 24.7725 l 1
151.464 488.843 m 1
 139.964 477.228 l 1
 139.964 221.642 l 1
 151.593 210.025 l 1
 151.464 488.843 l 1
293.093 44.9717 m 1
 293.093 254.887 l 1
 278.093 270.037 l 1
 278.093 29.8223 l 1
 293.093 44.9717 l 1
313.5 65.1719 m 1
 313.5 113.445 313.093 193.999 313.093 234.688 c 1
 298.093 249.837 l 1
 298.093 50.0225 l 1
 313.5 65.1719 l 1
333.093 85.3711 m 1
 333.093 214.485 l 1
 318.093 229.636 l 1
 318.093 70.2207 l 1
 333.093 85.3711 l 1
134.964 472.176 m 1
 119.964 457.025 l 1
 119.964 241.839 l 1
 135.093 226.688 l 1
 134.964 472.176 l 1
114.964 451.976 m 1
 99.9639 436.826 l 1
 99.9639 262.039 l 1
 115.093 246.89 l 1
 114.964 451.976 l 1
94.9639 431.776 m 1
 79.9639 416.627 l 1
 79.9639 282.24 l 1
 95.0928 267.09 l 1
 94.9639 431.776 l 1
74.9639 411.577 m 1
 61.4639 397.941 l 1
 61.4639 300.925 l 1
 75.0928 287.29 l 1
 74.9639 411.577 l 1
61 102.055 m 1
 73.5 89.4297 l 1
 73.5 125.998 l 1
 61 125.998 l 1
 61 102.055 l 1
361 198.998 m 1
 361.001 99.998 l 1
 359.001 95.998 l 1
 258.537 -4.51953 l 1
 257.082 -3.9209 l 1
 255.001 -6.00195 l 1
 156.001 -6.00195 l 1
 153.915 -3.91602 l 1
 152.448 -4.51953 l 1
 52.4482 96.4805 l 1
 51.001 99.998 l 1
 51.001 130.998 l 1
 56.001 135.998 l 1
 156.001 135.998 l 1
 161.001 130.998 l 1
 161.001 104.998 l 1
 250.592 104.998 l 1
 250.592 192.872 l 1
 156.594 192.872 l 1
 154.513 194.948 l 1
 153.058 194.351 l 1
 53.0576 295.351 l 1
 51.4648 298.867 l 1
 51.4648 399.998 l 1
 52.9287 403.516 l 1
 152.929 504.516 l 1
 154.384 503.917 l 1
 156.465 505.998 l 1
 255.465 505.998 l 1
 257.551 503.912 l 1
 259.018 504.516 l 1
 359.001 403.998 l 1
 360.001 399.998 l 1
 360.001 368.998 l 1
 355.465 363.998 l 1
 255.465 363.998 l 1
 250.465 368.998 l 1
 250.465 394.998 l 1
 161.465 394.998 l 1
 161.465 304.867 l 1
 255.594 304.867 l 1
 257.68 302.781 l 1
 259.146 303.385 l 1
 359 201.998 l 1
 361 198.998 l 1
161.001 94.998 m 1
 161.001 3.99805 l 1
 250.001 3.99805 l 1
 250.001 94.998 l 1
 161.001 94.998 l 1
151.001 11.1553 m 1
 151.001 99.998 l 1
 151.001 125.998 l 1
 138.501 125.998 l 1
 138.501 23.7803 l 1
 151.001 11.1553 l 1
133.501 28.8301 m 1
 133.501 125.998 l 1
 118.501 125.998 l 1
 118.501 43.9805 l 1
 133.501 28.8301 l 1
113.501 49.0303 m 1
 113.501 125.998 l 1
 98.501 125.998 l 1
 98.501 64.1797 l 1
 113.501 49.0303 l 1
93.501 69.2305 m 1
 93.501 125.998 l 1
 78.501 125.998 l 1
 78.501 84.3799 l 1
 93.501 69.2305 l 1
350.465 397.941 m 1
 337.965 410.566 l 1
 337.965 373.998 l 1
 350.465 373.998 l 1
 350.465 397.941 l 1
250.465 404.998 m 1
 250.465 495.998 l 1
 161.465 495.998 l 1
 161.465 404.998 l 1
 250.465 404.998 l 1
260.465 488.841 m 1
 260.465 399.998 l 1
 260.465 373.998 l 1
 272.965 373.998 l 1
 272.965 476.216 l 1
 260.465 488.841 l 1
277.965 471.166 m 1
 277.965 373.998 l 1
 292.965 373.998 l 1
 292.965 456.016 l 1
 277.965 471.166 l 1
297.965 450.966 m 1
 297.965 373.997 l 1
 312.965 373.997 l 1
 312.965 435.815 l 1
 297.965 450.966 l 1
317.965 430.765 m 1
 317.965 373.996 l 1
 332.965 373.996 l 1
 332.965 415.614 l 1
 317.965 430.765 l 1
EndSplineSet
EndChar

StartChar: t
Encoding: 116 116 72
Width: 300
VWidth: 960
GlyphClass: 2
Flags: W
HStem: -3.51855 21G<139.249 163 163 186.355> 126.999 9.99999<168 180.5 185.5 200.5 205.5 220.5 225.5 240.031 244.754 258> 395.999 10.001<8.35449 55.999 168 236.031> 506 9.99902<168 290.576>
VStem: 56 9.999<103.056 395.999 406 494.828> 79.499 5<89.4209 522.429> 99.499 5<69.2207 542.429> 119.499 5<49.0205 562.428> 139.499 5.00101<28.8193 582.427> 158 10<12.1553 126.999 136.999 395.999 406 506 515.999 598.928> 180.5 5<29.8301 126.999> 200.5 5<50.0303 126.999> 220.5 5<70.2305 126.999> 240.319 4.778<90.0244 126.999> 258 10<103.056 126.999>
LayerCount: 2
Fore
SplineSet
258 103.056 m 1
 258 126.999 l 1
 245.057 126.999 l 1
 244.603 121.122 244.51 116.105 244.51 111.575 c 0
 244.51 104.226 244.797 96.875 245.097 90.0244 c 1
 258 103.056 l 1
166.553 -3.51855 m 1
 163 -2.05762 l 1
 159.447 -3.51855 l 1
 57.4473 97.4814 l 1
 56 100.999 l 1
 56 395.999 l 1
 0 395.999 l 1
 -4.40625 403.362 l 1
 54.5938 513.362 l 1
 58.7793 515.867 l 1
 159.447 614.535 l 1
 168 610.999 l 1
 168 515.999 l 1
 299 515.999 l 1
 303.389 508.605 l 1
 243.389 398.605 l 1
 239 395.999 l 1
 168 395.999 l 1
 168 136.999 l 1
 263 136.999 l 1
 268 131.999 l 1
 268 100.999 l 1
 266.553 97.4814 l 1
 166.553 -3.51855 l 1
168 12.1553 m 1
 180.5 24.7803 l 1
 180.5 126.999 l 1
 168 126.999 l 1
 168 12.1553 l 1
158 131.999 m 1
 158 598.928 l 1
 144.5 587.428 l 1
 144.5 23.7705 l 1
 158 12.1553 l 1
 158 131.999 l 1
185.5 29.8301 m 1
 200.5 44.9805 l 1
 200.5 126.999 l 1
 185.5 126.999 l 1
 185.5 29.8301 l 1
205.5 50.0303 m 1
 220.5 65.1807 l 1
 220.5 126.999 l 1
 205.5 126.999 l 1
 205.5 50.0303 l 1
225.5 70.2305 m 1
 240.319 85.1982 l 1
 239.91 94.583 239.522 102.117 239.51 111.574 c 0
 239.503 116.054 239.589 121.09 240.031 126.999 c 1
 225.5 126.999 l 1
 225.5 70.2305 l 1
139.499 582.427 m 1
 124.499 567.428 l 1
 124.499 43.9697 l 1
 139.499 28.8193 l 1
 139.499 582.427 l 1
119.499 562.428 m 1
 104.499 547.429 l 1
 104.499 64.1709 l 1
 119.499 49.0205 l 1
 119.499 562.428 l 1
99.499 542.429 m 1
 84.499 527.429 l 1
 84.499 84.3711 l 1
 99.499 69.2207 l 1
 99.499 542.429 l 1
79.499 522.429 m 1
 65.999 508.929 l 1
 65.999 103.056 l 1
 79.499 89.4209 l 1
 79.499 522.429 l 1
167.999 506 m 1
 167.999 406 l 1
 236.031 406 l 1
 290.576 506 l 1
 167.999 506 l 1
55.999 406 m 1
 55.999 494.828 l 1
 8.35449 406 l 1
 55.999 406 l 1
EndSplineSet
EndChar

StartChar: u
Encoding: 117 117 73
Width: 400
VWidth: 960
GlyphClass: 2
Flags: W
HStem: -23.9141 20G<146.447 150 249 252.535>
VStem: 66.5 5<90.4414 495> 86.5 5<70.2412 495> 106.5 5<50.042 495> 126.5 5<29.8418 495> 270.5 5<32.8711 466.429> 290.5 5<53.0713 446.429> 310.5 5<73.2715 426.429> 330.5 5<93.4717 406.429>
LayerCount: 2
Fore
SplineSet
354 400 m 1
 352.535 403.535 l 1
 252.535 503.535 l 1
 244 500 l 1
 244 105 l 1
 155 105 l 1
 155 500 l 1
 150 505 l 1
 50 505 l 1
 45 500 l 1
 45 100 l 1
 46.4473 96.4824 l 1
 146.447 -4.51758 l 1
 147.914 -3.91406 l 1
 150 -6 l 1
 249 -6 l 1
 251.081 -3.91895 l 1
 252.535 -4.51758 l 1
 352.535 96.4824 l 1
 354 100 l 1
 354 400 l 1
55 102.057 m 1
 55 495 l 1
 66.5 495 l 1
 66.5 90.4414 l 1
 55 102.057 l 1
244 95 m 1
 244 4 l 1
 155 4 l 1
 155 95 l 1
 244 95 l 1
254 100 m 1
 254 487.929 l 1
 270.5 471.429 l 1
 270.5 27.8213 l 1
 254 11.1562 l 1
 254 100 l 1
131.5 24.792 m 1
 131.5 495 l 1
 145 495 l 1
 145 100 l 1
 145 11.1562 l 1
 131.5 24.792 l 1
126.5 29.8418 m 1
 111.5 44.9912 l 1
 111.5 495 l 1
 126.5 495 l 1
 126.5 29.8418 l 1
106.5 50.042 m 1
 91.5 65.1914 l 1
 91.5 495 l 1
 106.5 495 l 1
 106.5 50.042 l 1
86.5 70.2412 m 1
 71.5 85.3916 l 1
 71.5 495 l 1
 86.5 495 l 1
 86.5 70.2412 l 1
275.5 466.429 m 1
 290.5 451.429 l 1
 290.5 48.0215 l 1
 275.5 32.8711 l 1
 275.5 466.429 l 1
295.5 446.429 m 1
 310.5 431.429 l 1
 310.5 68.2217 l 1
 295.5 53.0713 l 1
 295.5 446.429 l 1
315.5 426.429 m 1
 330.5 411.429 l 1
 330.5 88.4219 l 1
 315.5 73.2715 l 1
 315.5 426.429 l 1
335.5 406.429 m 1
 344 397.929 l 1
 344 102.057 l 1
 335.5 93.4717 l 1
 335.5 406.429 l 1
EndSplineSet
EndChar

StartChar: v
Encoding: 118 118 74
Width: 350
VWidth: 960
GlyphClass: 2
Flags: W
HStem: -6.00098 9.99903<131.052 141.257 146.623 159.537 164.899 177.804 183.165 196.064 201.425 211.659>
VStem: 24.6416 10.001<238.983 271.287 284.824 323.527 337.271 375.853 389.757 428.237 442.266 473.56> 324.644 9.99899<262.899 471.904>
LayerCount: 2
Fore
SplineSet
179.026 121.886 m 1
 218.889 13.4395 l 1
 324.644 262.899 l 1
 324.955 471.904 l 1
 179.026 121.886 l 1
325.386 498.923 m 1
 335.002 496.988 l 1
 334.93 457.189 334.715 301.789 334.643 261.988 c 1
 334.331 260.263 l 1
 312.181 200.462 245.719 57.0625 223.567 -2.7373 c 1
 221.146 -2.7373 l 1
 218.89 -6.00098 l 1
 127.697 -6.00098 l 1
 123.071 -2.89844 l 1
 25.0156 236.102 l 1
 24.6416 237.999 l 1
 24.6416 500.999 l 1
 34.3203 502.763 l 1
 173.294 134.119 l 1
 325.386 498.923 l 1
146.623 3.99805 m 1
 159.537 3.99805 l 1
 34.6426 323.527 l 1
 34.6426 284.824 l 1
 146.623 3.99805 l 1
141.257 3.99805 m 1
 34.6426 271.287 l 1
 34.6426 238.983 l 1
 131.052 3.99805 l 1
 141.257 3.99805 l 1
164.899 3.99805 m 1
 177.804 3.99805 l 1
 34.6416 375.853 l 1
 34.6416 337.271 l 1
 164.899 3.99805 l 1
183.165 3.99805 m 1
 196.064 3.99805 l 1
 34.6406 428.237 l 1
 34.6406 389.757 l 1
 183.165 3.99805 l 1
201.425 3.99805 m 1
 211.659 3.99805 l 1
 34.6406 473.56 l 1
 34.6406 442.266 l 1
 201.425 3.99805 l 1
EndSplineSet
EndChar

StartChar: w
Encoding: 119 119 75
Width: 604
VWidth: 960
GlyphClass: 2
Flags: W
HStem: -6 10<155 244 354 448> 95 10<155 244 354 448> 444 9.535<254 270.5 275.5 290.5 295.5 310.5 315.5 330.5 335.5 344> 495 10<55 66.5 71.5 86.5 91.5 106.5 111.5 126.5 131.5 145>
VStem: 45 10<102.057 495> 66.5 5<90.4414 495> 86.5 5<70.2412 495> 106.5 5<50.042 495> 126.5 5<29.8418 495> 145 10<11.1562 95 105 495> 244 10<11.1562 95 105 444> 270.5 5<32.9385 444> 290.5 5<53.4082 444> 310.5 5<47.2227 55.5596 73.8779 444> 331.5 5<25.5 76.3613 95.1738 444> 344 10<11.1572 88.9551 105 444> 448 10<11.1562 95 105 487.929> 474.5 5<32.8711 466.429> 494.5 5<53.0713 446.429> 514.5 5<73.2715 426.429> 534.5 5<93.4717 406.429> 548 10<102.057 397.929>
LayerCount: 2
Fore
SplineSet
344 444 m 1
 335.5 444 l 1
 336.307 95.1738 l 1
 344 103.048 l 1
 344 444 l 1
354 105 m 1
 448 105 l 1
 448 500 l 1
 456.535 503.535 l 1
 556.535 403.535 l 1
 558 400 l 1
 558 100 l 1
 556.535 96.4824 l 1
 456.535 -4.51758 l 1
 455.081 -3.91895 l 1
 453 -6 l 1
 349 -6 l 1
 346.914 -3.91895 l 1
 345.447 -4.51758 l 1
 300.195 45.2861 l 1
 252.535 -4.51758 l 1
 251.081 -3.91895 l 1
 249 -6 l 1
 150 -6 l 1
 147.914 -3.91895 l 1
 146.447 -4.51758 l 1
 46.4473 96.4824 l 1
 45 100 l 1
 45 500 l 1
 50 505 l 1
 150 505 l 1
 155 500 l 1
 155 105 l 1
 244 105 l 1
 244 450 l 1
 252.535 453.535 l 1
 352.535 453.535 l 1
 354 450 l 1
 354 105 l 1
448 95 m 1
 354 95 l 1
 354 4 l 1
 448 4 l 1
 448 95 l 1
458 100 m 1
 458 11.1562 l 1
 474.5 27.8213 l 1
 474.5 471.429 l 1
 458 487.929 l 1
 458 100 l 1
479.5 466.429 m 1
 479.5 32.8711 l 1
 494.5 48.0215 l 1
 494.5 451.429 l 1
 479.5 466.429 l 1
499.5 446.429 m 1
 499.5 53.0713 l 1
 514.5 68.2217 l 1
 514.5 431.429 l 1
 499.5 446.429 l 1
519.5 426.429 m 1
 519.5 73.2715 l 1
 534.5 88.4219 l 1
 534.5 411.429 l 1
 519.5 426.429 l 1
539.5 406.429 m 1
 539.5 93.4717 l 1
 548 102.057 l 1
 548 397.929 l 1
 539.5 406.429 l 1
55 102.057 m 1
 66.5 90.4414 l 1
 66.5 495 l 1
 55 495 l 1
 55 102.057 l 1
244 95 m 1
 155 95 l 1
 155 4 l 1
 244 4 l 1
 244 95 l 1
254 100 m 1
 254 11.1562 l 1
 270.5 27.8213 l 1
 270.5 444 l 1
 254 444 l 1
 254 100 l 1
131.5 24.792 m 1
 145 11.1562 l 1
 145 100 l 1
 145 495 l 1
 131.5 495 l 1
 131.5 24.792 l 1
126.5 29.8418 m 1
 126.5 495 l 1
 111.5 495 l 1
 111.5 44.9912 l 1
 126.5 29.8418 l 1
106.5 50.042 m 1
 106.5 495 l 1
 91.5 495 l 1
 91.5 65.1914 l 1
 106.5 50.042 l 1
86.5 70.2412 m 1
 86.5 495 l 1
 71.5 495 l 1
 71.5 85.3916 l 1
 86.5 70.2412 l 1
315.5 41 m 1
 331.5 25.5 l 1
 331.368 76.3613 l 1
 315.5 60.543 l 1
 315.5 41 l 1
310.5 68.7607 m 1
 310.5 444 l 1
 295.5 444 l 1
 295.5 53.4082 l 1
 310.5 68.7607 l 1
290.5 48.291 m 1
 290.5 444 l 1
 275.5 444 l 1
 275.5 32.9385 l 1
 290.5 48.291 l 1
315.5 73.8779 m 1
 330.333 89.083 l 1
 330.5 444 l 1
 315.5 444 l 1
 315.5 73.8779 l 1
310.5 55.5596 m 1
 306.231 51.3037 l 1
 310.5 47.2227 l 1
 310.5 55.5596 l 1
344 88.9551 m 1
 336.342 81.3213 l 1
 336.5 20.501 l 1
 344 11.1572 l 1
 344 88.9551 l 1
EndSplineSet
EndChar

StartChar: x
Encoding: 120 120 76
Width: 300
VWidth: 960
GlyphClass: 2
Flags: W
HStem: -5.00098 10.001<7.49512 87.8105 212.145 222.292 227.686 240.553 245.949 258.815 264.208 277.078 282.469 292.664> 497 9.99899<7.49512 19.9082 25.3027 40.4355 45.832 60.9658 66.3584 81.4941 86.8848 99.3467 210.391 292.445>
VStem: -4.61621 309.269
LayerCount: 2
Fore
SplineSet
143.555 143.858 m 1
 104.811 237.005 l 1
 7.49512 5 l 1
 87.8105 5 l 1
 143.555 143.858 l 1
160.087 369.758 m 1
 197.937 273.428 l 1
 292.445 496 l 1
 210.391 496 l 1
 160.087 369.758 l 1
282.469 5 m 1
 292.664 5 l 1
 99.3467 497 l 1
 86.8848 497 l 1
 282.469 5 l 1
264.208 5 m 1
 277.078 5 l 1
 81.4941 497 l 1
 66.3584 497 l 1
 264.208 5 l 1
245.949 5 m 1
 258.815 5 l 1
 60.9658 497 l 1
 45.832 497 l 1
 245.949 5 l 1
222.292 5 m 1
 19.9082 497 l 1
 7.49512 497 l 1
 212.145 5 l 1
 222.292 5 l 1
227.686 5 m 1
 240.553 5 l 1
 40.4355 497 l 1
 25.3027 497 l 1
 227.686 5 l 1
304.653 1.82812 m 1
 300 -5.00098 l 1
 208.809 -5.00098 l 1
 204.191 -1.9209 l 1
 149.038 130.675 l 1
 95.8311 -1.86328 l 1
 91.1914 -5.00098 l 1
 0 -5.00098 l 1
 -4.61621 1.93262 l 1
 99.3896 249.911 l 1
 99.4424 249.911 l 1
 -4.61621 500.079 l 1
 -0 506.999 l 1
 102.753 506.999 l 1
 107.407 503.828 l 1
 154.741 383.359 l 1
 202.355 502.851 l 1
 207 506 l 1
 300 506 l 1
 304.602 499.046 l 1
 203.157 260.139 l 1
 304.653 1.82812 l 1
EndSplineSet
EndChar

StartChar: y
Encoding: 121 121 77
Width: 400
VWidth: 960
GlyphClass: 2
Flags: W
VStem: 68.5 5<-109.568 -73.001 90.4316 492.998> 88.5 5<-129.769 -73.001 70.2305 492.998> 108.5 5<-149.968 -73 50.0303 492.998> 128.5 5<-170.168 -73 29.8301 492.998> 266.5 5<-171.181 472.427> 286.5 5<-150.98 452.427> 306.5 5<-130.78 432.427> 326.5 5<-110.58 412.427>
LayerCount: 2
Fore
SplineSet
56 -96.9434 m 1
 56 -73 l 1
 68.5 -73 l 1
 68.5 -109.568 l 1
 56 -96.9434 l 1
56 103.057 m 1
 56 493 l 1
 68.5 493 l 1
 68.5 90.4316 l 1
 56 103.057 l 1
156 -104 m 1
 245 -104 l 1
 245 -195 l 1
 156 -195 l 1
 156 -104 l 1
146 -187.843 m 1
 133.5 -175.218 l 1
 133.5 -73 l 1
 146 -73 l 1
 146 -99 l 1
 146 -187.843 l 1
255 -99 m 1
 255 488.93 l 1
 266.5 477.43 l 1
 266.5 -176.228 l 1
 255 -187.843 l 1
 255 -99 l 1
245 106.001 m 1
 156 106 l 1
 156 496 l 1
 151 506 l 1
 148.925 503.925 l 1
 147.447 504.535 l 1
 47.4473 504.535 l 1
 46 501 l 1
 46 101 l 1
 47.4473 97.4824 l 1
 147.447 -3.51758 l 1
 151 -2.05664 l 1
 154.553 -3.51758 l 1
 245 87.833 l 1
 245 -94 l 1
 156 -94 l 1
 156 -68 l 1
 151 -63 l 1
 51 -63 l 1
 46 -68 l 1
 46 -99 l 1
 47.4473 -102.518 l 1
 147.447 -203.518 l 1
 148.914 -202.913 l 1
 151 -204.999 l 1
 250 -204.999 l 1
 252.081 -202.918 l 1
 253.536 -203.517 l 1
 353.536 -102.517 l 1
 355 -98.999 l 1
 355 401.001 l 1
 353.536 404.536 l 1
 253.536 504.536 l 1
 252.071 503.93 l 1
 250 506.001 l 1
 245 496.001 l 1
 245 106.001 l 1
146 101 m 1
 146 12.1572 l 1
 133.5 24.7822 l 1
 133.5 493 l 1
 146 493 l 1
 146 101 l 1
156 96 m 1
 239.013 96 l 1
 156 12.1572 l 1
 156 96 l 1
128.5 -170.168 m 1
 113.5 -155.018 l 1
 113.5 -73 l 1
 128.5 -73 l 1
 128.5 -170.168 l 1
108.5 -149.968 m 1
 93.5 -134.818 l 1
 93.5 -73 l 1
 108.5 -73 l 1
 108.5 -149.968 l 1
88.5 -129.769 m 1
 73.5 -114.619 l 1
 73.5 -73.001 l 1
 88.5 -73.001 l 1
 88.5 -129.769 l 1
128.5 29.8301 m 1
 113.5 44.9805 l 1
 113.5 492.998 l 1
 128.5 492.998 l 1
 128.5 29.8301 l 1
108.5 50.0303 m 1
 93.5 65.1797 l 1
 93.5 492.998 l 1
 108.5 492.998 l 1
 108.5 50.0303 l 1
88.5 70.2305 m 1
 73.5 85.3799 l 1
 73.5 492.998 l 1
 88.5 492.998 l 1
 88.5 70.2305 l 1
271.5 472.427 m 1
 286.5 457.427 l 1
 286.5 -156.03 l 1
 271.5 -171.181 l 1
 271.5 472.427 l 1
291.5 452.427 m 1
 306.5 437.427 l 1
 306.5 -135.83 l 1
 291.5 -150.98 l 1
 291.5 452.427 l 1
311.5 432.427 m 1
 326.5 417.427 l 1
 326.5 -115.63 l 1
 311.5 -130.78 l 1
 311.5 432.427 l 1
331.5 412.427 m 1
 345 398.927 l 1
 345 -96.9453 l 1
 331.5 -110.58 l 1
 331.5 412.427 l 1
EndSplineSet
EndChar

StartChar: z
Encoding: 122 122 78
Width: 300
VWidth: 960
GlyphClass: 2
Flags: W
HStem: -5 10<55.0625 287.843> 18.5 5<48.1777 269.158> 38.5 5<37.9775 248.958> 58.5 5<27.7773 228.758> 78.5 5<17.5771 208.558> 95 10<9.96387 110.754 122.506 196.942> 397 10<110.042 178.536 190.288 291.04> 418.5 5<98.3096 283.38> 438.518 4.992<77.8887 272.981> 459.485 5.00702<56.4961 262.563> 479.486 5.00702<36.0908 252.328> 495.999 10<19.2441 246.277>
VStem: -3.4541 307.905
LayerCount: 2
Fore
SplineSet
3.5 497.429 m 1
 7 505.999 l 1
 249.335 505.999 l 1
 253.786 503.284 l 1
 304.451 404.277 l 1
 302.92 401.773 l 1
 304.259 399.377 l 1
 122.506 105 l 1
 199 105 l 1
 202.518 103.553 l 1
 303.518 3.55273 l 1
 300 -5 l 1
 52 -5 l 1
 47.5459 -2.27148 l 1
 -3.4541 97.7285 l 1
 -1.91895 100.234 l 1
 -3.25391 102.627 l 1
 178.536 397 l 1
 108 397 l 1
 104.5 398.429 l 1
 3.5 497.429 l 1
30.9824 484.493 m 1
 252.328 484.176 l 1
 246.277 495.999 l 1
 19.2441 495.999 l 1
 30.9824 484.493 l 1
36.0908 479.486 m 1
 51.3877 464.492 l 1
 262.563 464.177 l 1
 254.89 479.172 l 1
 36.0908 479.486 l 1
56.4961 459.485 m 1
 72.7959 443.51 l 1
 272.981 443.822 l 1
 265.124 459.174 l 1
 56.4961 459.485 l 1
77.8887 438.518 m 1
 93.208 423.5 l 1
 283.38 423.5 l 1
 275.537 438.826 l 1
 77.8887 438.518 l 1
98.3096 418.5 m 1
 110.042 407 l 1
 187.5 407 l 1
 291.825 407 l 1
 285.939 418.5 l 1
 98.3096 418.5 l 1
274.208 18.5 m 1
 48.1777 18.5 l 1
 55.0625 5 l 1
 287.843 5 l 1
 274.208 18.5 l 1
269.158 23.5 m 1
 254.008 38.5 l 1
 37.9775 38.5 l 1
 45.6279 23.5 l 1
 269.158 23.5 l 1
248.958 43.5 m 1
 233.808 58.5 l 1
 27.7773 58.5 l 1
 35.4277 43.5 l 1
 248.958 43.5 l 1
228.758 63.5 m 1
 213.607 78.5 l 1
 17.5771 78.5 l 1
 25.2275 63.5 l 1
 228.758 63.5 l 1
208.558 83.5 m 1
 196.942 95 l 1
 113.542 95 l 1
 9.16211 95 l 1
 15.0273 83.5 l 1
 208.558 83.5 l 1
110.754 105 m 1
 291.04 397 l 1
 190.288 397 l 1
 9.96387 105 l 1
 110.754 105 l 1
EndSplineSet
EndChar

StartChar: bar
Encoding: 124 124 79
Width: 300
VWidth: 960
GlyphClass: 2
Flags: W
HStem: -154 10<128 169> 663 10<128 169>
VStem: 118 10<-144 663> 169 10<-144 663>
LayerCount: 2
Fore
SplineSet
179 -149 m 1
 174 -154 l 1
 123 -154 l 1
 118 -149 l 1
 118 668 l 1
 123 673 l 1
 174 673 l 1
 179 668 l 1
 179 -149 l 1
169 663 m 1
 128 663 l 1
 128 -144 l 1
 169 -144 l 1
 169 663 l 1
EndSplineSet
EndChar

StartChar: exclamdown
Encoding: 161 161 80
Width: 200
VWidth: 960
GlyphClass: 2
Flags: W
HStem: -208.553 10<49.0723 62.5723 67.5723 82.5723 87.5723 102.572 107.572 122.572 127.572 139.072> 241.447 10<49.0723 62.5723 67.5723 82.5723 87.5723 102.572 107.572 122.572 127.572 139.072> 345 10<39.1289 155.973> 366.5 5<39.0039 155.973> 386.5 5<38.7881 155.973> 406.5 5<38.5723 155.973> 426.5 5<38.3564 155.973> 445 10<38.1562 155.973>
VStem: 25.0088 13.9414<355 366.5 371.5 386.5 391.5 406.5 411.5 426.5 431.5 445> 39.0723 10<-198.553 241.447> 62.5723 5<-198.553 241.447> 82.5723 5<-198.553 241.447> 102.572 5<-198.553 241.447> 122.572 5<-198.553 241.447> 139.072 10<-198.553 241.447> 155.973 14.171<355 366.5 371.5 386.5 391.5 406.5 411.5 426.5 431.5 445>
LayerCount: 2
Fore
SplineSet
38.7881 386.5 m 1
 38.9502 371.5 l 1
 155.973 371.5 l 1
 155.973 386.5 l 1
 38.7881 386.5 l 1
38.5723 406.5 m 1
 38.7344 391.5 l 1
 155.973 391.5 l 1
 155.973 406.5 l 1
 38.5723 406.5 l 1
38.3564 426.5 m 1
 38.5176 411.5 l 1
 155.973 411.5 l 1
 155.973 426.5 l 1
 38.3564 426.5 l 1
38.3018 431.5 m 1
 155.973 431.5 l 1
 155.973 445 l 1
 38.1562 445 l 1
 38.3018 431.5 l 1
23.9277 446.447 m 1
 35.9922 455 l 1
 167.992 455 l 1
 170.063 453.535 l 1
 170.144 353.535 l 1
 158.08 345 l 1
 27.0801 345 l 1
 25.0088 346.447 l 1
 23.9277 446.447 l 1
39.1289 355 m 1
 155.973 355 l 1
 155.973 366.5 l 1
 39.0039 366.5 l 1
 39.1289 355 l 1
139.072 -198.553 m 1
 139.072 241.447 l 1
 127.572 241.447 l 1
 127.572 -198.553 l 1
 139.072 -198.553 l 1
44.0723 -208.553 m 1
 39.0723 -203.553 l 1
 39.0723 246.447 l 1
 44.0723 251.447 l 1
 144.072 251.447 l 1
 149.072 246.447 l 1
 149.072 -203.553 l 1
 144.072 -208.553 l 1
 44.0723 -208.553 l 1
62.5723 -198.553 m 1
 62.5723 241.447 l 1
 49.0723 241.447 l 1
 49.0723 -198.553 l 1
 62.5723 -198.553 l 1
67.5723 -198.553 m 1
 82.5723 -198.553 l 1
 82.5723 241.447 l 1
 67.5723 241.447 l 1
 67.5723 -198.553 l 1
87.5723 -198.553 m 1
 102.572 -198.553 l 1
 102.572 241.447 l 1
 87.5723 241.447 l 1
 87.5723 -198.553 l 1
107.572 -198.553 m 1
 122.572 -198.553 l 1
 122.572 241.447 l 1
 107.572 241.447 l 1
 107.572 -198.553 l 1
EndSplineSet
EndChar

StartChar: sterling
Encoding: 163 163 81
Width: 372
VWidth: 960
GlyphClass: 2
Flags: W
HStem: -5 10.0019<155 365> 95.002 9.998<155 365> 245 10.002<5 45 155 265> 345.002 9.99799<5 45 155 265> 463 10.002<225 237.5 242.5 257.5 262.5 277.5 282.5 297.5 302.5 315> 495 10.002<155 215> 595.002 9.99799<155 215>
VStem: -5 10<255 345> 45 10<101.575 497.943> 66.5 5<89.96 509.56> 86.5 5<69.7598 529.76> 106.5 5<49.5605 549.961> 126.5 5<29.3623 570.16> 145 10<10.6758 95.002 105 245 255.002 345.002 355 495 505.002 588.846> 215 10<473.002 495 505.002 587.846> 237.5 5<473.002 570.171> 257.5 5<473.002 549.971> 265 10<255.002 345.002> 277.5 5<473.001 529.769> 297.5 5<473 509.568> 315 10<473 496.943> 365 10<5.00195 95.002>
LayerCount: 2
Fore
SplineSet
-5 250 m 1
 -5 350 l 1
 5 355 l 1
 50 355 l 1
 55 350 l 1
 55 250 l 1
 50 245 l 1
 5 245 l 1
 -5 250 l 1
5 345 m 1
 5 255 l 1
 45 255 l 1
 45 345 l 1
 5 345 l 1
375 11.1562 m 1
 371.377 -3.62305 l 1
 370 -5 l 1
 150 -5 l 1
 148.965 -3.96484 l 1
 146.447 -5 l 1
 46.4473 96 l 1
 45 99.5176 l 1
 45 500 l 1
 46.4473 503.518 l 1
 146.447 604.518 l 1
 148.623 603.623 l 1
 150 605 l 1
 220 605 l 1
 222.086 602.914 l 1
 223.553 603.518 l 1
 323.553 502.518 l 1
 325 499 l 1
 325 468 l 1
 320 463 l 1
 220 463 l 1
 215 468 l 1
 215 495 l 1
 155 495 l 1
 155 355 l 1
 270 355 l 1
 275 350 l 1
 275 250 l 1
 270 245 l 1
 155 245 l 1
 155 105 l 1
 365 105 l 1
 375 100 l 1
 375 11.1562 l 1
55 101.575 m 1
 66.5 89.96 l 1
 66.5 509.56 l 1
 55 497.943 l 1
 55 101.575 l 1
86.5 529.76 m 1
 71.5 514.609 l 1
 71.5 84.9111 l 1
 86.5 69.7598 l 1
 86.5 529.76 l 1
106.5 549.961 m 1
 91.5 534.811 l 1
 91.5 64.7109 l 1
 106.5 49.5605 l 1
 106.5 549.961 l 1
126.5 570.16 m 1
 111.5 555.011 l 1
 111.5 44.5107 l 1
 126.5 29.3623 l 1
 126.5 570.16 l 1
155 95.002 m 1
 155 5.00195 l 1
 365 5.00195 l 1
 365 95.002 l 1
 155 95.002 l 1
145 10.6758 m 1
 145 100.002 l 1
 145 250.002 l 1
 145 350.002 l 1
 145 500.002 l 1
 145 588.846 l 1
 131.5 575.211 l 1
 131.5 24.3105 l 1
 145 10.6758 l 1
155 345.002 m 1
 155 255.002 l 1
 265 255.002 l 1
 265 345.002 l 1
 155 345.002 l 1
155 595.002 m 1
 155 505.002 l 1
 215 505.002 l 1
 215 595.002 l 1
 155 595.002 l 1
225 500.002 m 1
 225 473.002 l 1
 237.5 473.002 l 1
 237.5 575.221 l 1
 225 587.846 l 1
 225 500.002 l 1
242.5 473.002 m 1
 257.5 473.002 l 1
 257.5 555.02 l 1
 242.5 570.171 l 1
 242.5 473.002 l 1
262.5 473.002 m 1
 277.5 473.001 l 1
 277.5 534.819 l 1
 262.5 549.971 l 1
 262.5 473.002 l 1
282.5 473.001 m 1
 297.5 473 l 1
 297.5 514.618 l 1
 282.5 529.769 l 1
 282.5 473.001 l 1
302.5 473 m 1
 315 473 l 1
 315 496.943 l 1
 302.5 509.568 l 1
 302.5 473 l 1
EndSplineSet
EndChar

StartChar: dieresis
Encoding: 168 168 82
Width: 450
VWidth: 960
GlyphClass: 2
Flags: W
HStem: 555 10<55 66.5 71.5 86.5 91.5 106.5 111.5 126.5 131.5 145 255 266.5 271.5 286.5 291.5 306.5 311.5 326.5 331.5 345> 655 10<55 66.5 71.5 86.5 91.5 106.5 111.5 126.5 131.5 145 255 266.5 271.5 286.5 291.5 306.5 311.5 326.5 331.5 345>
VStem: 45 10<565 655> 66.5 5<565 655> 86.5 5<565 655> 106.5 5<565 655> 126.5 5<565 655> 145 10<565 655> 245 10<565 655> 266.5 5<565 655> 286.5 5<565 655> 306.5 5<565 655> 326.5 5<565 655> 345 10<565 655>
LayerCount: 2
Fore
SplineSet
255 655 m 1
 255 565 l 1
 266.5 565 l 1
 266.5 655 l 1
 255 655 l 1
350 665 m 1
 355 660 l 1
 355 560 l 1
 350 555 l 1
 250 555 l 1
 245 560 l 1
 245 660 l 1
 250 665 l 1
 350 665 l 1
331.5 655 m 1
 331.5 565 l 1
 345 565 l 1
 345 655 l 1
 331.5 655 l 1
326.5 655 m 1
 311.5 655 l 1
 311.5 565 l 1
 326.5 565 l 1
 326.5 655 l 1
306.5 655 m 1
 291.5 655 l 1
 291.5 565 l 1
 306.5 565 l 1
 306.5 655 l 1
286.5 655 m 1
 271.5 655 l 1
 271.5 565 l 1
 286.5 565 l 1
 286.5 655 l 1
55 655 m 1
 55 565 l 1
 66.5 565 l 1
 66.5 655 l 1
 55 655 l 1
150 665 m 1
 155 660 l 1
 155 560 l 1
 150 555 l 1
 50 555 l 1
 45 560 l 1
 45 660 l 1
 50 665 l 1
 150 665 l 1
131.5 655 m 1
 131.5 565 l 1
 145 565 l 1
 145 655 l 1
 131.5 655 l 1
126.5 655 m 1
 111.5 655 l 1
 111.5 565 l 1
 126.5 565 l 1
 126.5 655 l 1
106.5 655 m 1
 91.5 655 l 1
 91.5 565 l 1
 106.5 565 l 1
 106.5 655 l 1
86.5 655 m 1
 71.5 655 l 1
 71.5 565 l 1
 86.5 565 l 1
 86.5 655 l 1
EndSplineSet
EndChar

StartChar: acute
Encoding: 180 180 86
Width: 300
VWidth: 960
GlyphClass: 2
Flags: W
HStem: 527.864 157.74
VStem: -15.3945 319.69
LayerCount: 2
Fore
SplineSet
98.2783 656.438 m 1
 168.994 685.604 l 1
 172.798 685.605 l 1
 304.296 631.669 l 1
 304.305 622.421 l 1
 75.0391 527.864 l 1
 69.8809 528.688 l 1
 -15.3945 601.689 l 1
 -14.9307 604.592 l 1
 -5.7627 613.527 l 1
 98.2783 656.438 l 1
271.501 634.312 m 1
 62.5449 548.133 l 1
 74.0566 538.276 l 1
 289.253 627.03 l 1
 271.501 634.312 l 1
264.927 637.01 m 1
 245.201 645.1 l 1
 45.4902 562.731 l 1
 58.2812 551.781 l 1
 264.927 637.01 l 1
238.627 647.797 m 1
 218.901 655.888 l 1
 28.4346 577.333 l 1
 41.2266 566.383 l 1
 238.627 647.797 l 1
212.327 658.584 m 1
 192.603 666.676 l 1
 11.3799 591.935 l 1
 24.1709 580.982 l 1
 212.327 658.584 l 1
186.026 669.373 m 1
 170.904 675.575 l 1
 93.8037 643.777 l 1
 -2.69141 603.98 l 1
 7.11523 595.584 l 1
 186.026 669.373 l 1
EndSplineSet
EndChar

StartChar: cedilla
Encoding: 184 184 87
Width: 300
VWidth: 960
GlyphClass: 2
Flags: W
HStem: -186.228 10.01<82.4619 178.901> -86.9727 10<61.0801 105.466 116.028 127.557 132.85 147.652 152.949 166.414 171.716 186.845 192.114 198.12>
VStem: 40.8896 175.501
LayerCount: 2
Fore
SplineSet
82.4619 -176.218 m 1
 178.901 -175.988 l 1
 182.794 -163.5 l 1
 78.2021 -163.5 l 1
 82.4619 -176.218 l 1
40.8896 -83.5811 m 1
 42.6982 -77.9229 l 1
 126.872 -16.96 l 1
 132.75 -16.96 l 1
 216.391 -77.9229 l 1
 218.22 -83.4424 l 1
 187.355 -182.468 l 1
 182.595 -185.979 l 1
 78.8779 -186.228 l 1
 74.125 -182.814 l 1
 40.8896 -83.5811 l 1
198.12 -76.9727 m 1
 193.289 -73.4521 l 1
 192.114 -76.9727 l 1
 198.12 -76.9727 l 1
61.0801 -76.9727 m 1
 105.466 -76.9727 l 1
 120.003 -34.2773 l 1
 61.0801 -76.9727 l 1
52.5723 -86.9727 m 1
 56.4326 -98.501 l 1
 203.052 -98.501 l 1
 206.646 -86.9727 l 1
 52.5723 -86.9727 l 1
132.35 -29.042 m 1
 116.028 -76.9727 l 1
 127.557 -76.9727 l 1
 141.798 -35.9268 l 1
 132.35 -29.042 l 1
76.5283 -158.501 m 1
 184.353 -158.501 l 1
 189.027 -143.501 l 1
 71.5039 -143.501 l 1
 76.5283 -158.501 l 1
69.8301 -138.501 m 1
 190.586 -138.501 l 1
 195.262 -123.501 l 1
 64.8066 -123.501 l 1
 69.8301 -138.501 l 1
63.1318 -118.501 m 1
 196.819 -118.501 l 1
 201.495 -103.501 l 1
 58.1084 -103.501 l 1
 63.1318 -118.501 l 1
146.021 -39.0059 m 1
 132.85 -76.9727 l 1
 147.652 -76.9727 l 1
 157.886 -47.6504 l 1
 146.021 -39.0059 l 1
162.106 -50.7275 m 1
 152.949 -76.9727 l 1
 166.414 -76.9727 l 1
 172.893 -58.5869 l 1
 162.106 -50.7275 l 1
177.11 -61.6611 m 1
 171.716 -76.9727 l 1
 186.845 -76.9727 l 1
 189.051 -70.3623 l 1
 177.11 -61.6611 l 1
EndSplineSet
EndChar

StartChar: questiondown
Encoding: 191 191 89
Width: 400
VWidth: 960
GlyphClass: 2
Flags: W
HStem: -148.553 10<162 251> -47.5527 10<162 251> -16.5527 9.99997<261 273.5 278.5 293.5 298.5 313.5 318.5 333.5 338.5 351> 250.447 11.518<170.536 182.036 187.036 202.036 207.036 222.036 227.036 242.036 247.036 260.536> 346 10<157.057 273.9> 367.5 5<156.932 273.9> 387.5 5<156.716 273.9> 407.5 5<156.5 273.9> 427.5 5<156.284 273.9> 446 10<156.084 273.9>
VStem: 51 11<-40.4961 54.2588> 73.9072 5<-52.1309 66.8848> 93.9072 4.5928<-72.3311 87.084> 113.907 5<-92.5312 107.284> 133.907 5<-112.731 127.484> 142.938 13.994<356 367.5 372.5 387.5 392.5 407.5 412.5 427.5 432.5 446> 151.407 9<-131.396 -47.5527 -37.5527 50.3213 60.4492 145.159> 161.407 9<67.4727 152.316 162.316 250.447> 182.036 4.871<84.1377 250.447> 202.036 4.871<104.339 250.447> 222.036 4.871<124.538 250.447> 242.036 4.871<144.738 250.447> 251 10<-131.396 -47.5527 -37.5527 -16.5527> 260.536 10<158.373 250.447> 273.5 5<-113.721 -16.5527> 273.9 14.171<356 367.5 372.5 387.5 392.5 407.5 412.5 427.5 432.5 446> 293.5 5<-93.5215 -16.5527> 313.5 5<-73.3213 -16.5527> 333.5 5<-53.1211 -16.5527> 351 10<-40.4961 -16.5527>
LayerCount: 2
Fore
SplineSet
156.716 387.5 m 1xfffe7c7c
 156.878 372.5 l 1
 273.9 372.5 l 1
 273.9 387.5 l 1
 156.716 387.5 l 1xfffe7c7c
156.5 407.5 m 1
 156.662 392.5 l 1
 273.9 392.5 l 1
 273.9 407.5 l 1
 156.5 407.5 l 1
156.284 427.5 m 1
 156.446 412.5 l 1
 273.9 412.5 l 1
 273.9 427.5 l 1
 156.284 427.5 l 1
156.23 432.5 m 1
 273.9 432.5 l 1
 273.9 446 l 1
 156.084 446 l 1
 156.23 432.5 l 1
141.856 447.447 m 1
 153.92 456 l 1
 285.92 456 l 1
 287.991 454.535 l 1
 288.071 354.535 l 1
 276.008 346 l 1
 145.008 346 l 1
 142.938 347.447 l 1xffff7c7c
 141.856 447.447 l 1
157.057 356 m 1
 273.9 356 l 1
 273.9 367.5 l 1
 156.932 367.5 l 1
 157.057 356 l 1
61.4072 54.2588 m 1
 62 -40.4961 l 1
 73.9072 -52.1309 l 1
 73.9072 66.8848 l 1
 61.4072 54.2588 l 1
160.407 60.4492 m 1xfffefc3c
 161.407 60.4492 l 1
 161.407 152.316 l 1
 160.407 152.316 l 1
 160.407 60.4492 l 1xfffefc3c
138.907 -117.781 m 1
 151.407 -131.396 l 1
 151.407 145.159 l 1
 138.907 132.534 l 1
 138.907 -117.781 l 1
170.536 250.447 m 1
 170.407 67.4727 l 1
 182.036 79.0889 l 1
 182.036 250.447 l 1
 170.536 250.447 l 1
118.907 -97.5811 m 1
 133.907 -112.731 l 1
 133.907 127.484 l 1
 118.907 112.334 l 1
 118.907 -97.5811 l 1
98.5 -77.3809 m 1
 113.907 -92.5312 l 1
 113.907 107.284 l 1
 98.9072 92.1348 l 1
 98.9072 51.4473 98.5 -29.1084 98.5 -77.3809 c 1
78.9072 -57.1807 m 1
 93.9072 -72.3311 l 1
 93.9072 87.084 l 1
 78.9072 71.9336 l 1
 78.9072 -57.1807 l 1
187.036 250.447 m 1
 186.907 84.1377 l 1
 202.036 99.2881 l 1
 202.036 250.447 l 1
 187.036 250.447 l 1
207.036 250.447 m 1
 206.907 104.339 l 1
 222.036 119.488 l 1
 222.036 250.447 l 1
 207.036 250.447 l 1
227.036 250.447 m 1
 226.907 124.538 l 1
 242.036 139.688 l 1
 242.036 250.447 l 1
 227.036 250.447 l 1
247.036 250.447 m 1
 246.907 144.738 l 1
 260.536 158.373 l 1
 260.536 250.447 l 1xfffe7d3c
 247.036 250.447 l 1
351 -40.4961 m 1
 351 -16.5527 l 1
 338.5 -16.5527 l 1
 338.5 -53.1211 l 1
 351 -40.4961 l 1
160.536 253.447 m 1
 160.536 253.447 163.25 260.697 165.536 263.447 c 1
 167.617 261.366 l 1
 169.072 261.965 l 1
 269.072 261.965 l 1
 270.536 257.447 l 1
 270.536 156.316 l 1xfffe7d3c
 268.943 152.799 l 1
 168.943 51.7988 l 1
 167.488 52.3975 l 1
 165.407 50.3213 l 1
 161.409 50.3213 l 1
 161.409 -37.5527 l 1
 251 -37.5527 l 1
 251 -11.5527 l 1xfffe7e3c
 256 -6.55273 l 1
 356 -6.55273 l 1
 361 -11.5527 l 1
 361 -42.5527 l 1
 359.553 -46.0713 l 1
 259.553 -147.071 l 1
 258.086 -146.467 l 1
 256 -148.553 l 1
 157 -148.553 l 1
 154.919 -146.472 l 1
 153.464 -147.071 l 1
 53 -46.5527 l 1
 51 -42.5527 l 1
 51 56.4473 l 1
 53 59.4473 l 1
 152.854 160.834 l 1
 154.321 160.23 l 1
 156.407 162.316 l 1
 160.536 162.316 l 1
 160.536 253.447 l 1
251 -47.5527 m 1xfffe7e3c
 162 -47.5527 l 1
 162 -138.553 l 1
 251 -138.553 l 1
 251 -47.5527 l 1xfffe7e3c
261 -131.396 m 1
 273.5 -118.771 l 1
 273.5 -16.5527 l 1xfffe7ebc
 261 -16.5527 l 1
 261 -42.5527 l 1
 261 -131.396 l 1
278.5 -113.721 m 1
 293.5 -98.5713 l 1
 293.5 -16.5527 l 1
 278.5 -16.5527 l 1
 278.5 -113.721 l 1
298.5 -93.5215 m 1
 313.5 -78.3711 l 1
 313.5 -16.5527 l 1
 298.5 -16.5527 l 1
 298.5 -93.5215 l 1
318.5 -73.3213 m 1
 333.5 -58.1709 l 1
 333.5 -16.5527 l 1
 318.5 -16.5527 l 1
 318.5 -73.3213 l 1
EndSplineSet
EndChar

StartChar: Agrave
Encoding: 192 192 90
Width: 450
VWidth: 960
GlyphClass: 2
Flags: W
HStem: -5.00098 10<8.08496 108.722 305.001 316.501 321.501 336.501 341.501 356.501 361.501 376.501 381.501 395.001> 94.999 9.999<170.091 295.001> 144.998 10<194.46 295.001> 585.851 20G<297.32 381.214>
VStem: 295.001 10<4.99902 94.999 104.998 144.998 154.998 356.735 379.175 579.787> 316.501 5<4.99902 590.47> 336.501 5<4.99902 585.47> 356.501 5<4.99902 580.47> 376.501 5<4.99902 575.47> 395.001 10<4.99902 572.095> 442.494 10.343<591.599 604.508 610.119 626.956 632.568 649.405 655.017 671.854 677.464 692.618>
LayerCount: 2
Fore
SplineSet
336.677 632.814 m 1
 268.087 666.68 l 1
 265.575 669.536 l 1
 219.286 803.916 l 1
 226.228 810.028 l 1
 448.597 700.23 l 1
 451.382 695.812 l 1
 452.837 583.566 l 1
 450.353 581.999 l 1
 437.587 582.987 l 1
 336.677 632.814 l 1
238.95 777.537 m 1
 441.621 677.464 l 1
 441.423 692.618 l 1
 232.7 795.677 l 1
 238.95 777.537 l 1
241.264 770.818 m 1
 248.209 750.662 l 1
 441.912 655.017 l 1
 441.693 671.854 l 1
 241.264 770.818 l 1
250.521 743.943 m 1
 257.465 723.785 l 1
 442.203 632.568 l 1
 441.984 649.405 l 1
 250.521 743.943 l 1
259.779 717.066 m 1
 266.723 696.909 l 1
 442.494 610.119 l 1
 442.275 626.956 l 1
 259.779 717.066 l 1
269.037 690.189 m 1
 274.361 674.736 l 1
 349.141 637.812 l 1
 442.734 591.599 l 1
 442.566 604.508 l 1
 269.037 690.189 l 1
401.214 580.851 m 1
 405.001 575.999 l 1
 405.001 -0.000976562 l 1
 400.001 -5.00098 l 1
 300.001 -5.00098 l 1
 295.001 -0.000976562 l 1
 295.001 94.999 l 1
 164.698 94.999 l 1
 116.294 -2.22949 l 1
 111.818 -5.00098 l 1
 0.000976562 -5.00098 l 1
 -4.47266 2.23242 l 1
 295.527 603.232 l 1
 297.32 602.811 l 1
 301.214 605.851 l 1
 401.214 580.851 l 1
8.08496 4.99902 m 1
 108.722 4.99902 l 1
 295.001 379.175 l 1
 295.001 579.787 l 1
 8.08496 4.99902 l 1
381.501 575.47 m 1
 381.501 4.99902 l 1
 395.001 4.99902 l 1
 395.001 572.095 l 1
 381.501 575.47 l 1
376.501 576.72 m 1
 361.501 580.47 l 1
 361.501 4.99902 l 1
 376.501 4.99902 l 1
 376.501 576.72 l 1
356.501 581.72 m 1
 341.501 585.47 l 1
 341.501 4.99902 l 1
 356.501 4.99902 l 1
 356.501 581.72 l 1
336.501 586.72 m 1
 321.501 590.47 l 1
 321.501 4.99902 l 1
 336.501 4.99902 l 1
 336.501 586.72 l 1
316.501 591.72 m 1
 305.001 594.595 l 1
 305.001 377.999 l 1
 305.001 199.999 l 1
 305.001 99.999 l 1
 305.001 4.99902 l 1
 316.501 4.99902 l 1
 316.501 591.72 l 1
295.001 356.735 m 1
 194.46 154.998 l 1
 295.001 154.998 l 1
 295.001 356.735 l 1
295.001 144.998 m 1
 190.091 144.998 l 1
 170.091 104.998 l 1
 295.001 104.998 l 1
 295.001 144.998 l 1
EndSplineSet
EndChar

StartChar: Aacute
Encoding: 193 193 91
Width: 450
VWidth: 960
GlyphClass: 2
Flags: W
HStem: -5 10<8.08301 108.72 304.999 316.499 321.499 336.499 341.499 356.499 361.499 376.499 381.499 394.999> 95 9.999<170.089 294.999> 144.999 10<194.458 294.999> 585.852 20G<297.318 381.212>
VStem: 294.999 10<5 95 104.999 144.999 154.999 356.736 379.176 579.788> 316.499 5<5 590.471> 336.499 5<5 585.471> 356.499 5<5 580.471> 376.499 5<5 575.471> 394.999 10<5 572.096>
LayerCount: 2
Fore
SplineSet
264.031 722.573 m 1
 334.747 751.738 l 1
 338.551 751.74 l 1
 470.049 697.804 l 1
 470.058 688.556 l 1
 240.792 593.999 l 1
 235.634 594.823 l 1
 150.358 667.824 l 1
 150.822 670.727 l 1
 159.99 679.663 l 1
 264.031 722.573 l 1
437.254 700.446 m 1
 228.298 614.268 l 1
 239.81 604.411 l 1
 455.006 693.165 l 1
 437.254 700.446 l 1
430.68 703.145 m 1
 410.954 711.234 l 1
 211.243 628.866 l 1
 224.034 617.916 l 1
 430.68 703.145 l 1
404.38 713.932 m 1
 384.654 722.022 l 1
 194.188 643.468 l 1
 206.979 632.518 l 1
 404.38 713.932 l 1
378.08 724.719 m 1
 358.355 732.811 l 1
 177.133 658.069 l 1
 189.924 647.117 l 1
 378.08 724.719 l 1
351.779 735.508 m 1
 336.657 741.71 l 1
 259.557 709.912 l 1
 163.062 670.115 l 1
 172.868 661.719 l 1
 351.779 735.508 l 1
401.212 580.852 m 1
 404.999 576 l 1
 404.999 0 l 1
 399.999 -5 l 1
 299.999 -5 l 1
 294.999 0 l 1
 294.999 95 l 1
 164.696 95 l 1
 116.292 -2.22852 l 1
 111.816 -5 l 1
 -0.000976562 -5 l 1
 -4.47461 2.2334 l 1
 295.525 603.233 l 1
 297.318 602.812 l 1
 301.212 605.852 l 1
 401.212 580.852 l 1
8.08301 5 m 1
 108.72 5 l 1
 294.999 379.176 l 1
 294.999 579.788 l 1
 8.08301 5 l 1
381.499 575.471 m 1
 381.499 5 l 1
 394.999 5 l 1
 394.999 572.096 l 1
 381.499 575.471 l 1
376.499 576.721 m 1
 361.499 580.471 l 1
 361.499 5 l 1
 376.499 5 l 1
 376.499 576.721 l 1
356.499 581.721 m 1
 341.499 585.471 l 1
 341.499 5 l 1
 356.499 5 l 1
 356.499 581.721 l 1
336.499 586.721 m 1
 321.499 590.471 l 1
 321.499 5 l 1
 336.499 5 l 1
 336.499 586.721 l 1
316.499 591.721 m 1
 304.999 594.596 l 1
 304.999 378 l 1
 304.999 200 l 1
 304.999 100 l 1
 304.999 5 l 1
 316.499 5 l 1
 316.499 591.721 l 1
294.999 356.736 m 1
 194.458 154.999 l 1
 294.999 154.999 l 1
 294.999 356.736 l 1
294.999 144.999 m 1
 190.089 144.999 l 1
 170.089 104.999 l 1
 294.999 104.999 l 1
 294.999 144.999 l 1
EndSplineSet
EndChar

StartChar: Ccedilla
Encoding: 199 199 92
Width: 450
VWidth: 960
GlyphClass: 2
Flags: W
HStem: -179.628 10.011<177.151 273.591> -80.373 10<155.77 200.155 210.718 222.246 227.539 242.342 247.639 261.104 266.405 281.534 286.804 292.81> -5.00195 10<155.002 294.002> 95.998 10<155.002 294.002> 126.999 9.999<304.002 316.502 321.502 336.502 341.502 356.502 361.502 376.502 381.502 394.002> 459.998 10.001<304.002 316.502 321.502 336.502 341.502 356.502 361.502 376.502 381.502 394.002> 494.998 10.001<155.002 294.002> 595.999 9.99896<155.002 294.002>
VStem: 45.002 10<103.055 498.928> 68.502 5<89.4199 512.428> 88.502 5<69.2197 532.428> 108.502 5<49.0205 552.429> 128.502 5<28.8203 572.428> 145.002 10<12.1543 95.998 105.998 494.998 504.999 588.928> 294.002 10<12.1543 95.998 105.998 126.998 469.999 494.998 504.999 588.928> 316.502 5<29.8301 126.998 469.999 571.428> 336.502 5<50.0303 126.999 469.999 551.428> 356.502 5<70.2295 126.999 469.999 531.428> 376.502 5<90.4287 126.998 469.999 511.427> 394.002 10<103.054 126.998 469.998 498.927>
LayerCount: 2
Fore
SplineSet
177.151 -169.617 m 1
 273.591 -169.388 l 1
 277.483 -156.899 l 1
 172.892 -156.899 l 1
 177.151 -169.617 l 1
135.579 -76.9805 m 1
 137.388 -71.3232 l 1
 221.562 -10.3604 l 1
 227.439 -10.3604 l 1
 311.08 -71.3232 l 1
 312.909 -76.8428 l 1
 282.045 -175.868 l 1
 277.284 -179.38 l 1
 173.567 -179.628 l 1
 168.814 -176.215 l 1
 135.579 -76.9805 l 1
292.81 -70.373 m 1
 287.979 -66.8525 l 1
 286.804 -70.373 l 1
 292.81 -70.373 l 1
155.77 -70.373 m 1
 200.155 -70.373 l 1
 214.692 -27.6777 l 1
 155.77 -70.373 l 1
147.262 -80.373 m 1
 151.122 -91.9014 l 1
 297.741 -91.9014 l 1
 301.335 -80.373 l 1
 147.262 -80.373 l 1
227.039 -22.4424 m 1
 210.718 -70.373 l 1
 222.246 -70.373 l 1
 236.487 -29.3271 l 1
 227.039 -22.4424 l 1
171.218 -151.901 m 1
 279.042 -151.901 l 1
 283.717 -136.901 l 1
 166.193 -136.901 l 1
 171.218 -151.901 l 1
164.52 -131.901 m 1
 285.275 -131.901 l 1
 289.951 -116.901 l 1
 159.496 -116.901 l 1
 164.52 -131.901 l 1
157.821 -111.901 m 1
 291.509 -111.901 l 1
 296.185 -96.9014 l 1
 152.798 -96.9014 l 1
 157.821 -111.901 l 1
240.711 -32.4062 m 1
 227.539 -70.373 l 1
 242.342 -70.373 l 1
 252.575 -41.0508 l 1
 240.711 -32.4062 l 1
256.796 -44.1279 m 1
 247.639 -70.373 l 1
 261.104 -70.373 l 1
 267.582 -51.9873 l 1
 256.796 -44.1279 l 1
271.8 -55.0615 m 1
 266.405 -70.373 l 1
 281.534 -70.373 l 1
 283.74 -63.7627 l 1
 271.8 -55.0615 l 1
394.002 103.054 m 1
 394.002 126.998 l 1
 381.502 126.998 l 1
 381.502 90.4287 l 1
 394.002 103.054 l 1
45.002 500.998 m 1
 46.4492 504.534 l 1
 146.449 604.534 l 1
 147.927 603.923 l 1
 150.002 605.998 l 1
 299.002 605.998 l 1
 301.073 603.927 l 1
 302.538 604.534 l 1
 402.538 504.534 l 1
 404.002 500.998 l 1
 404.002 464.998 l 1
 399.002 459.998 l 1
 299.002 459.998 l 1
 294.002 464.998 l 1
 294.002 494.998 l 1
 155.002 494.998 l 1
 155.002 105.998 l 1
 294.002 105.998 l 1
 294.002 131.998 l 1
 299.002 136.998 l 1
 399.002 136.998 l 1
 404.002 131.998 l 1
 404.002 100.998 l 1
 402.538 97.4805 l 1
 302.538 -3.51953 l 1
 301.084 -2.91992 l 1
 299.002 -5.00195 l 1
 150.002 -5.00195 l 1
 147.916 -2.91602 l 1
 146.449 -3.51953 l 1
 46.4492 97.4805 l 1
 45.002 100.998 l 1
 45.002 500.998 l 1
394.002 469.998 m 1
 394.002 498.927 l 1
 381.502 511.427 l 1
 381.502 469.998 l 1
 394.002 469.998 l 1
294.002 95.998 m 1
 155.002 95.998 l 1
 155.002 4.99805 l 1
 294.002 4.99805 l 1
 294.002 95.998 l 1
304.002 12.1543 m 1
 316.502 24.7793 l 1
 316.502 126.998 l 1
 304.002 126.998 l 1
 304.002 100.998 l 1
 304.002 12.1543 l 1
145.002 100.998 m 1
 145.002 499.999 l 1
 145.002 588.928 l 1
 133.502 577.428 l 1
 133.502 23.7695 l 1
 145.002 12.1543 l 1
 145.002 100.998 l 1
155.002 504.999 m 1
 294.002 504.999 l 1
 294.002 595.999 l 1
 155.002 595.999 l 1
 155.002 504.999 l 1
304.002 499.999 m 1
 304.002 469.999 l 1
 316.502 469.999 l 1
 316.502 576.428 l 1
 304.002 588.928 l 1
 304.002 499.999 l 1
321.502 29.8301 m 1
 336.502 44.9805 l 1
 336.502 126.999 l 1
 321.502 126.999 l 1
 321.502 29.8301 l 1
341.502 50.0303 m 1
 356.502 65.1797 l 1
 356.502 126.999 l 1
 341.502 126.999 l 1
 341.502 50.0303 l 1
361.502 70.2295 m 1
 376.502 85.3799 l 1
 376.502 126.999 l 1
 361.502 126.999 l 1
 361.502 70.2295 l 1
321.502 469.999 m 1
 336.502 469.999 l 1
 336.502 556.428 l 1
 321.502 571.428 l 1
 321.502 469.999 l 1
341.502 469.999 m 1
 356.502 469.999 l 1
 356.502 536.428 l 1
 341.502 551.428 l 1
 341.502 469.999 l 1
361.502 469.999 m 1
 376.502 469.999 l 1
 376.502 516.428 l 1
 361.502 531.428 l 1
 361.502 469.999 l 1
128.502 572.428 m 1
 113.502 557.429 l 1
 113.502 43.9707 l 1
 128.502 28.8203 l 1
 128.502 572.428 l 1
108.502 552.429 m 1
 93.502 537.428 l 1
 93.502 64.1699 l 1
 108.502 49.0205 l 1
 108.502 552.429 l 1
88.502 532.428 m 1
 73.502 517.428 l 1
 73.502 84.3691 l 1
 88.502 69.2197 l 1
 88.502 532.428 l 1
68.502 512.428 m 1
 55.002 498.928 l 1
 55.002 103.055 l 1
 68.502 89.4199 l 1
 68.502 512.428 l 1
EndSplineSet
EndChar

StartChar: Egrave
Encoding: 200 200 93
Width: 450
VWidth: 960
GlyphClass: 2
Flags: W
HStem: -4.99902 10.002<155.001 295.001> 95.0029 9.9981<155.001 295.001> 126.001 10<305.001 317.501 322.501 337.501 342.501 357.501 362.501 377.501 382.501 395.001> 245.001 10.002<155.001 265.001> 345.003 9.99802<155.001 265.001> 463.001 10.002<305.001 317.501 322.501 337.501 342.501 357.501 362.501 377.501 382.501 395.001> 495.001 10.002<155.001 295.001> 595.003 9.99701<155.001 295.001>
VStem: 45.001 10<101.575 497.943> 66.501 5<89.96 509.56> 86.501 5<69.7598 529.76> 106.501 5<49.5605 549.961> 126.501 5.00001<29.3623 570.16> 145.001 10<10.6768 95.0029 105.001 245.001 255.003 345.003 355.001 495.001 505.003 588.847> 265.001 10<255.003 345.003> 295.001 10<11.1572 95.0029 105.001 126.001 473.003 495.001 505.003 587.847> 317.501 5<28.832 126.001 473.003 570.172> 331.991 10.634<617.601 630.51 636.121 652.958 658.57 675.407 681.019 697.855 703.466 718.62> 337.501 5<49.0322 126.001 473.003 549.972> 357.501 5<69.2324 126.001 473.002 529.77> 377.501 5<89.4346 126.001 473.001 509.569> 395.001 10<102.059 126.003 473.001 496.944>
LayerCount: 2
Fore
SplineSet
226.465 658.815 m 1xffffdc
 157.875 692.682 l 1
 155.363 695.537 l 1
 109.074 829.917 l 1
 116.016 836.029 l 1
 338.385 726.231 l 1
 341.17 721.812 l 1
 342.625 609.567 l 1
 340.141 608 l 1
 327.375 608.988 l 1
 226.465 658.815 l 1xffffdc
128.738 803.539 m 1
 331.409 703.466 l 1
 331.211 718.62 l 1
 122.488 821.679 l 1
 128.738 803.539 l 1
131.052 796.82 m 1
 137.997 776.664 l 1
 331.7 681.019 l 1
 331.481 697.855 l 1
 131.052 796.82 l 1
140.31 769.945 m 1
 147.253 749.787 l 1
 331.991 658.57 l 1
 331.772 675.407 l 1
 140.31 769.945 l 1
149.567 743.068 m 1
 156.511 722.911 l 1
 332.282 636.121 l 1
 332.063 652.958 l 1
 149.567 743.068 l 1
158.825 716.191 m 1
 164.149 700.738 l 1
 238.929 663.813 l 1
 332.522 617.601 l 1
 332.354 630.51 l 1
 158.825 716.191 l 1
146.448 -4.99902 m 1
 46.4482 96 l 1
 45.001 99.5176 l 1
 45.001 500 l 1
 46.4482 503.518 l 1
 146.448 604.518 l 1
 148.624 603.623 l 1
 150.001 605 l 1
 300.001 605 l 1
 302.087 602.914 l 1
 303.554 603.519 l 1
 403.554 502.519 l 1
 405.001 499.001 l 1
 405.001 468.001 l 1
 400.001 463.001 l 1
 300.001 463.001 l 1
 295.001 468.001 l 1
 295.001 495.001 l 1
 155.001 495.001 l 1
 155.001 355.001 l 1
 270.001 355.001 l 1
 275.001 350.001 l 1
 275.001 250.001 l 1
 270.001 245.001 l 1
 155.001 245.001 l 1
 155.001 105.001 l 1
 295.001 105.001 l 1
 295.001 131.001 l 1
 300.001 136.001 l 1
 400.001 136.001 l 1
 405.001 131.001 l 1
 405.001 100.001 l 1
 403.554 96.4834 l 1
 303.554 -4.5166 l 1
 301.378 -3.62207 l 1
 300.001 -4.99902 l 1
 150.001 -4.99902 l 1
 148.966 -3.96387 l 1
 146.448 -4.99902 l 1
55.001 101.575 m 1
 66.501 89.96 l 1
 66.501 509.56 l 1
 55.001 497.943 l 1
 55.001 101.575 l 1
86.501 529.76 m 1
 71.501 514.609 l 1
 71.501 84.9111 l 1
 86.501 69.7598 l 1
 86.501 529.76 l 1
106.501 549.961 m 1
 91.501 534.811 l 1
 91.501 64.7109 l 1
 106.501 49.5605 l 1
 106.501 549.961 l 1
126.501 570.16 m 1
 111.501 555.011 l 1
 111.501 44.5107 l 1
 126.501 29.3623 l 1
 126.501 570.16 l 1
395.001 102.059 m 1
 395.001 126.003 l 1
 382.501 126.003 l 1
 382.501 89.4346 l 1
 395.001 102.059 l 1
155.001 95.0029 m 1
 155.001 5.00293 l 1
 295.001 5.00293 l 1
 295.001 95.0029 l 1
 155.001 95.0029 l 1
145.001 10.6768 m 1
 145.001 100.003 l 1
 145.001 250.003 l 1
 145.001 350.003 l 1
 145.001 500.003 l 1
 145.001 588.847 l 1
 131.501 575.212 l 1
 131.501 24.3115 l 1
 145.001 10.6768 l 1
155.001 345.003 m 1
 155.001 255.003 l 1
 265.001 255.003 l 1
 265.001 345.003 l 1
 155.001 345.003 l 1
155.001 595.003 m 1
 155.001 505.003 l 1
 295.001 505.003 l 1
 295.001 595.003 l 1
 155.001 595.003 l 1
305.001 500.003 m 1
 305.001 473.003 l 1
 317.501 473.003 l 1
 317.501 575.222 l 1
 305.001 587.847 l 1
 305.001 500.003 l 1
322.501 473.003 m 1
 337.501 473.003 l 1
 337.501 555.021 l 1xffffbc
 322.501 570.172 l 1
 322.501 473.003 l 1
342.501 473.003 m 1
 357.501 473.002 l 1
 357.501 534.82 l 1
 342.501 549.972 l 1
 342.501 473.003 l 1
362.501 473.002 m 1
 377.501 473.001 l 1
 377.501 514.619 l 1
 362.501 529.77 l 1
 362.501 473.002 l 1
382.501 473.001 m 1
 395.001 473.001 l 1
 395.001 496.944 l 1
 382.501 509.569 l 1
 382.501 473.001 l 1
305.001 11.1572 m 1
 317.501 23.7822 l 1
 317.501 126.001 l 1
 305.001 126.001 l 1
 305.001 100.001 l 1
 305.001 11.1572 l 1
322.501 28.832 m 1
 337.501 43.9824 l 1
 337.501 126.001 l 1
 322.501 126.001 l 1
 322.501 28.832 l 1
342.501 49.0322 m 1
 357.501 64.1826 l 1
 357.501 126.001 l 1
 342.501 126.001 l 1
 342.501 49.0322 l 1
362.501 69.2324 m 1
 377.501 84.3828 l 1
 377.501 126.001 l 1
 362.501 126.001 l 1
 362.501 69.2324 l 1
EndSplineSet
EndChar

StartChar: Eacute
Encoding: 201 201 94
Width: 450
VWidth: 960
GlyphClass: 2
Flags: W
HStem: -4.99902 10.002<154.999 294.999> 95.0029 9.9981<154.999 294.999> 126.001 10<304.999 317.499 322.499 337.499 342.499 357.499 362.499 377.499 382.499 394.999> 245.001 10.002<154.999 264.999> 345.003 9.99802<154.999 264.999> 463.001 10.002<304.999 317.499 322.499 337.499 342.499 357.499 362.499 377.499 382.499 394.999> 495.001 10.002<154.999 294.999> 595.003 9.99701<154.999 294.999>
VStem: 44.999 10<101.575 497.943> 66.499 5<89.96 509.56> 86.499 5<69.7598 529.76> 106.499 5<49.5605 549.961> 126.499 4.99999<29.3623 570.16> 144.999 10<10.6768 95.0029 105.001 245.001 255.003 345.003 355.001 495.001 505.003 588.847> 264.999 10<255.003 345.003> 294.999 10<11.1572 95.0029 105.001 126.001 473.003 495.001 505.003 587.847> 317.499 5<28.832 126.001 473.003 570.172> 337.499 5<49.0322 126.001 473.003 549.972> 357.499 5<69.2324 126.001 473.002 529.77> 377.499 5<89.4346 126.001 473.001 509.569> 394.999 10<102.059 126.003 473.001 496.944>
LayerCount: 2
Fore
SplineSet
168.818 743.573 m 1
 239.534 772.738 l 1
 243.338 772.74 l 1
 374.836 718.804 l 1
 374.845 709.556 l 1
 145.579 614.999 l 1
 140.421 615.823 l 1
 55.1455 688.824 l 1
 55.6094 691.727 l 1
 64.7773 700.663 l 1
 168.818 743.573 l 1
342.041 721.446 m 1
 133.085 635.268 l 1
 144.597 625.411 l 1
 359.793 714.165 l 1
 342.041 721.446 l 1
335.467 724.145 m 1
 315.741 732.234 l 1
 116.03 649.866 l 1
 128.821 638.916 l 1
 335.467 724.145 l 1
309.167 734.932 m 1
 289.441 743.022 l 1
 98.9746 664.468 l 1
 111.767 653.518 l 1
 309.167 734.932 l 1
282.867 745.719 m 1
 263.143 753.811 l 1
 81.9199 679.069 l 1
 94.7109 668.117 l 1
 282.867 745.719 l 1
256.566 756.508 m 1
 241.444 762.71 l 1
 164.344 730.912 l 1
 67.8486 691.115 l 1
 77.6553 682.719 l 1
 256.566 756.508 l 1
146.446 -4.99902 m 1
 46.4463 96 l 1
 44.999 99.5176 l 1
 44.999 500 l 1
 46.4463 503.518 l 1
 146.446 604.518 l 1
 148.622 603.623 l 1
 149.999 605 l 1
 299.999 605 l 1
 302.085 602.914 l 1
 303.552 603.519 l 1
 403.552 502.519 l 1
 404.999 499.001 l 1
 404.999 468.001 l 1
 399.999 463.001 l 1
 299.999 463.001 l 1
 294.999 468.001 l 1
 294.999 495.001 l 1
 154.999 495.001 l 1
 154.999 355.001 l 1
 269.999 355.001 l 1
 274.999 350.001 l 1
 274.999 250.001 l 1
 269.999 245.001 l 1
 154.999 245.001 l 1
 154.999 105.001 l 1
 294.999 105.001 l 1
 294.999 131.001 l 1
 299.999 136.001 l 1
 399.999 136.001 l 1
 404.999 131.001 l 1
 404.999 100.001 l 1
 403.552 96.4834 l 1
 303.552 -4.5166 l 1
 301.376 -3.62207 l 1
 299.999 -4.99902 l 1
 149.999 -4.99902 l 1
 148.964 -3.96387 l 1
 146.446 -4.99902 l 1
54.999 101.575 m 1
 66.499 89.96 l 1
 66.499 509.56 l 1
 54.999 497.943 l 1
 54.999 101.575 l 1
86.499 529.76 m 1
 71.499 514.609 l 1
 71.499 84.9111 l 1
 86.499 69.7598 l 1
 86.499 529.76 l 1
106.499 549.961 m 1
 91.499 534.811 l 1
 91.499 64.7109 l 1
 106.499 49.5605 l 1
 106.499 549.961 l 1
126.499 570.16 m 1
 111.499 555.011 l 1
 111.499 44.5107 l 1
 126.499 29.3623 l 1
 126.499 570.16 l 1
394.999 102.059 m 1
 394.999 126.003 l 1
 382.499 126.003 l 1
 382.499 89.4346 l 1
 394.999 102.059 l 1
154.999 95.0029 m 1
 154.999 5.00293 l 1
 294.999 5.00293 l 1
 294.999 95.0029 l 1
 154.999 95.0029 l 1
144.999 10.6768 m 1
 144.999 100.003 l 1
 144.999 250.003 l 1
 144.999 350.003 l 1
 144.999 500.003 l 1
 144.999 588.847 l 1
 131.499 575.212 l 1
 131.499 24.3115 l 1
 144.999 10.6768 l 1
154.999 345.003 m 1
 154.999 255.003 l 1
 264.999 255.003 l 1
 264.999 345.003 l 1
 154.999 345.003 l 1
154.999 595.003 m 1
 154.999 505.003 l 1
 294.999 505.003 l 1
 294.999 595.003 l 1
 154.999 595.003 l 1
304.999 500.003 m 1
 304.999 473.003 l 1
 317.499 473.003 l 1
 317.499 575.222 l 1
 304.999 587.847 l 1
 304.999 500.003 l 1
322.499 473.003 m 1
 337.499 473.003 l 1
 337.499 555.021 l 1
 322.499 570.172 l 1
 322.499 473.003 l 1
342.499 473.003 m 1
 357.499 473.002 l 1
 357.499 534.82 l 1
 342.499 549.972 l 1
 342.499 473.003 l 1
362.499 473.002 m 1
 377.499 473.001 l 1
 377.499 514.619 l 1
 362.499 529.77 l 1
 362.499 473.002 l 1
382.499 473.001 m 1
 394.999 473.001 l 1
 394.999 496.944 l 1
 382.499 509.569 l 1
 382.499 473.001 l 1
304.999 11.1572 m 1
 317.499 23.7822 l 1
 317.499 126.001 l 1
 304.999 126.001 l 1
 304.999 100.001 l 1
 304.999 11.1572 l 1
322.499 28.832 m 1
 337.499 43.9824 l 1
 337.499 126.001 l 1
 322.499 126.001 l 1
 322.499 28.832 l 1
342.499 49.0322 m 1
 357.499 64.1826 l 1
 357.499 126.001 l 1
 342.499 126.001 l 1
 342.499 49.0322 l 1
362.499 69.2324 m 1
 377.499 84.3828 l 1
 377.499 126.001 l 1
 362.499 126.001 l 1
 362.499 69.2324 l 1
EndSplineSet
EndChar

